{
.appVersion = "3048";
DisplayStrings = (
"/uniA812A806A812/uniA812A806A812.alt2/uniA812A806A812.alt6/uniA812A806A812.alt3/uniA812A806A812.alt4/uniA812A806A812.alt5"
);
copyright = "Copyright (c) 1999-2019 by Sylheti Translation And Research";
customParameters = (
{
name = hheaAscender;
value = 1700;
},
{
name = hheaDescender;
value = -650;
},
{
name = hheaLineGap;
value = 0;
},
{
name = preferredFamilyName;
value = Surma;
},
{
name = preferredSubfamilyName;
value = Regular;
},
{
name = panose;
value = (
2,
0,
6,
6,
5,
0,
0,
2,
0,
4
);
},
{
name = fsType;
value = (
);
},
{
name = typoAscender;
value = 1700;
},
{
name = typoDescender;
value = -650;
},
{
name = typoLineGap;
value = 0;
},
{
name = unicodeRanges;
value = (
0,
1,
15,
16,
31,
38
);
},
{
name = strikeoutSize;
value = 102;
},
{
name = strikeoutPosition;
value = 512;
},
{
name = subscriptXSize;
value = 1434;
},
{
name = subscriptYSize;
value = 1331;
},
{
name = subscriptXOffset;
value = 0;
},
{
name = subscriptYOffset;
value = 287;
},
{
name = superscriptXSize;
value = 1434;
},
{
name = superscriptYSize;
value = 1331;
},
{
name = superscriptXOffset;
value = 0;
},
{
name = superscriptYOffset;
value = 977;
},
{
name = underlinePosition;
value = -246;
},
{
name = underlineThickness;
value = 40;
},
{
name = openTypeNameVersion;
value = "Version 3.900";
},
{
name = styleMapFamilyName;
value = Surma;
},
{
name = styleMapStyleName;
value = regular;
},
{
name = codePageRanges;
value = (
1252
);
},
{
name = winAscent;
value = 1700;
},
{
name = winDescent;
value = 650;
},
{
name = weightClass;
value = 400;
},
{
name = widthClass;
value = 5;
},
{
name = "Disable Last Change";
value = 1;
},
{
name = glyphOrder;
value = (
.notdef,
.null,
CR,
space,
exclam,
quotedbl,
numbersign,
dollar,
percent,
ampersand,
quotesingle,
parenleft,
parenright,
asterisk,
plus,
comma,
hyphen,
period,
slash,
zero,
one,
two,
three,
four,
five,
six,
seven,
eight,
nine,
colon,
semicolon,
less,
equal,
greater,
question,
at,
A,
B,
C,
D,
E,
F,
G,

glyphs = (
{
glyphname = .notdef;
layers = (
{
layerId = "233CC76B-C9AF-4A7F-B493-FFD1BBE88986";
paths = (
{
closed = 1;
nodes = (
"989 0 LINE",
"989 1370 LINE",
"76 1370 LINE",
"76 0 LINE"
);
},
{
closed = 1;
nodes = (
"951 1332 LINE",
"951 38 LINE",
"114 38 LINE",
"114 1332 LINE"
);
}
);
width = 1065;
}
);
},
{
glyphname = exclam;
layers = (
{
layerId = "233CC76B-C9AF-4A7F-B493-FFD1BBE88986";
paths = (
{
closed = 1;
nodes = (
"676 928 LINE",
"676 936 OFFCURVE",
"678 944 OFFCURVE",
"678 952 CURVE SMOOTH",
"678 1014 OFFCURVE",
"654 1132 OFFCURVE",
"574 1132 CURVE SMOOTH",
"494 1132 OFFCURVE",
"486 1026 OFFCURVE",
"486 968 CURVE SMOOTH",
"486 808 OFFCURVE",
"554 508 OFFCURVE",
"582 340 CURVE",
"618 380 LINE"
);
},
{
closed = 1;
nodes = (
"682 210 OFFCURVE",
"644 248 OFFCURVE",
"592 248 CURVE SMOOTH",
"542 248 OFFCURVE",
"504 208 OFFCURVE",
"504 158 CURVE SMOOTH",
"504 110 OFFCURVE",
"544 70 OFFCURVE",
"592 70 CURVE SMOOTH",
"644 70 OFFCURVE",
"682 106 OFFCURVE",
"682 158 CURVE SMOOTH"
);
}
);
width = 962;
}
);
unicode = 0021;
},
{
glyphname = quotedbl;
layers = (
{
layerId = "233CC76B-C9AF-4A7F-B493-FFD1BBE88986";
paths = (
{
closed = 1;
nodes = (
"680 1262 OFFCURVE",
"638 1288 OFFCURVE",
"602 1288 CURVE SMOOTH",
"566 1288 OFFCURVE",
"526 1260 OFFCURVE",
"526 1220 CURVE SMOOTH",
"526 1126 OFFCURVE",
"568 956 OFFCURVE",
"584 858 CURVE",
"620 858 LINE",
"634 940 OFFCURVE",
"680 1152 OFFCURVE",
"680 1222 CURVE SMOOTH"
);
},
{
closed = 1;
nodes = (
"364 1254 OFFCURVE",
"318 1288 OFFCURVE",
"278 1288 CURVE SMOOTH",
"242 1288 OFFCURVE",
"200 1256 OFFCURVE",
"200 1218 CURVE SMOOTH",
"200 1136 OFFCURVE",
"244 948 OFFCURVE",
"260 858 CURVE",
"296 858 LINE",
"356 1210 LINE"
);
}
);
width = 840;
}
);
unicode = 0022;
},
{
glyphname = numbersign;
layers = (
{
layerId = "233CC76B-C9AF-4A7F-B493-FFD1BBE88986";
paths = (
{
closed = 1;
nodes = (
"974 804 LINE",
"822 804 LINE",
"868 1120 LINE",
"778 1120 LINE",
"732 804 LINE",
"524 804 LINE",
"574 1120 LINE",
"482 1120 LINE",
"434 804 LINE",
"250 804 LINE",
"250 720 LINE",
"422 720 LINE",
"390 510 LINE",
"208 510 LINE",
"208 424 LINE",
"376 424 LINE",
"324 88 LINE",
"414 88 LINE",
"466 424 LINE",
"674 424 LINE",
"626 88 LINE",
"716 88 LINE",
"764 424 LINE",
"934 424 LINE",
"934 510 LINE",
"778 510 LINE",
"810 720 LINE",
"974 720 LINE"
);
},
{
closed = 1;
nodes = (
"688 510 LINE",
"480 510 LINE",
"512 720 LINE",
"720 720 LINE"
);
}
);
width = 1214;
}
);
unicode = 0023;
},
{
glyphname = dollar;
layers = (
{
layerId = "233CC76B-C9AF-4A7F-B493-FFD1BBE88986";
paths = (
{
closed = 1;
nodes = (
"702 488 OFFCURVE",
"626 544 OFFCURVE",
"400 706 CURVE",
"400 1092 LINE",
"554 1077 OFFCURVE",
"611 990 OFFCURVE",
"622 847 CURVE",
"652 847 LINE",
"652 1075 LINE",
"570 1107 OFFCURVE",
"519 1125 OFFCURVE",
"505 1129 CURVE",
"477 1135 OFFCURVE",
"441 1142 OFFCURVE",
"400 1143 CURVE",
"400 1213 LINE",
"352 1213 LINE",
"352 1143 LINE",
"249 1136 OFFCURVE",
"83 1069 OFFCURVE",
"83 896 CURVE SMOOTH",
"83 745 OFFCURVE",
"182 677 OFFCURVE",
"352 566 CURVE",
"352 122 LINE",
"205 135 OFFCURVE",
"126 204 OFFCURVE",
"116 348 CURVE",
"83 348 LINE",
"83 132 LINE",
"154 101 OFFCURVE",
"263 75 OFFCURVE",
"352 70 CURVE",
"352 -26 LINE",
"400 -26 LINE",
"400 70 LINE",
"556 80 OFFCURVE",
"702 184 OFFCURVE",
"702 349 CURVE SMOOTH"
);
},
{
closed = 1;
nodes = (
"298 773 OFFCURVE",
"201 837 OFFCURVE",
"201 943 CURVE SMOOTH",
"201 1060 OFFCURVE",
"303 1085 OFFCURVE",
"352 1092 CURVE",
"352 738 LINE"
);
},
{
closed = 1;
nodes = (
"581 174 OFFCURVE",
"457 126 OFFCURVE",
"400 122 CURVE",
"400 532 LINE",
"516 451 OFFCURVE",
"581 402 OFFCURVE",
"581 312 CURVE SMOOTH"
);
}
);
width = 780;
}
);
unicode = 0024;
},
{
glyphname = percent;
layers = (
{
layerId = "233CC76B-C9AF-4A7F-B493-FFD1BBE88986";
paths = (
{
closed = 1;
nodes = (
"1160 550 OFFCURVE",
"1130 634 OFFCURVE",
"1002 634 CURVE SMOOTH",
"860 634 OFFCURVE",
"758 458 OFFCURVE",
"758 330 CURVE SMOOTH",
"758 218 OFFCURVE",
"820 130 OFFCURVE",
"938 130 CURVE SMOOTH",
"1098 130 OFFCURVE",
"1160 306 OFFCURVE",
"1160 440 CURVE SMOOTH"
);
},
{
closed = 1;
nodes = (
"1108 356 OFFCURVE",
"1042 180 OFFCURVE",
"938 180 CURVE SMOOTH",
"890 180 OFFCURVE",
"876 228 OFFCURVE",
"876 268 CURVE SMOOTH",
"876 344 OFFCURVE",
"930 570 OFFCURVE",
"1028 570 CURVE SMOOTH",
"1092 570 OFFCURVE",
"1108 494 OFFCURVE",
"1108 444 CURVE SMOOTH"
);
},
{
closed = 1;
nodes = (
"964 1172 LINE",
"912 1102 OFFCURVE",
"828 1054 OFFCURVE",
"740 1054 CURVE SMOOTH",
"552 1054 OFFCURVE",
"554 1144 OFFCURVE",
"474 1144 CURVE SMOOTH",
"320 1144 OFFCURVE",
"208 988 OFFCURVE",
"208 844 CURVE SMOOTH",
"208 734 OFFCURVE",
"282 644 OFFCURVE",
"396 644 CURVE SMOOTH",
"566 644 OFFCURVE",
"608 848 OFFCURVE",
"608 980 CURVE SMOOTH",
"608 994 OFFCURVE",
"606 1008 OFFCURVE",
"600 1020 CURVE",
"632 1006 OFFCURVE",
"668 1000 OFFCURVE",
"704 1000 CURVE SMOOTH",
"760 1000 OFFCURVE",
"816 1012 OFFCURVE",
"868 1034 CURVE",
"350 90 LINE",
"436 90 LINE",
"1030 1172 LINE"
);
},
{
closed = 1;
nodes = (
"564 872 OFFCURVE",
"492 692 OFFCURVE",
"394 692 CURVE SMOOTH",
"342 692 OFFCURVE",
"332 740 OFFCURVE",
"332 782 CURVE SMOOTH",
"332 856 OFFCURVE",
"386 1082 OFFCURVE",
"482 1082 CURVE SMOOTH",
"542 1082 OFFCURVE",
"564 1004 OFFCURVE",
"564 956 CURVE SMOOTH"
);
}
);
width = 1336;
}
);
unicode = 0025;
},
{
glyphname = ampersand;
layers = (
{
layerId = "233CC76B-C9AF-4A7F-B493-FFD1BBE88986";
paths = (
{
closed = 1;
nodes = (
"1137 298 LINE",
"1128 260 OFFCURVE",
"1095 186 OFFCURVE",
"998 186 CURVE SMOOTH",
"891 186 OFFCURVE",
"814 278 OFFCURVE",
"769 329 CURVE",
"825 399 OFFCURVE",
"877 473 OFFCURVE",
"921 555 CURVE SMOOTH",
"1011 719 OFFCURVE",
"1030 719 OFFCURVE",
"1116 728 CURVE",
"1116 757 LINE",
"794 757 LINE",
"794 728 LINE",
"808 728 OFFCURVE",
"867 715 OFFCURVE",
"867 644 CURVE SMOOTH",
"867 570 OFFCURVE",
"822 480 OFFCURVE",
"733 374 CURVE",
"661 470 OFFCURVE",
"594 574 OFFCURVE",
"531 688 CURVE",
"624 738 OFFCURVE",
"782 816 OFFCURVE",
"782 963 CURVE SMOOTH",
"782 1059 OFFCURVE",
"710 1149 OFFCURVE",
"575 1149 CURVE SMOOTH",
"451 1149 OFFCURVE",
"310 1072 OFFCURVE",
"310 897 CURVE SMOOTH",
"310 804 OFFCURVE",
"349 723 OFFCURVE",
"374 670 CURVE",
"249 604 OFFCURVE",
"57 486 OFFCURVE",
"57 298 CURVE SMOOTH",
"57 186 OFFCURVE",
"148 69 OFFCURVE",
"330 69 CURVE SMOOTH",
"498 69 OFFCURVE",
"600 163 OFFCURVE",
"663 218 CURVE",
"718 158 OFFCURVE",
"810 69 OFFCURVE",
"930 69 CURVE SMOOTH",
"1089 69 OFFCURVE",
"1149 203 OFFCURVE",
"1165 279 CURVE"
);
},
{
closed = 1;
nodes = (
"693 836 OFFCURVE",
"568 768 OFFCURVE",
"505 740 CURVE",
"478 798 OFFCURVE",
"441 886 OFFCURVE",
"441 957 CURVE SMOOTH",
"441 987 OFFCURVE",
"465 1095 OFFCURVE",
"575 1095 CURVE SMOOTH",
"637 1095 OFFCURVE",
"693 1043 OFFCURVE",
"693 966 CURVE SMOOTH"
);
},
{
closed = 1;
nodes = (
"572 219 OFFCURVE",
"502 161 OFFCURVE",
"408 161 CURVE SMOOTH",
"282 161 OFFCURVE",
"216 266 OFFCURVE",
"216 366 CURVE SMOOTH",
"216 512 OFFCURVE",
"338 585 OFFCURVE",
"398 618 CURVE",
"431 556 OFFCURVE",
"457 505 OFFCURVE",
"482 462 CURVE SMOOTH",
"508 418 OFFCURVE",
"555 354 OFFCURVE",
"622 260 CURVE"
);
}
);
width = 1214;
}
);
unicode = 0026;
},
{
glyphname = quotesingle;
layers = (
{
layerId = "233CC76B-C9AF-4A7F-B493-FFD1BBE88986";
paths = (
{
closed = 1;
nodes = (
"310 944 OFFCURVE",
"354 1138 OFFCURVE",
"354 1218 CURVE SMOOTH",
"354 1256 OFFCURVE",
"312 1288 OFFCURVE",
"276 1288 CURVE SMOOTH",
"240 1288 OFFCURVE",
"200 1258 OFFCURVE",
"200 1220 CURVE SMOOTH",
"200 1138 OFFCURVE",
"244 948 OFFCURVE",
"260 858 CURVE",
"294 858 LINE"
);
}
);
width = 520;
}
);
unicode = 0027;
},
{
glyphname = parenleft;
layers = (
{
layerId = "233CC76B-C9AF-4A7F-B493-FFD1BBE88986";
paths = (
{
closed = 1;
nodes = (
"332 144 OFFCURVE",
"296 354 OFFCURVE",
"296 632 CURVE SMOOTH",
"296 872 OFFCURVE",
"352 1096 OFFCURVE",
"560 1240 CURVE",
"546 1264 LINE",
"310 1118 OFFCURVE",
"164 900 OFFCURVE",
"164 618 CURVE SMOOTH",
"164 322 OFFCURVE",
"300 100 OFFCURVE",
"542 -62 CURVE",
"560 -38 LINE"
);
}
);
width = 582;
}
);
unicode = 0028;
},
{
glyphname = parenright;
layers = (
{
layerId = "233CC76B-C9AF-4A7F-B493-FFD1BBE88986";
paths = (
{
closed = 1;
nodes = (
"518 802 OFFCURVE",
"430 1012 OFFCURVE",
"266 1170 CURVE SMOOTH",
"228 1206 OFFCURVE",
"188 1242 OFFCURVE",
"140 1264 CURVE",
"122 1240 LINE",
"354 1076 OFFCURVE",
"386 834 OFFCURVE",
"386 570 CURVE SMOOTH",
"386 326 OFFCURVE",
"330 108 OFFCURVE",
"122 -38 CURVE",
"136 -62 LINE",
"368 74 OFFCURVE",
"518 302 OFFCURVE",
"518 574 CURVE SMOOTH"
);
}
);
width = 738;
}
);
unicode = 0029;
},
{
glyphname = asterisk;
layers = (
{
layerId = "233CC76B-C9AF-4A7F-B493-FFD1BBE88986";
paths = (
{
closed = 1;
nodes = (
"792 1254 OFFCURVE",
"764 1278 OFFCURVE",
"732 1278 CURVE SMOOTH",
"658 1278 OFFCURVE",
"590 1164 OFFCURVE",
"530 1126 CURVE",
"536 1196 OFFCURVE",
"574 1262 OFFCURVE",
"574 1334 CURVE SMOOTH",
"574 1368 OFFCURVE",
"556 1412 OFFCURVE",
"516 1412 CURVE SMOOTH",
"470 1412 OFFCURVE",
"452 1374 OFFCURVE",
"452 1332 CURVE SMOOTH",
"452 1262 OFFCURVE",
"494 1196 OFFCURVE",
"498 1126 CURVE",
"434 1166 OFFCURVE",
"368 1280 OFFCURVE",
"290 1280 CURVE SMOOTH",
"260 1280 OFFCURVE",
"234 1256 OFFCURVE",
"234 1226 CURVE SMOOTH",
"234 1132 OFFCURVE",
"416 1128 OFFCURVE",
"480 1096 CURVE",
"418 1070 OFFCURVE",
"234 1060 OFFCURVE",
"234 970 CURVE SMOOTH",
"234 936 OFFCURVE",
"264 914 OFFCURVE",
"296 914 CURVE SMOOTH",
"354 914 OFFCURVE",
"446 1036 OFFCURVE",
"498 1070 CURVE",
"490 996 OFFCURVE",
"450 928 OFFCURVE",
"450 854 CURVE SMOOTH",
"450 812 OFFCURVE",
"476 782 OFFCURVE",
"518 782 CURVE SMOOTH",
"554 782 OFFCURVE",
"574 822 OFFCURVE",
"574 854 CURVE SMOOTH",
"574 928 OFFCURVE",
"532 996 OFFCURVE",
"530 1070 CURVE",
"584 1030 OFFCURVE",
"664 914 OFFCURVE",
"732 914 CURVE SMOOTH",
"762 914 OFFCURVE",
"790 940 OFFCURVE",
"790 970 CURVE SMOOTH",
"790 1062 OFFCURVE",
"606 1064 OFFCURVE",
"544 1096 CURVE",
"602 1120 OFFCURVE",
"792 1136 OFFCURVE",
"792 1220 CURVE SMOOTH"
);
}
);
width = 902;
}
);
unicode = 002A;
},
{
glyphname = plus;
layers = (
{
layerId = "233CC76B-C9AF-4A7F-B493-FFD1BBE88986";
paths = (
{
closed = 1;
nodes = (
"970 554 LINE",
"628 554 LINE",
"628 894 LINE",
"528 894 LINE",
"528 554 LINE",
"186 554 LINE",
"186 454 LINE",
"528 454 LINE",
"528 108 LINE",
"628 108 LINE",
"628 454 LINE",
"970 454 LINE"
);
}
);
width = 1144;
}
);
unicode = 002B;
},
{
glyphname = comma;
layers = (
{
layerId = "233CC76B-C9AF-4A7F-B493-FFD1BBE88986";
paths = (
{
closed = 1;
nodes = (
"446 210 OFFCURVE",
"422 306 OFFCURVE",
"322 306 CURVE SMOOTH",
"252 306 OFFCURVE",
"196 262 OFFCURVE",
"196 190 CURVE SMOOTH",
"196 124 OFFCURVE",
"246 72 OFFCURVE",
"312 72 CURVE SMOOTH",
"332 72 OFFCURVE",
"352 72 OFFCURVE",
"370 82 CURVE",
"370 -14 OFFCURVE",
"302 -76 OFFCURVE",
"224 -120 CURVE",
"240 -156 LINE",
"346 -114 OFFCURVE",
"446 12 OFFCURVE",
"446 128 CURVE SMOOTH"
);
}
);
width = 642;
}
);
unicode = 002C;
},
{
glyphname = hyphen;
layers = (
{
layerId = "233CC76B-C9AF-4A7F-B493-FFD1BBE88986";
paths = (
{
closed = 1;
nodes = (
"532 554 LINE",
"148 554 LINE",
"148 456 LINE",
"532 456 LINE"
);
}
);
width = 720;
}
);
unicode = 002D;
},
{
glyphname = period;
layers = (
{
layerId = "233CC76B-C9AF-4A7F-B493-FFD1BBE88986";
paths = (
{
closed = 1;
nodes = (
"440 260 OFFCURVE",
"390 310 OFFCURVE",
"318 310 CURVE SMOOTH",
"252 310 OFFCURVE",
"200 256 OFFCURVE",
"200 190 CURVE SMOOTH",
"200 124 OFFCURVE",
"254 70 OFFCURVE",
"318 70 CURVE SMOOTH",
"388 70 OFFCURVE",
"440 120 OFFCURVE",
"440 190 CURVE SMOOTH"
);
}
);
width = 640;
}
);
unicode = 002E;
},
{
glyphname = slash;
layers = (
{
layerId = "233CC76B-C9AF-4A7F-B493-FFD1BBE88986";
paths = (
{
closed = 1;
nodes = (
"444 1212 LINE",
"52 -18 LINE",
"150 -18 LINE",
"542 1212 LINE"
);
}
);
width = 592;
}
);
unicode = 002F;
},
{
glyphname = zero;
layers = (
{
anchors = (
{
name = L;
position = "{390, 17}";
},
{
name = U;
position = "{390, 1185}";
}
);
layerId = "233CC76B-C9AF-4A7F-B493-FFD1BBE88986";
paths = (
{
closed = 1;
nodes = (
"724 340 OFFCURVE",
"606 75 OFFCURVE",
"385 75 CURVE SMOOTH",
"183 75 OFFCURVE",
"56 335 OFFCURVE",
"56 603 CURVE SMOOTH",
"56 932 OFFCURVE",
"216 1148 OFFCURVE",
"393 1148 CURVE SMOOTH",
"567 1148 OFFCURVE",
"724 945 OFFCURVE",
"724 618 CURVE SMOOTH"
);
},
{
closed = 1;
nodes = (
"575 927 OFFCURVE",
"511 1098 OFFCURVE",
"392 1098 CURVE SMOOTH",
"306 1098 OFFCURVE",
"205 999 OFFCURVE",
"205 585 CURVE SMOOTH",
"205 278 OFFCURVE",
"278 123 OFFCURVE",
"388 123 CURVE SMOOTH",
"498 123 OFFCURVE",
"575 253 OFFCURVE",
"575 652 CURVE SMOOTH"
);
}
);
width = 780;
}
);
unicode = 0030;
},
{
glyphname = one;
layers = (
{
anchors = (
{
name = L;
position = "{387, 17}";
},
{
name = U;
position = "{387, 1185}";
}
);
layerId = "233CC76B-C9AF-4A7F-B493-FFD1BBE88986";
paths = (
{
closed = 1;
nodes = (
"201 122 LINE",
"331 122 OFFCURVE",
"335 146 OFFCURVE",
"335 276 CURVE SMOOTH",
"335 833 LINE",
"335 897 LINE SMOOTH",
"335 999 OFFCURVE",
"320 1059 OFFCURVE",
"193 1000 CURVE",
"183 1024 LINE",
"434 1148 LINE",
"460 1148 LINE",
"460 276 LINE SMOOTH",
"460 145 OFFCURVE",
"460 122 OFFCURVE",
"590 122 CURVE",
"590 93 LINE",
"201 93 LINE"
);
}
);
width = 780;
}
);
unicode = 0031;
},
{
glyphname = two;
layers = (
{
anchors = (
{
name = L;
position = "{375, 17}";
},
{
name = U;
position = "{375, 1185}";
}
);
layerId = "233CC76B-C9AF-4A7F-B493-FFD1BBE88986";
paths = (
{
closed = 1;
nodes = (
"34 93 LINE",
"34 122 LINE",
"213 286 OFFCURVE",
"339 416 OFFCURVE",
"412 522 CURVE",
"486 626 OFFCURVE",
"522 721 OFFCURVE",
"522 805 CURVE SMOOTH",
"522 982 OFFCURVE",
"382 1031 OFFCURVE",
"318 1031 CURVE SMOOTH",
"173 1031 OFFCURVE",
"112 914 OFFCURVE",
"91 856 CURVE",
"65 856 LINE",
"77 948 OFFCURVE",
"130 1148 OFFCURVE",
"357 1148 CURVE SMOOTH",
"504 1148 OFFCURVE",
"652 1045 OFFCURVE",
"652 876 CURVE SMOOTH",
"652 714 OFFCURVE",
"517 551 OFFCURVE",
"432 458 CURVE SMOOTH",
"305 320 OFFCURVE",
"228 238 OFFCURVE",
"196 209 CURVE",
"466 209 LINE SMOOTH",
"622 209 OFFCURVE",
"641 224 OFFCURVE",
"687 291 CURVE",
"715 291 LINE",
"642 93 LINE"
);
}
);
width = 780;
}
);
unicode = 0032;
},
{
glyphname = three;
layers = (
{
anchors = (
{
name = L;
position = "{358, 17}";
},
{
name = U;
position = "{358, 1185}";
}
);
layerId = "233CC76B-C9AF-4A7F-B493-FFD1BBE88986";
paths = (
{
closed = 1;
nodes = (
"651 224 OFFCURVE",
"496 75 OFFCURVE",
"244 75 CURVE SMOOTH",
"70 75 OFFCURVE",
"65 135 OFFCURVE",
"65 158 CURVE SMOOTH",
"65 187 OFFCURVE",
"93 212 OFFCURVE",
"125 212 CURVE SMOOTH",
"199 212 OFFCURVE",
"240 142 OFFCURVE",
"345 142 CURVE SMOOTH",
"435 142 OFFCURVE",
"538 220 OFFCURVE",
"538 342 CURVE SMOOTH",
"538 480 OFFCURVE",
"463 546 OFFCURVE",
"388 576 CURVE SMOOTH",
"344 594 OFFCURVE",
"294 604 OFFCURVE",
"237 604 CURVE",
"237 629 LINE",
"276 632 OFFCURVE",
"473 679 OFFCURVE",
"473 868 CURVE SMOOTH",
"473 1002 OFFCURVE",
"370 1042 OFFCURVE",
"303 1042 CURVE SMOOTH",
"224 1042 OFFCURVE",
"158 1000 OFFCURVE",
"105 916 CURVE",
"80 929 LINE",
"110 993 OFFCURVE",
"170 1148 OFFCURVE",
"358 1148 CURVE SMOOTH",
"558 1148 OFFCURVE",
"598 992 OFFCURVE",
"598 938 CURVE SMOOTH",
"598 864 OFFCURVE",
"553 786 OFFCURVE",
"459 706 CURVE",
"525 681 OFFCURVE",
"651 609 OFFCURVE",
"651 435 CURVE SMOOTH"
);
}
);
width = 780;
}
);
unicode = 0033;
},
{
glyphname = four;
layers = (
{
anchors = (
{
name = L;
position = "{374, 17}";
},
{
name = U;
position = "{374, 1185}";
}
);
layerId = "233CC76B-C9AF-4A7F-B493-FFD1BBE88986";
paths = (
{
closed = 1;
nodes = (
"588 93 LINE",
"462 93 LINE",
"462 366 LINE",
"24 366 LINE",
"24 462 LINE",
"504 1148 LINE",
"588 1148 LINE",
"588 473 LINE",
"724 473 LINE",
"724 366 LINE",
"588 366 LINE"
);
},
{
closed = 1;
nodes = (
"99 473 LINE",
"462 473 LINE",
"462 987 LINE"
);
}
);
width = 780;
}
);
unicode = 0034;
},
{
glyphname = five;
layers = (
{
anchors = (
{
name = L;
position = "{376, 17}";
},
{
name = U;
position = "{376, 1185}";
}
);
layerId = "233CC76B-C9AF-4A7F-B493-FFD1BBE88986";
paths = (
{
closed = 1;
nodes = (
"307 996 LINE",
"239 858 LINE",
"336 849 OFFCURVE",
"660 757 OFFCURVE",
"660 465 CURVE SMOOTH",
"660 206 OFFCURVE",
"423 75 OFFCURVE",
"252 75 CURVE SMOOTH",
"133 75 OFFCURVE",
"75 122 OFFCURVE",
"75 176 CURVE SMOOTH",
"75 191 OFFCURVE",
"84 231 OFFCURVE",
"135 231 CURVE SMOOTH",
"207 231 OFFCURVE",
"235 153 OFFCURVE",
"338 153 CURVE SMOOTH",
"456 153 OFFCURVE",
"561 250 OFFCURVE",
"561 384 CURVE SMOOTH",
"561 446 OFFCURVE",
"537 544 OFFCURVE",
"447 617 CURVE",
"336 709 OFFCURVE",
"204 722 OFFCURVE",
"110 725 CURVE",
"307 1125 LINE",
"677 1125 LINE",
"618 996 LINE"
);
}
);
width = 780;
}
);
unicode = 0035;
},
{
glyphname = six;
layers = (
{
anchors = (
{
name = L;
position = "{394, 17}";
},
{
name = U;
position = "{394, 1185}";
}
);
layerId = "233CC76B-C9AF-4A7F-B493-FFD1BBE88986";
paths = (
{
closed = 1;
nodes = (
"720 259 OFFCURVE",
"593 75 OFFCURVE",
"392 75 CURVE SMOOTH",
"201 75 OFFCURVE",
"68 269 OFFCURVE",
"68 498 CURVE SMOOTH",
"68 725 OFFCURVE",
"177 887 OFFCURVE",
"281 984 CURVE SMOOTH",
"411 1107 OFFCURVE",
"551 1148 OFFCURVE",
"655 1148 CURVE SMOOTH",
"699 1148 LINE",
"699 1119 LINE",
"579 1114 OFFCURVE",
"485 1063 OFFCURVE",
"408 987 CURVE SMOOTH",
"355 935 OFFCURVE",
"278 834 OFFCURVE",
"239 668 CURVE",
"311 719 OFFCURVE",
"385 745 OFFCURVE",
"459 745 CURVE SMOOTH",
"552 745 OFFCURVE",
"720 668 OFFCURVE",
"720 441 CURVE SMOOTH"
);
},
{
closed = 1;
nodes = (
"584 518 OFFCURVE",
"525 680 OFFCURVE",
"385 680 CURVE SMOOTH",
"325 680 OFFCURVE",
"270 642 OFFCURVE",
"226 614 CURVE",
"218 546 OFFCURVE",
"212 491 OFFCURVE",
"212 448 CURVE SMOOTH",
"212 306 OFFCURVE",
"285 114 OFFCURVE",
"414 117 CURVE",
"504 121 OFFCURVE",
"584 202 OFFCURVE",
"584 358 CURVE SMOOTH"
);
}
);
width = 780;
}
);
unicode = 0036;
},
{
glyphname = seven;
layers = (
{
anchors = (
{
name = L;
position = "{383, 17}";
},
{
name = U;
position = "{383, 1185}";
}
);
layerId = "233CC76B-C9AF-4A7F-B493-FFD1BBE88986";
paths = (
{
closed = 1;
nodes = (
"281 70 LINE",
"590 1000 LINE",
"306 1000 LINE SMOOTH",
"139 1000 OFFCURVE",
"110 929 OFFCURVE",
"80 875 CURVE",
"57 882 LINE",
"158 1125 LINE",
"708 1125 LINE",
"708 1098 LINE",
"365 70 LINE"
);
}
);
width = 780;
}
);
unicode = 0037;
},
{
glyphname = eight;
layers = (
{
anchors = (
{
name = L;
position = "{392, 17}";
},
{
name = U;
position = "{392, 1185}";
}
);
layerId = "233CC76B-C9AF-4A7F-B493-FFD1BBE88986";
paths = (
{
closed = 1;
nodes = (
"690 245 OFFCURVE",
"629 75 OFFCURVE",
"390 75 CURVE SMOOTH",
"196 75 OFFCURVE",
"93 211 OFFCURVE",
"93 329 CURVE SMOOTH",
"93 459 OFFCURVE",
"224 559 OFFCURVE",
"301 612 CURVE",
"219 681 OFFCURVE",
"107 763 OFFCURVE",
"107 901 CURVE SMOOTH",
"107 1056 OFFCURVE",
"240 1148 OFFCURVE",
"390 1148 CURVE SMOOTH",
"615 1148 OFFCURVE",
"667 984 OFFCURVE",
"667 924 CURVE SMOOTH",
"667 801 OFFCURVE",
"541 721 OFFCURVE",
"455 666 CURVE",
"544 598 OFFCURVE",
"690 490 OFFCURVE",
"690 337 CURVE SMOOTH"
);
},
{
closed = 1;
nodes = (
"558 1064 OFFCURVE",
"474 1102 OFFCURVE",
"392 1102 CURVE SMOOTH",
"298 1102 OFFCURVE",
"218 1048 OFFCURVE",
"218 953 CURVE SMOOTH",
"218 849 OFFCURVE",
"291 798 OFFCURVE",
"419 694 CURVE",
"497 767 OFFCURVE",
"558 814 OFFCURVE",
"558 933 CURVE SMOOTH"
);
},
{
closed = 1;
nodes = (
"582 407 OFFCURVE",
"430 507 OFFCURVE",
"336 585 CURVE",
"294 549 OFFCURVE",
"210 470 OFFCURVE",
"210 332 CURVE SMOOTH",
"210 194 OFFCURVE",
"294 117 OFFCURVE",
"400 117 CURVE SMOOTH",
"500 117 OFFCURVE",
"582 175 OFFCURVE",
"582 276 CURVE SMOOTH"
);
}
);
width = 780;
}
);
unicode = 0038;
},
{
glyphname = nine;
layers = (
{
anchors = (
{
name = L;
position = "{388, 17}";
},
{
name = U;
position = "{388, 1185}";
}
);
layerId = "233CC76B-C9AF-4A7F-B493-FFD1BBE88986";
paths = (
{
closed = 1;
nodes = (
"712 552 OFFCURVE",
"654 403 OFFCURVE",
"538 275 CURVE",
"498 228 OFFCURVE",
"345 70 OFFCURVE",
"126 70 CURVE SMOOTH",
"83 70 LINE",
"83 99 LINE",
"136 101 OFFCURVE",
"266 116 OFFCURVE",
"365 220 CURVE",
"441 303 OFFCURVE",
"507 406 OFFCURVE",
"541 548 CURVE",
"463 494 OFFCURVE",
"392 470 OFFCURVE",
"325 470 CURVE SMOOTH",
"155 470 OFFCURVE",
"63 622 OFFCURVE",
"63 777 CURVE SMOOTH",
"63 994 OFFCURVE",
"215 1148 OFFCURVE",
"384 1148 CURVE SMOOTH",
"594 1148 OFFCURVE",
"712 919 OFFCURVE",
"712 722 CURVE SMOOTH"
);
},
{
closed = 1;
nodes = (
"568 983 OFFCURVE",
"457 1101 OFFCURVE",
"366 1098 CURVE SMOOTH",
"275 1094 OFFCURVE",
"198 1015 OFFCURVE",
"198 856 CURVE SMOOTH",
"198 668 OFFCURVE",
"274 538 OFFCURVE",
"387 538 CURVE SMOOTH",
"447 538 OFFCURVE",
"533 576 OFFCURVE",
"554 603 CURVE",
"562 669 OFFCURVE",
"568 722 OFFCURVE",
"568 760 CURVE SMOOTH"
);
}
);
width = 780;
}
);
unicode = 0039;
},
{
glyphname = colon;
layers = (
{
layerId = "233CC76B-C9AF-4A7F-B493-FFD1BBE88986";
paths = (
{
closed = 1;
nodes = (
"440 718 OFFCURVE",
"390 768 OFFCURVE",
"318 768 CURVE SMOOTH",
"252 768 OFFCURVE",
"200 712 OFFCURVE",
"200 646 CURVE SMOOTH",
"200 582 OFFCURVE",
"254 528 OFFCURVE",
"318 528 CURVE SMOOTH",
"388 528 OFFCURVE",
"440 576 OFFCURVE",
"440 646 CURVE SMOOTH"
);
},
{
closed = 1;
nodes = (
"440 258 OFFCURVE",
"390 308 OFFCURVE",
"318 308 CURVE SMOOTH",
"252 308 OFFCURVE",
"200 254 OFFCURVE",
"200 188 CURVE SMOOTH",
"200 122 OFFCURVE",
"254 68 OFFCURVE",
"318 68 CURVE SMOOTH",
"388 68 OFFCURVE",
"440 118 OFFCURVE",
"440 188 CURVE SMOOTH"
);
}
);
width = 640;
}
);
unicode = 003A;
},
{
glyphname = semicolon;
layers = (
{
layerId = "233CC76B-C9AF-4A7F-B493-FFD1BBE88986";
paths = (
{
closed = 1;
nodes = (
"440 718 OFFCURVE",
"390 768 OFFCURVE",
"318 768 CURVE SMOOTH",
"252 768 OFFCURVE",
"200 712 OFFCURVE",
"200 646 CURVE SMOOTH",
"200 582 OFFCURVE",
"254 528 OFFCURVE",
"318 528 CURVE SMOOTH",
"388 528 OFFCURVE",
"440 576 OFFCURVE",
"440 646 CURVE SMOOTH"
);
},
{
closed = 1;
nodes = (
"448 210 OFFCURVE",
"424 306 OFFCURVE",
"324 306 CURVE SMOOTH",
"256 306 OFFCURVE",
"200 262 OFFCURVE",
"200 190 CURVE SMOOTH",
"200 124 OFFCURVE",
"250 72 OFFCURVE",
"316 72 CURVE SMOOTH",
"336 72 OFFCURVE",
"356 72 OFFCURVE",
"372 82 CURVE",
"372 -14 OFFCURVE",
"304 -76 OFFCURVE",
"226 -120 CURVE",
"244 -156 LINE",
"348 -114 OFFCURVE",
"448 12 OFFCURVE",
"448 128 CURVE SMOOTH"
);
}
);
width = 640;
}
);
unicode = 003B;
},
{
glyphname = less;
layers = (
{
layerId = "233CC76B-C9AF-4A7F-B493-FFD1BBE88986";
paths = (
{
closed = 1;
nodes = (
"1090 234 LINE",
"424 544 LINE",
"1090 854 LINE",
"1090 950 LINE",
"298 586 LINE",
"298 502 LINE",
"1090 138 LINE"
);
}
);
width = 1256;
}
);
unicode = 003C;
},
{
glyphname = equal;
layers = (
{
layerId = "233CC76B-C9AF-4A7F-B493-FFD1BBE88986";
paths = (
{
closed = 1;
nodes = (
"984 704 LINE",
"200 704 LINE",
"200 604 LINE",
"984 604 LINE"
);
},
{
closed = 1;
nodes = (
"984 402 LINE",
"200 402 LINE",
"200 302 LINE",
"984 302 LINE"
);
}
);
width = 1184;
}
);
unicode = 003D;
},
{
glyphname = greater;
layers = (
{
layerId = "233CC76B-C9AF-4A7F-B493-FFD1BBE88986";
paths = (
{
closed = 1;
nodes = (
"972 586 LINE",
"180 950 LINE",
"180 854 LINE",
"846 544 LINE",
"180 234 LINE",
"180 138 LINE",
"972 502 LINE"
);
}
);
width = 1138;
}
);
unicode = 003E;
},
{
glyphname = question;
layers = (
{
layerId = "233CC76B-C9AF-4A7F-B493-FFD1BBE88986";
paths = (
{
closed = 1;
nodes = (
"802 914 OFFCURVE",
"704 1010 OFFCURVE",
"584 1010 CURVE SMOOTH",
"480 1010 OFFCURVE",
"320 866 OFFCURVE",
"320 760 CURVE SMOOTH",
"320 702 OFFCURVE",
"362 654 OFFCURVE",
"422 654 CURVE SMOOTH",
"472 654 OFFCURVE",
"516 696 OFFCURVE",
"516 746 CURVE SMOOTH",
"516 788 OFFCURVE",
"482 832 OFFCURVE",
"440 842 CURVE",
"490 874 LINE",
"502 874 LINE",
"550 880 OFFCURVE",
"648 820 OFFCURVE",
"648 764 CURVE SMOOTH",
"648 568 OFFCURVE",
"448 562 OFFCURVE",
"448 424 CURVE SMOOTH",
"448 348 OFFCURVE",
"488 338 OFFCURVE",
"546 308 CURVE",
"652 422 LINE",
"614 430 OFFCURVE",
"576 454 OFFCURVE",
"558 490 CURVE",
"604 562 OFFCURVE",
"802 542 OFFCURVE",
"802 794 CURVE SMOOTH"
);
},
{
closed = 1;
nodes = (
"648 210 OFFCURVE",
"610 248 OFFCURVE",
"558 248 CURVE SMOOTH",
"508 248 OFFCURVE",
"470 208 OFFCURVE",
"470 158 CURVE SMOOTH",
"470 110 OFFCURVE",
"510 70 OFFCURVE",
"558 70 CURVE SMOOTH",
"610 70 OFFCURVE",
"648 106 OFFCURVE",
"648 158 CURVE SMOOTH"
);
}
);
width = 900;
}
);
unicode = 003F;
},
{
glyphname = at;
layers = (
{
layerId = "233CC76B-C9AF-4A7F-B493-FFD1BBE88986";
paths = (
{
closed = 1;
nodes = (
"1354 223 LINE",
"1294 87 OFFCURVE",
"1128 -196 OFFCURVE",
"743 -196 CURVE SMOOTH",
"338 -196 OFFCURVE",
"146 104 OFFCURVE",
"146 411 CURVE SMOOTH",
"146 839 OFFCURVE",
"447 1136 OFFCURVE",
"798 1136 CURVE SMOOTH",
"1069 1136 OFFCURVE",
"1291 961 OFFCURVE",
"1291 668 CURVE SMOOTH",
"1291 356 OFFCURVE",
"1091 171 OFFCURVE",
"970 171 CURVE SMOOTH",
"923 171 OFFCURVE",
"912 213 OFFCURVE",
"912 228 CURVE SMOOTH",
"912 275 OFFCURVE",
"950 403 OFFCURVE",
"984 519 CURVE",
"1071 824 LINE",
"952 805 LINE",
"928 722 LINE",
"921 757 OFFCURVE",
"893 828 OFFCURVE",
"796 828 CURVE SMOOTH",
"624 828 OFFCURVE",
"378 541 OFFCURVE",
"378 292 CURVE SMOOTH",
"378 183 OFFCURVE",
"444 117 OFFCURVE",
"514 117 CURVE SMOOTH",
"632 117 OFFCURVE",
"740 243 OFFCURVE",
"814 333 CURVE",
"793 210 OFFCURVE",
"786 117 OFFCURVE",
"918 117 CURVE SMOOTH",
"1154 117 OFFCURVE",
"1338 354 OFFCURVE",
"1338 654 CURVE SMOOTH",
"1338 995 OFFCURVE",
"1091 1176 OFFCURVE",
"793 1176 CURVE SMOOTH",
"462 1176 OFFCURVE",
"73 922 OFFCURVE",
"73 432 CURVE SMOOTH",
"73 114 OFFCURVE",
"295 -245 OFFCURVE",
"738 -245 CURVE SMOOTH",
"1159 -245 OFFCURVE",
"1358 82 OFFCURVE",
"1398 223 CURVE"
);
},
{
closed = 1;
nodes = (
"806 351 OFFCURVE",
"686 209 OFFCURVE",
"585 209 CURVE SMOOTH",
"548 209 OFFCURVE",
"498 243 OFFCURVE",
"498 317 CURVE SMOOTH",
"498 447 OFFCURVE",
"655 792 OFFCURVE",
"806 792 CURVE SMOOTH",
"902 792 OFFCURVE",
"935 677 OFFCURVE",
"858 485 CURVE"
);
}
);
width = 1437;
}
);
unicode = 0040;
},
{
glyphname = A;
layers = (
{
anchors = (
{
name = H;
position = "{898, 93}";
},
{
name = L;
position = "{559, 17}";
},
{
name = O;
position = "{1025, 93}";
},
{
name = U;
position = "{559, 1185}";
}
);
layerId = "233CC76B-C9AF-4A7F-B493-FFD1BBE88986";
paths = (
{
closed = 1;
nodes = (
"702 122 LINE",
"845 124 OFFCURVE",
"810 208 OFFCURVE",
"775 291 CURVE SMOOTH",
"714 439 LINE",
"314 439 LINE",
"244 275 LINE",
"205 181 OFFCURVE",
"193 134 OFFCURVE",
"338 122 CURVE",
"338 93 LINE",
"11 93 LINE",
"11 122 LINE",
"100 128 OFFCURVE",
"134 186 OFFCURVE",
"183 298 CURVE",
"546 1149 LINE",
"573 1149 LINE",
"931 291 LINE",
"992 147 OFFCURVE",
"1022 128 OFFCURVE",
"1108 122 CURVE",
"1108 93 LINE",
"702 93 LINE"
);
},
{
closed = 1;
nodes = (
"338 495 LINE",
"693 495 LINE",
"517 913 LINE"
);
}
);
width = 1120;
}
);
unicode = 0041;
},
{
glyphname = B;
layers = (
{
anchors = (
{
name = L;
position = "{491, 17}";
},
{
name = U;
position = "{491, 1185}";
}
);
layerId = "233CC76B-C9AF-4A7F-B493-FFD1BBE88986";
paths = (
{
closed = 1;
nodes = (
"954 303 OFFCURVE",
"918 221 OFFCURVE",
"850 168 CURVE SMOOTH",
"785 117 OFFCURVE",
"689 93 OFFCURVE",
"513 93 CURVE SMOOTH",
"27 93 LINE",
"27 122 LINE",
"65 122 LINE SMOOTH",
"107 122 OFFCURVE",
"139 136 OFFCURVE",
"158 163 CURVE",
"167 181 OFFCURVE",
"174 218 OFFCURVE",
"174 276 CURVE SMOOTH",
"174 943 LINE SMOOTH",
"174 1007 OFFCURVE",
"167 1047 OFFCURVE",
"153 1065 CURVE",
"132 1086 OFFCURVE",
"105 1098 OFFCURVE",
"65 1098 CURVE SMOOTH",
"27 1098 LINE",
"27 1125 LINE",
"473 1125 LINE SMOOTH",
"837 1125 OFFCURVE",
"907 972 OFFCURVE",
"907 849 CURVE SMOOTH",
"907 749 OFFCURVE",
"845 659 OFFCURVE",
"720 621 CURVE",
"882 591 OFFCURVE",
"954 493 OFFCURVE",
"954 375 CURVE SMOOTH"
);
},
{
closed = 1;
nodes = (
"747 974 OFFCURVE",
"654 1074 OFFCURVE",
"459 1074 CURVE SMOOTH",
"407 1074 OFFCURVE",
"361 1070 OFFCURVE",
"321 1059 CURVE",
"321 661 LINE",
"361 652 OFFCURVE",
"406 651 OFFCURVE",
"466 651 CURVE SMOOTH",
"667 651 OFFCURVE",
"747 727 OFFCURVE",
"747 856 CURVE SMOOTH"
);
},
{
closed = 1;
nodes = (
"779 500 OFFCURVE",
"666 598 OFFCURVE",
"457 598 CURVE SMOOTH",
"392 598 OFFCURVE",
"349 597 OFFCURVE",
"321 591 CURVE",
"321 168 LINE",
"381 155 OFFCURVE",
"438 147 OFFCURVE",
"497 147 CURVE SMOOTH",
"680 147 OFFCURVE",
"779 238 OFFCURVE",
"779 363 CURVE SMOOTH"
);
}
);
width = 1014;
}
);
unicode = 0042;
},
{
glyphname = C;
layers = (
{
anchors = (
{
name = H;
position = "{521, 93}";
},
{
name = L;
position = "{563, 17}";
},
{
name = U;
position = "{563, 1185}";
}
);
layerId = "233CC76B-C9AF-4A7F-B493-FFD1BBE88986";
paths = (
{
closed = 1;
nodes = (
"884 155 OFFCURVE",
"753 69 OFFCURVE",
"558 69 CURVE SMOOTH",
"242 69 OFFCURVE",
"56 312 OFFCURVE",
"56 594 CURVE SMOOTH",
"56 894 OFFCURVE",
"265 1149 OFFCURVE",
"582 1149 CURVE SMOOTH",
"738 1149 OFFCURVE",
"817 1077 OFFCURVE",
"849 1077 CURVE SMOOTH",
"876 1077 OFFCURVE",
"900 1101 OFFCURVE",
"912 1149 CURVE",
"939 1149 LINE",
"963 798 LINE",
"939 798 LINE",
"876 1009 OFFCURVE",
"755 1095 OFFCURVE",
"594 1095 CURVE SMOOTH",
"382 1095 OFFCURVE",
"229 936 OFFCURVE",
"229 592 CURVE SMOOTH",
"229 297 OFFCURVE",
"384 136 OFFCURVE",
"616 136 CURVE SMOOTH",
"752 136 OFFCURVE",
"842 179 OFFCURVE",
"963 351 CURVE",
"985 335 LINE"
);
}
);
width = 1041;
}
);
unicode = 0043;
},
{
glyphname = D;
layers = (
{
anchors = (
{
name = L;
position = "{546, 17}";
},
{
name = U;
position = "{546, 1185}";
}
);
layerId = "233CC76B-C9AF-4A7F-B493-FFD1BBE88986";
paths = (
{
closed = 1;
nodes = (
"1066 325 OFFCURVE",
"887 93 OFFCURVE",
"489 93 CURVE SMOOTH",
"27 93 LINE",
"27 122 LINE",
"66 122 LINE SMOOTH",
"110 122 OFFCURVE",
"142 135 OFFCURVE",
"158 163 CURVE",
"167 181 OFFCURVE",
"174 218 OFFCURVE",
"174 276 CURVE SMOOTH",
"174 943 LINE SMOOTH",
"174 1006 OFFCURVE",
"167 1047 OFFCURVE",
"154 1065 CURVE",
"133 1086 OFFCURVE",
"105 1098 OFFCURVE",
"66 1098 CURVE SMOOTH",
"27 1098 LINE",
"27 1125 LINE",
"447 1125 LINE SMOOTH",
"676 1125 OFFCURVE",
"809 1089 OFFCURVE",
"907 1003 CURVE",
"1002 918 OFFCURVE",
"1066 777 OFFCURVE",
"1066 615 CURVE SMOOTH"
);
},
{
closed = 1;
nodes = (
"894 893 OFFCURVE",
"720 1068 OFFCURVE",
"477 1068 CURVE SMOOTH",
"431 1068 OFFCURVE",
"381 1063 OFFCURVE",
"321 1045 CURVE",
"321 168 LINE",
"385 155 OFFCURVE",
"439 146 OFFCURVE",
"482 146 CURVE",
"716 143 OFFCURVE",
"894 319 OFFCURVE",
"894 607 CURVE SMOOTH"
);
}
);
width = 1126;
}
);
unicode = 0044;
},
{
glyphname = E;
layers = (
{
anchors = (
{
name = H;
position = "{475, 93}";
},
{
name = L;
position = "{475, 17}";
},
{
name = O;
position = "{794, 93}";
},
{
name = U;
position = "{475, 1185}";
}
);
layerId = "233CC76B-C9AF-4A7F-B493-FFD1BBE88986";
paths = (
{
closed = 1;
nodes = (
"33 93 LINE",
"33 122 LINE",
"68 122 LINE SMOOTH",
"85 122 OFFCURVE",
"129 127 OFFCURVE",
"150 146 CURVE SMOOTH",
"170 164 OFFCURVE",
"180 185 OFFCURVE",
"180 276 CURVE SMOOTH",
"180 946 LINE SMOOTH",
"180 1013 OFFCURVE",
"173 1053 OFFCURVE",
"161 1066 CURVE SMOOTH",
"142 1087 OFFCURVE",
"112 1098 OFFCURVE",
"68 1098 CURVE SMOOTH",
"33 1098 LINE",
"33 1125 LINE",
"828 1125 LINE",
"840 900 LINE",
"810 900 LINE",
"788 989 OFFCURVE",
"792 1069 OFFCURVE",
"611 1069 CURVE SMOOTH",
"325 1069 LINE",
"325 661 LINE",
"552 661 LINE SMOOTH",
"693 661 OFFCURVE",
"701 706 OFFCURVE",
"715 810 CURVE",
"744 810 LINE",
"744 451 LINE",
"715 451 LINE",
"701 559 OFFCURVE",
"691 604 OFFCURVE",
"552 604 CURVE SMOOTH",
"325 604 LINE",
"325 263 LINE",
"325 218 LINE SMOOTH",
"325 177 OFFCURVE",
"341 149 OFFCURVE",
"412 149 CURVE SMOOTH",
"587 149 LINE SMOOTH",
"756 149 OFFCURVE",
"790 183 OFFCURVE",
"887 353 CURVE",
"918 353 LINE",
"828 93 LINE"
);
}
);
width = 952;
}
);
unicode = 0045;
},
{
glyphname = F;
layers = (
{
anchors = (
{
name = L;
position = "{415, 17}";
},
{
name = U;
position = "{415, 1185}";
}
);
layerId = "233CC76B-C9AF-4A7F-B493-FFD1BBE88986";
paths = (
{
closed = 1;
nodes = (
"740 1026 OFFCURVE",
"698 1069 OFFCURVE",
"548 1069 CURVE SMOOTH",
"320 1069 LINE",
"320 665 LINE",
"507 665 LINE SMOOTH",
"596 665 OFFCURVE",
"628 697 OFFCURVE",
"642 804 CURVE",
"670 804 LINE",
"670 454 LINE",
"642 454 LINE",
"642 552 OFFCURVE",
"611 600 OFFCURVE",
"507 600 CURVE SMOOTH",
"320 600 LINE",
"320 276 LINE SMOOTH",
"320 209 OFFCURVE",
"321 176 OFFCURVE",
"336 161 CURVE",
"357 134 OFFCURVE",
"395 122 OFFCURVE",
"431 122 CURVE SMOOTH",
"468 122 LINE",
"468 93 LINE",
"26 93 LINE",
"26 122 LINE",
"63 122 LINE SMOOTH",
"103 122 OFFCURVE",
"134 134 OFFCURVE",
"154 159 CURVE SMOOTH",
"167 175 OFFCURVE",
"173 215 OFFCURVE",
"173 276 CURVE SMOOTH",
"173 943 LINE SMOOTH",
"173 1018 OFFCURVE",
"167 1048 OFFCURVE",
"151 1063 CURVE SMOOTH",
"130 1085 OFFCURVE",
"96 1098 OFFCURVE",
"63 1098 CURVE SMOOTH",
"26 1098 LINE",
"26 1125 LINE",
"793 1125 LINE",
"804 900 LINE",
"777 900 LINE"
);
}
);
width = 867;
}
);
unicode = 0046;
},
{
glyphname = G;
layers = (
{
anchors = (
{
name = H;
position = "{579, 93}";
},
{
name = L;
position = "{578, 17}";
},
{
name = U;
position = "{578, 1185}";
}
);
layerId = "233CC76B-C9AF-4A7F-B493-FFD1BBE88986";
paths = (
{
closed = 1;
nodes = (
"1044 629 OFFCURVE",
"1019 615 OFFCURVE",
"1005 588 CURVE",
"993 570 OFFCURVE",
"989 532 OFFCURVE",
"989 477 CURVE SMOOTH",
"989 161 LINE",
"874 95 OFFCURVE",
"756 69 OFFCURVE",
"626 69 CURVE SMOOTH",
"267 69 OFFCURVE",
"54 299 OFFCURVE",
"54 594 CURVE SMOOTH",
"54 846 OFFCURVE",
"244 1149 OFFCURVE",
"601 1149 CURVE SMOOTH",
"774 1149 OFFCURVE",
"855 1083 OFFCURVE",
"893 1083 CURVE SMOOTH",
"906 1083 OFFCURVE",
"924 1095 OFFCURVE",
"930 1149 CURVE",
"959 1149 LINE",
"984 824 LINE",
"959 824 LINE",
"892 1020 OFFCURVE",
"771 1096 OFFCURVE",
"616 1096 CURVE SMOOTH",
"365 1096 OFFCURVE",
"231 893 OFFCURVE",
"229 627 CURVE SMOOTH",
"226 332 OFFCURVE",
"400 122 OFFCURVE",
"627 122 CURVE SMOOTH",
"700 122 OFFCURVE",
"772 137 OFFCURVE",
"840 179 CURVE",
"840 477 LINE SMOOTH",
"840 607 OFFCURVE",
"817 625 OFFCURVE",
"705 629 CURVE",
"705 655 LINE",
"1103 655 LINE",
"1103 629 LINE",
"1086 629 LINE"
);
}
);
width = 1126;
}
);
unicode = 0047;
},
{
glyphname = H;
layers = (
{
anchors = (
{
name = H;
position = "{647, 93}";
},
{
name = L;
position = "{561, 17}";
},
{
name = U;
position = "{561, 1185}";
}
);
layerId = "233CC76B-C9AF-4A7F-B493-FFD1BBE88986";
paths = (
{
closed = 1;
nodes = (
"652 122 LINE",
"690 122 LINE SMOOTH",
"732 122 OFFCURVE",
"763 134 OFFCURVE",
"782 159 CURVE SMOOTH",
"793 174 OFFCURVE",
"801 212 OFFCURVE",
"801 276 CURVE SMOOTH",
"801 591 LINE",
"320 591 LINE",
"320 276 LINE SMOOTH",
"320 206 OFFCURVE",
"325 175 OFFCURVE",
"339 158 CURVE SMOOTH",
"357 136 OFFCURVE",
"396 122 OFFCURVE",
"432 122 CURVE SMOOTH",
"470 122 LINE",
"470 93 LINE",
"27 93 LINE",
"27 122 LINE",
"65 122 LINE SMOOTH",
"105 122 OFFCURVE",
"135 134 OFFCURVE",
"156 159 CURVE SMOOTH",
"168 175 OFFCURVE",
"174 215 OFFCURVE",
"174 276 CURVE SMOOTH",
"174 943 LINE SMOOTH",
"174 1016 OFFCURVE",
"169 1043 OFFCURVE",
"153 1063 CURVE SMOOTH",
"139 1082 OFFCURVE",
"94 1098 OFFCURVE",
"65 1098 CURVE SMOOTH",
"27 1098 LINE",
"27 1125 LINE",
"470 1125 LINE",
"470 1098 LINE",
"432 1098 LINE SMOOTH",
"398 1098 OFFCURVE",
"365 1089 OFFCURVE",
"343 1065 CURVE SMOOTH",
"329 1048 OFFCURVE",
"320 1022 OFFCURVE",
"320 943 CURVE SMOOTH",
"320 647 LINE",
"801 647 LINE",
"801 943 LINE SMOOTH",
"801 1018 OFFCURVE",
"793 1050 OFFCURVE",
"779 1065 CURVE SMOOTH",
"758 1085 OFFCURVE",
"724 1098 OFFCURVE",
"690 1098 CURVE SMOOTH",
"652 1098 LINE",
"652 1125 LINE",
"1095 1125 LINE",
"1095 1098 LINE",
"1058 1098 LINE SMOOTH",
"1027 1098 OFFCURVE",
"990 1086 OFFCURVE",
"969 1065 CURVE",
"947 1040 OFFCURVE",
"946 1024 OFFCURVE",
"946 943 CURVE SMOOTH",
"946 276 LINE SMOOTH",
"946 209 OFFCURVE",
"947 182 OFFCURVE",
"964 159 CURVE SMOOTH",
"982 133 OFFCURVE",
"1022 122 OFFCURVE",
"1058 122 CURVE SMOOTH",
"1095 122 LINE",
"1095 93 LINE",
"652 93 LINE"
);
}
);
width = 1126;
}
);
unicode = 0048;
},
{
glyphname = I;
layers = (
{
anchors = (
{
name = H;
position = "{260, 93}";
},
{
name = L;
position = "{260, 17}";
},
{
name = O;
position = "{388, 93}";
},
{
name = U;
position = "{260, 1185}";
}
);
layerId = "233CC76B-C9AF-4A7F-B493-FFD1BBE88986";
paths = (
{
closed = 1;
nodes = (
"39 122 LINE",
"76 122 LINE SMOOTH",
"119 122 OFFCURVE",
"147 133 OFFCURVE",
"167 159 CURVE",
"180 174 OFFCURVE",
"186 212 OFFCURVE",
"186 276 CURVE SMOOTH",
"186 943 LINE SMOOTH",
"186 1014 OFFCURVE",
"186 1040 OFFCURVE",
"169 1059 CURVE",
"150 1083 OFFCURVE",
"112 1098 OFFCURVE",
"76 1098 CURVE SMOOTH",
"39 1098 LINE",
"39 1125 LINE",
"481 1125 LINE",
"481 1098 LINE",
"444 1098 LINE SMOOTH",
"403 1098 OFFCURVE",
"373 1085 OFFCURVE",
"352 1060 CURVE",
"341 1043 OFFCURVE",
"333 1005 OFFCURVE",
"333 943 CURVE SMOOTH",
"333 276 LINE SMOOTH",
"333 209 OFFCURVE",
"339 176 OFFCURVE",
"351 158 CURVE SMOOTH",
"361 142 OFFCURVE",
"408 122 OFFCURVE",
"444 122 CURVE SMOOTH",
"481 122 LINE",
"481 93 LINE",
"39 93 LINE"
);
}
);
width = 519;
}
);
unicode = 0049;
},
{
glyphname = J;
layers = (
{
anchors = (
{
name = L;
position = "{314, 17}";
},
{
name = U;
position = "{377, 1185}";
}
);
layerId = "233CC76B-C9AF-4A7F-B493-FFD1BBE88986";
paths = (
{
closed = 1;
nodes = (
"517 1098 OFFCURVE",
"489 1085 OFFCURVE",
"468 1060 CURVE",
"456 1043 OFFCURVE",
"450 1003 OFFCURVE",
"450 943 CURVE SMOOTH",
"450 438 LINE SMOOTH",
"450 122 OFFCURVE",
"281 69 OFFCURVE",
"186 69 CURVE SMOOTH",
"84 69 OFFCURVE",
"33 127 OFFCURVE",
"33 186 CURVE SMOOTH",
"33 241 OFFCURVE",
"70 266 OFFCURVE",
"110 266 CURVE SMOOTH",
"202 266 OFFCURVE",
"186 123 OFFCURVE",
"247 123 CURVE SMOOTH",
"273 123 OFFCURVE",
"304 153 OFFCURVE",
"304 239 CURVE SMOOTH",
"304 943 LINE SMOOTH",
"304 1004 OFFCURVE",
"302 1036 OFFCURVE",
"289 1056 CURVE SMOOTH",
"277 1077 OFFCURVE",
"234 1098 OFFCURVE",
"192 1098 CURVE SMOOTH",
"156 1098 LINE",
"156 1125 LINE",
"597 1125 LINE",
"597 1098 LINE",
"559 1098 LINE"
);
}
);
width = 607;
}
);
unicode = 004A;
},
{
glyphname = K;
layers = (
{
anchors = (
{
name = H;
position = "{584, 93}";
},
{
name = L;
position = "{583, 17}";
},
{
name = U;
position = "{583, 1185}";
}
);
layerId = "233CC76B-C9AF-4A7F-B493-FFD1BBE88986";
paths = (
{
closed = 1;
nodes = (
"648 122 LINE",
"707 122 OFFCURVE",
"729 142 OFFCURVE",
"731 169 CURVE",
"735 190 OFFCURVE",
"720 210 OFFCURVE",
"675 255 CURVE SMOOTH",
"365 564 LINE",
"320 519 LINE",
"320 276 LINE SMOOTH",
"320 210 OFFCURVE",
"322 181 OFFCURVE",
"338 159 CURVE SMOOTH",
"355 135 OFFCURVE",
"393 122 OFFCURVE",
"431 122 CURVE SMOOTH",
"466 122 LINE",
"466 93 LINE",
"27 93 LINE",
"27 122 LINE",
"63 122 LINE SMOOTH",
"105 122 OFFCURVE",
"135 134 OFFCURVE",
"156 159 CURVE",
"167 174 OFFCURVE",
"173 213 OFFCURVE",
"173 276 CURVE SMOOTH",
"173 943 LINE SMOOTH",
"173 1013 OFFCURVE",
"166 1049 OFFCURVE",
"153 1065 CURVE SMOOTH",
"141 1079 OFFCURVE",
"97 1098 OFFCURVE",
"63 1098 CURVE SMOOTH",
"27 1098 LINE",
"27 1125 LINE",
"466 1125 LINE",
"466 1098 LINE",
"431 1098 LINE SMOOTH",
"400 1098 OFFCURVE",
"366 1089 OFFCURVE",
"345 1068 CURVE SMOOTH",
"329 1052 OFFCURVE",
"320 1031 OFFCURVE",
"320 943 CURVE SMOOTH",
"320 620 LINE",
"331 629 OFFCURVE",
"364 660 OFFCURVE",
"425 715 CURVE",
"576 856 OFFCURVE",
"666 954 OFFCURVE",
"697 1000 CURVE SMOOTH",
"710 1019 OFFCURVE",
"717 1037 OFFCURVE",
"717 1055 CURVE SMOOTH",
"717 1075 OFFCURVE",
"699 1098 OFFCURVE",
"648 1098 CURVE SMOOTH",
"624 1098 LINE",
"624 1125 LINE",
"1005 1125 LINE",
"1005 1098 LINE",
"962 1098 OFFCURVE",
"931 1091 OFFCURVE",
"876 1056 CURVE SMOOTH",
"808 1014 OFFCURVE",
"820 1020 OFFCURVE",
"624 824 CURVE SMOOTH",
"466 666 LINE",
"847 286 LINE SMOOTH",
"909 224 OFFCURVE",
"963 181 OFFCURVE",
"1008 159 CURVE",
"1052 136 OFFCURVE",
"1094 126 OFFCURVE",
"1139 122 CURVE",
"1139 93 LINE",
"648 93 LINE"
);
}
);
width = 1126;
}
);
unicode = 004B;
},
{
glyphname = L;
layers = (
{
anchors = (
{
name = H;
position = "{475, 93}";
},
{
name = L;
position = "{475, 17}";
},
{
name = R;
position = "{572, 778}";
},
{
name = U;
position = "{475, 1185}";
}
);
layerId = "233CC76B-C9AF-4A7F-B493-FFD1BBE88986";
paths = (
{
closed = 1;
nodes = (
"29 93 LINE",
"29 122 LINE",
"119 122 OFFCURVE",
"180 133 OFFCURVE",
"180 251 CURVE SMOOTH",
"180 967 LINE SMOOTH",
"180 1085 OFFCURVE",
"119 1096 OFFCURVE",
"29 1096 CURVE",
"29 1125 LINE",
"477 1125 LINE",
"477 1096 LINE",
"387 1096 OFFCURVE",
"325 1085 OFFCURVE",
"325 967 CURVE SMOOTH",
"325 288 LINE SMOOTH",
"325 171 OFFCURVE",
"365 159 OFFCURVE",
"455 159 CURVE SMOOTH",
"559 159 LINE SMOOTH",
"684 159 OFFCURVE",
"736 165 OFFCURVE",
"779 204 CURVE",
"830 248 OFFCURVE",
"855 286 OFFCURVE",
"894 378 CURVE",
"921 374 LINE",
"831 93 LINE"
);
}
);
width = 952;
}
);
unicode = 004C;
},
{
glyphname = M;
layers = (
{
anchors = (
{
name = L;
position = "{690, 17}";
},
{
name = U;
position = "{690, 1185}";
}
);
layerId = "233CC76B-C9AF-4A7F-B493-FFD1BBE88986";
paths = (
{
closed = 1;
nodes = (
"915 122 LINE",
"950 122 LINE SMOOTH",
"998 122 OFFCURVE",
"1026 133 OFFCURVE",
"1045 161 CURVE SMOOTH",
"1056 177 OFFCURVE",
"1062 215 OFFCURVE",
"1062 273 CURVE SMOOTH",
"1062 961 LINE",
"663 93 LINE",
"637 93 LINE",
"239 961 LINE",
"239 273 LINE SMOOTH",
"239 209 OFFCURVE",
"247 168 OFFCURVE",
"261 153 CURVE",
"277 133 OFFCURVE",
"307 122 OFFCURVE",
"349 122 CURVE SMOOTH",
"385 122 LINE",
"385 93 LINE",
"27 93 LINE",
"27 122 LINE",
"63 122 LINE SMOOTH",
"107 122 OFFCURVE",
"135 133 OFFCURVE",
"156 161 CURVE",
"165 177 OFFCURVE",
"170 212 OFFCURVE",
"170 273 CURVE SMOOTH",
"170 946 LINE SMOOTH",
"170 1011 OFFCURVE",
"165 1049 OFFCURVE",
"138 1069 CURVE",
"116 1087 OFFCURVE",
"88 1098 OFFCURVE",
"27 1098 CURVE",
"27 1125 LINE",
"318 1125 LINE",
"693 317 LINE",
"1062 1125 LINE",
"1354 1125 LINE",
"1354 1098 LINE",
"1318 1098 LINE SMOOTH",
"1275 1098 OFFCURVE",
"1243 1085 OFFCURVE",
"1224 1059 CURVE",
"1214 1040 OFFCURVE",
"1208 1005 OFFCURVE",
"1208 946 CURVE SMOOTH",
"1208 273 LINE SMOOTH",
"1208 209 OFFCURVE",
"1215 169 OFFCURVE",
"1230 153 CURVE SMOOTH",
"1247 133 OFFCURVE",
"1277 122 OFFCURVE",
"1318 122 CURVE SMOOTH",
"1354 122 LINE",
"1354 93 LINE",
"915 93 LINE"
);
}
);
width = 1387;
}
);
unicode = 004D;
},
{
glyphname = N;
layers = (
{
anchors = (
{
name = H;
position = "{556, 93}";
},
{
name = L;
position = "{556, 17}";
},
{
name = U;
position = "{556, 1185}";
}
);
layerId = "233CC76B-C9AF-4A7F-B493-FFD1BBE88986";
paths = (
{
closed = 1;
nodes = (
"1024 1098 OFFCURVE",
"992 1085 OFFCURVE",
"975 1059 CURVE SMOOTH",
"964 1041 OFFCURVE",
"959 1004 OFFCURVE",
"959 946 CURVE SMOOTH",
"959 76 LINE",
"931 76 LINE",
"249 907 LINE",
"249 273 LINE SMOOTH",
"249 210 OFFCURVE",
"256 170 OFFCURVE",
"270 153 CURVE",
"289 133 OFFCURVE",
"319 122 OFFCURVE",
"361 122 CURVE SMOOTH",
"396 122 LINE",
"396 93 LINE",
"36 93 LINE",
"36 122 LINE",
"72 122 LINE SMOOTH",
"117 122 OFFCURVE",
"148 133 OFFCURVE",
"165 161 CURVE",
"177 177 OFFCURVE",
"183 212 OFFCURVE",
"183 273 CURVE SMOOTH",
"183 990 LINE",
"163 1012 OFFCURVE",
"131 1098 OFFCURVE",
"9 1098 CURVE",
"9 1125 LINE",
"261 1125 LINE",
"891 351 LINE",
"891 946 LINE SMOOTH",
"891 1012 OFFCURVE",
"884 1051 OFFCURVE",
"870 1065 CURVE",
"851 1087 OFFCURVE",
"821 1098 OFFCURVE",
"780 1098 CURVE SMOOTH",
"746 1098 LINE",
"746 1125 LINE",
"1103 1125 LINE",
"1103 1098 LINE",
"1068 1098 LINE"
);
}
);
width = 1126;
}
);
unicode = 004E;
},
{
glyphname = O;
layers = (
{
anchors = (
{
name = H;
position = "{559, 93}";
},
{
name = L;
position = "{559, 17}";
},
{
name = O;
position = "{753, 93}";
},
{
name = R;
position = "{1126, 778}";
},
{
name = U;
position = "{559, 1185}";
}
);
layerId = "233CC76B-C9AF-4A7F-B493-FFD1BBE88986";
paths = (
{
closed = 1;
nodes = (
"1065 303 OFFCURVE",
"846 69 OFFCURVE",
"558 69 CURVE SMOOTH",
"278 69 OFFCURVE",
"54 287 OFFCURVE",
"54 612 CURVE SMOOTH",
"54 921 OFFCURVE",
"278 1149 OFFCURVE",
"572 1149 CURVE SMOOTH",
"842 1149 OFFCURVE",
"1065 923 OFFCURVE",
"1065 615 CURVE SMOOTH"
);
},
{
closed = 1;
nodes = (
"895 910 OFFCURVE",
"783 1093 OFFCURVE",
"555 1095 CURVE",
"348 1095 OFFCURVE",
"229 913 OFFCURVE",
"229 617 CURVE SMOOTH",
"229 324 OFFCURVE",
"343 125 OFFCURVE",
"556 123 CURVE",
"754 123 OFFCURVE",
"890 270 OFFCURVE",
"893 595 CURVE SMOOTH"
);
}
);
width = 1126;
}
);
unicode = 004F;
},
{
glyphname = P;
layers = (
{
anchors = (
{
name = L;
position = "{420, 17}";
},
{
name = U;
position = "{420, 1185}";
}
);
layerId = "233CC76B-C9AF-4A7F-B493-FFD1BBE88986";
paths = (
{
closed = 1;
nodes = (
"813 683 OFFCURVE",
"723 553 OFFCURVE",
"451 555 CURVE",
"425 555 LINE SMOOTH",
"401 555 OFFCURVE",
"379 556 OFFCURVE",
"320 563 CURVE",
"320 276 LINE SMOOTH",
"320 212 OFFCURVE",
"324 171 OFFCURVE",
"342 156 CURVE",
"361 133 OFFCURVE",
"390 122 OFFCURVE",
"429 122 CURVE SMOOTH",
"468 122 LINE",
"468 93 LINE",
"27 93 LINE",
"27 122 LINE",
"65 122 LINE SMOOTH",
"107 122 OFFCURVE",
"139 135 OFFCURVE",
"158 163 CURVE",
"166 179 OFFCURVE",
"173 216 OFFCURVE",
"173 276 CURVE SMOOTH",
"173 943 LINE SMOOTH",
"173 1006 OFFCURVE",
"166 1047 OFFCURVE",
"153 1065 CURVE",
"132 1086 OFFCURVE",
"105 1098 OFFCURVE",
"65 1098 CURVE SMOOTH",
"27 1098 LINE",
"27 1125 LINE",
"403 1125 LINE SMOOTH",
"508 1125 OFFCURVE",
"622 1115 OFFCURVE",
"694 1060 CURVE",
"761 1012 OFFCURVE",
"813 947 OFFCURVE",
"813 840 CURVE SMOOTH"
);
},
{
closed = 1;
nodes = (
"641 951 OFFCURVE",
"565 1065 OFFCURVE",
"419 1065 CURVE SMOOTH",
"395 1065 OFFCURVE",
"361 1059 OFFCURVE",
"320 1050 CURVE",
"320 614 LINE",
"372 605 OFFCURVE",
"414 604 OFFCURVE",
"444 604 CURVE SMOOTH",
"550 604 OFFCURVE",
"636 691 OFFCURVE",
"638 824 CURVE"
);
}
);
width = 867;
}
);
unicode = 0050;
},
{
glyphname = Q;
layers = (
{
anchors = (
{
name = L;
position = "{560, -112}";
},
{
name = U;
position = "{560, 1185}";
}
);
layerId = "233CC76B-C9AF-4A7F-B493-FFD1BBE88986";
paths = (
{
closed = 1;
nodes = (
"1066 356 OFFCURVE",
"915 152 OFFCURVE",
"687 83 CURVE",
"788 -93 OFFCURVE",
"903 -176 OFFCURVE",
"1061 -188 CURVE",
"1061 -213 LINE",
"815 -203 OFFCURVE",
"557 -63 OFFCURVE",
"425 83 CURVE",
"151 178 OFFCURVE",
"54 389 OFFCURVE",
"54 610 CURVE SMOOTH",
"54 922 OFFCURVE",
"279 1149 OFFCURVE",
"568 1149 CURVE SMOOTH",
"843 1149 OFFCURVE",
"1066 924 OFFCURVE",
"1066 609 CURVE SMOOTH"
);
},
{
closed = 1;
nodes = (
"893 897 OFFCURVE",
"775 1092 OFFCURVE",
"558 1092 CURVE SMOOTH",
"354 1092 OFFCURVE",
"229 924 OFFCURVE",
"229 610 CURVE SMOOTH",
"229 321 OFFCURVE",
"345 122 OFFCURVE",
"558 122 CURVE",
"771 120 OFFCURVE",
"893 298 OFFCURVE",
"893 590 CURVE SMOOTH"
);
}
);
width = 1126;
}
);
unicode = 0051;
},
{
glyphname = R;
layers = (
{
anchors = (
{
name = H;
position = "{541, 93}";
},
{
name = L;
position = "{541, 17}";
},
{
name = U;
position = "{465, 1185}";
}
);
layerId = "233CC76B-C9AF-4A7F-B493-FFD1BBE88986";
paths = (
{
closed = 1;
nodes = (
"429 575 LINE",
"402 575 OFFCURVE",
"382 572 OFFCURVE",
"366 572 CURVE SMOOTH",
"351 572 OFFCURVE",
"337 572 OFFCURVE",
"320 575 CURVE",
"320 276 LINE SMOOTH",
"320 210 OFFCURVE",
"327 171 OFFCURVE",
"342 156 CURVE",
"361 133 OFFCURVE",
"390 122 OFFCURVE",
"429 122 CURVE SMOOTH",
"470 122 LINE",
"470 93 LINE",
"27 93 LINE",
"27 122 LINE",
"66 122 LINE SMOOTH",
"111 122 OFFCURVE",
"142 136 OFFCURVE",
"159 163 CURVE SMOOTH",
"169 179 OFFCURVE",
"174 217 OFFCURVE",
"174 276 CURVE SMOOTH",
"174 943 LINE SMOOTH",
"174 1006 OFFCURVE",
"167 1047 OFFCURVE",
"154 1065 CURVE",
"133 1086 OFFCURVE",
"105 1098 OFFCURVE",
"66 1098 CURVE SMOOTH",
"27 1098 LINE",
"27 1125 LINE",
"402 1125 LINE SMOOTH",
"512 1125 OFFCURVE",
"594 1118 OFFCURVE",
"647 1101 CURVE SMOOTH",
"753 1066 OFFCURVE",
"833 980 OFFCURVE",
"833 862 CURVE SMOOTH",
"833 734 OFFCURVE",
"752 634 OFFCURVE",
"579 595 CURVE",
"790 298 LINE",
"884 168 OFFCURVE",
"941 134 OFFCURVE",
"1055 122 CURVE",
"1055 93 LINE",
"779 93 LINE"
);
},
{
closed = 1;
nodes = (
"661 978 OFFCURVE",
"575 1066 OFFCURVE",
"439 1068 CURVE",
"412 1068 OFFCURVE",
"372 1063 OFFCURVE",
"320 1055 CURVE",
"320 624 LINE",
"363 624 LINE SMOOTH",
"565 624 OFFCURVE",
"661 719 OFFCURVE",
"661 849 CURVE SMOOTH"
);
}
);
width = 1041;
}
);
unicode = 0052;
},
{
glyphname = S;
layers = (
{
anchors = (
{
name = H;
position = "{441, 93}";
},
{
name = L;
position = "{441, 17}";
},
{
name = U;
position = "{441, 1185}";
}
);
layerId = "233CC76B-C9AF-4A7F-B493-FFD1BBE88986";
paths = (
{
closed = 1;
nodes = (
"785 200 OFFCURVE",
"650 69 OFFCURVE",
"459 69 CURVE SMOOTH",
"318 69 OFFCURVE",
"230 128 OFFCURVE",
"181 128 CURVE SMOOTH",
"157 128 OFFCURVE",
"142 114 OFFCURVE",
"135 69 CURVE",
"107 69 LINE",
"107 423 LINE",
"135 423 LINE",
"161 210 OFFCURVE",
"295 129 OFFCURVE",
"442 129 CURVE SMOOTH",
"568 129 OFFCURVE",
"648 207 OFFCURVE",
"648 298 CURVE SMOOTH",
"648 399 OFFCURVE",
"581 442 OFFCURVE",
"400 544 CURVE SMOOTH",
"153 683 OFFCURVE",
"99 751 OFFCURVE",
"99 878 CURVE SMOOTH",
"99 1023 OFFCURVE",
"215 1149 OFFCURVE",
"400 1149 CURVE SMOOTH",
"521 1149 OFFCURVE",
"593 1091 OFFCURVE",
"638 1091 CURVE SMOOTH",
"661 1091 OFFCURVE",
"676 1106 OFFCURVE",
"687 1149 CURVE",
"715 1149 LINE",
"715 792 LINE",
"687 792 LINE",
"667 986 OFFCURVE",
"546 1089 OFFCURVE",
"400 1089 CURVE SMOOTH",
"301 1089 OFFCURVE",
"219 1015 OFFCURVE",
"219 930 CURVE SMOOTH",
"219 849 OFFCURVE",
"272 801 OFFCURVE",
"476 691 CURVE SMOOTH",
"574 639 OFFCURVE",
"637 598 OFFCURVE",
"673 571 CURVE SMOOTH",
"743 519 OFFCURVE",
"785 442 OFFCURVE",
"785 356 CURVE SMOOTH"
);
}
);
width = 867;
}
);
unicode = 0053;
},
{
glyphname = T;
layers = (
{
anchors = (
{
name = H;
position = "{475, 93}";
},
{
name = L;
position = "{475, 17}";
},
{
name = U;
position = "{475, 1185}";
}
);
layerId = "233CC76B-C9AF-4A7F-B493-FFD1BBE88986";
paths = (
{
closed = 1;
nodes = (
"872 958 OFFCURVE",
"856 987 OFFCURVE",
"833 1011 CURVE SMOOTH",
"800 1045 OFFCURVE",
"761 1062 OFFCURVE",
"692 1062 CURVE SMOOTH",
"546 1062 LINE",
"546 273 LINE SMOOTH",
"546 209 OFFCURVE",
"554 169 OFFCURVE",
"567 153 CURVE SMOOTH",
"584 133 OFFCURVE",
"614 122 OFFCURVE",
"655 122 CURVE SMOOTH",
"692 122 LINE",
"692 93 LINE",
"253 93 LINE",
"253 122 LINE",
"291 122 LINE SMOOTH",
"336 122 OFFCURVE",
"363 133 OFFCURVE",
"384 161 CURVE",
"393 177 OFFCURVE",
"400 212 OFFCURVE",
"400 273 CURVE SMOOTH",
"400 1062 LINE",
"276 1062 LINE SMOOTH",
"194 1062 OFFCURVE",
"164 1055 OFFCURVE",
"136 1029 CURVE",
"99 1002 OFFCURVE",
"78 953 OFFCURVE",
"72 883 CURVE",
"37 883 LINE",
"49 1125 LINE",
"905 1125 LINE",
"913 883 LINE",
"880 883 LINE"
);
}
);
width = 949;
}
);
unicode = 0054;
},
{
glyphname = U;
layers = (
{
anchors = (
{
name = H;
position = "{566, 93}";
},
{
name = L;
position = "{566, 17}";
},
{
name = O;
position = "{635, 93}";
},
{
name = R;
position = "{1126, 778}";
},
{
name = U;
position = "{566, 1185}";
}
);
layerId = "233CC76B-C9AF-4A7F-B493-FFD1BBE88986";
paths = (
{
closed = 1;
nodes = (
"1028 1098 OFFCURVE",
"1001 1081 OFFCURVE",
"978 1045 CURVE",
"966 1031 OFFCURVE",
"962 996 OFFCURVE",
"962 938 CURVE SMOOTH",
"962 518 LINE SMOOTH",
"962 375 OFFCURVE",
"944 260 OFFCURVE",
"871 183 CURVE SMOOTH",
"797 104 OFFCURVE",
"715 69 OFFCURVE",
"562 69 CURVE SMOOTH",
"139 69 OFFCURVE",
"158 375 OFFCURVE",
"158 538 CURVE SMOOTH",
"158 943 LINE SMOOTH",
"158 1007 OFFCURVE",
"150 1047 OFFCURVE",
"132 1068 CURVE",
"116 1089 OFFCURVE",
"88 1098 OFFCURVE",
"46 1098 CURVE SMOOTH",
"23 1098 LINE",
"23 1125 LINE",
"439 1125 LINE",
"439 1098 LINE",
"400 1098 LINE SMOOTH",
"358 1098 OFFCURVE",
"342 1085 OFFCURVE",
"323 1057 CURVE",
"312 1037 OFFCURVE",
"304 1001 OFFCURVE",
"304 943 CURVE SMOOTH",
"304 493 LINE SMOOTH",
"304 358 OFFCURVE",
"310 133 OFFCURVE",
"573 133 CURVE SMOOTH",
"696 133 OFFCURVE",
"784 192 OFFCURVE",
"820 226 CURVE SMOOTH",
"886 286 OFFCURVE",
"893 416 OFFCURVE",
"893 488 CURVE SMOOTH",
"893 525 LINE",
"893 943 LINE SMOOTH",
"893 1007 OFFCURVE",
"887 1047 OFFCURVE",
"871 1065 CURVE SMOOTH",
"851 1087 OFFCURVE",
"822 1098 OFFCURVE",
"783 1098 CURVE SMOOTH",
"744 1098 LINE",
"744 1125 LINE",
"1110 1125 LINE",
"1110 1098 LINE",
"1071 1098 LINE"
);
}
);
width = 1126;
}
);
unicode = 0055;
},
{
glyphname = V;
layers = (
{
anchors = (
{
name = H;
position = "{560, 93}";
},
{
name = L;
position = "{559, 17}";
},
{
name = O;
position = "{598, 93}";
},
{
name = U;
position = "{559, 1185}";
}
);
layerId = "233CC76B-C9AF-4A7F-B493-FFD1BBE88986";
paths = (
{
closed = 1;
nodes = (
"1071 1092 OFFCURVE",
"1042 1082 OFFCURVE",
"1024 1063 CURVE",
"998 1039 OFFCURVE",
"974 1001 OFFCURVE",
"952 949 CURVE",
"593 69 LINE",
"564 69 LINE",
"179 960 LINE",
"142 1048 OFFCURVE",
"129 1053 OFFCURVE",
"111 1066 CURVE",
"88 1085 OFFCURVE",
"62 1094 OFFCURVE",
"13 1098 CURVE",
"13 1125 LINE",
"435 1125 LINE",
"435 1098 LINE",
"374 1092 OFFCURVE",
"343 1082 OFFCURVE",
"330 1060 CURVE",
"312 1034 OFFCURVE",
"321 988 OFFCURVE",
"355 909 CURVE SMOOTH",
"619 303 LINE",
"863 903 LINE",
"893 979 OFFCURVE",
"907 1023 OFFCURVE",
"891 1050 CURVE SMOOTH",
"882 1067 OFFCURVE",
"863 1085 OFFCURVE",
"789 1098 CURVE",
"789 1125 LINE",
"1106 1125 LINE",
"1106 1098 LINE"
);
}
);
width = 1126;
}
);
unicode = 0056;
},
{
glyphname = W;
layers = (
{
anchors = (
{
name = L;
position = "{740, 17}";
},
{
name = U;
position = "{740, 1185}";
}
);
layerId = "233CC76B-C9AF-4A7F-B493-FFD1BBE88986";
paths = (
{
closed = 1;
nodes = (
"1413 1098 OFFCURVE",
"1377 1086 OFFCURVE",
"1347 1029 CURVE SMOOTH",
"1338 1012 OFFCURVE",
"1320 970 OFFCURVE",
"1298 903 CURVE",
"1011 69 LINE",
"979 69 LINE",
"746 728 LINE",
"511 69 LINE",
"482 69 LINE",
"177 927 LINE SMOOTH",
"137 1040 OFFCURVE",
"132 1053 OFFCURVE",
"114 1065 CURVE",
"96 1088 OFFCURVE",
"67 1098 OFFCURVE",
"21 1098 CURVE",
"21 1125 LINE",
"402 1125 LINE",
"402 1098 LINE",
"384 1098 LINE SMOOTH",
"346 1098 OFFCURVE",
"322 1086 OFFCURVE",
"310 1063 CURVE",
"301 1043 OFFCURVE",
"298 1027 OFFCURVE",
"336 913 CURVE",
"538 333 LINE",
"710 826 LINE",
"699 864 OFFCURVE",
"686 900 OFFCURVE",
"673 932 CURVE SMOOTH",
"651 989 OFFCURVE",
"623 1050 OFFCURVE",
"595 1072 CURVE",
"575 1090 OFFCURVE",
"555 1098 OFFCURVE",
"511 1098 CURVE",
"511 1125 LINE",
"913 1125 LINE",
"913 1098 LINE",
"887 1098 LINE SMOOTH",
"832 1098 OFFCURVE",
"804 1075 OFFCURVE",
"804 1031 CURVE SMOOTH",
"804 1003 OFFCURVE",
"814 960 OFFCURVE",
"837 896 CURVE",
"1036 333 LINE",
"1233 903 LINE",
"1263 995 OFFCURVE",
"1276 1037 OFFCURVE",
"1254 1065 CURVE",
"1235 1091 OFFCURVE",
"1200 1098 OFFCURVE",
"1152 1098 CURVE",
"1152 1125 LINE",
"1460 1125 LINE",
"1460 1098 LINE"
);
}
);
width = 1473;
}
);
unicode = 0057;
},
{
glyphname = X;
layers = (
{
anchors = (
{
name = L;
position = "{558, 17}";
},
{
name = U;
position = "{558, 1185}";
}
);
layerId = "233CC76B-C9AF-4A7F-B493-FFD1BBE88986";
paths = (
{
closed = 1;
nodes = (
"664 122 LINE",
"716 122 OFFCURVE",
"741 129 OFFCURVE",
"756 150 CURVE SMOOTH",
"778 181 OFFCURVE",
"773 195 OFFCURVE",
"717 282 CURVE SMOOTH",
"543 548 LINE",
"325 270 LINE",
"285 218 OFFCURVE",
"279 206 OFFCURVE",
"279 181 CURVE SMOOTH",
"279 149 OFFCURVE",
"298 124 OFFCURVE",
"378 122 CURVE",
"378 93 LINE",
"10 93 LINE",
"10 122 LINE",
"101 124 OFFCURVE",
"196 206 OFFCURVE",
"265 292 CURVE SMOOTH",
"510 601 LINE",
"306 900 LINE SMOOTH",
"200 1056 OFFCURVE",
"135 1091 OFFCURVE",
"33 1098 CURVE",
"33 1125 LINE",
"510 1125 LINE",
"510 1098 LINE",
"470 1096 OFFCURVE",
"442 1089 OFFCURVE",
"426 1077 CURVE SMOOTH",
"395 1052 OFFCURVE",
"393 1028 OFFCURVE",
"439 957 CURVE",
"598 720 LINE",
"782 953 LINE SMOOTH",
"825 1008 OFFCURVE",
"841 1041 OFFCURVE",
"820 1068 CURVE",
"806 1088 OFFCURVE",
"791 1095 OFFCURVE",
"717 1098 CURVE",
"717 1125 LINE",
"1084 1125 LINE",
"1084 1098 LINE",
"973 1091 OFFCURVE",
"932 1040 OFFCURVE",
"843 927 CURVE",
"635 666 LINE",
"858 335 LINE",
"983 151 OFFCURVE",
"1015 128 OFFCURVE",
"1106 122 CURVE",
"1106 93 LINE",
"664 93 LINE"
);
}
);
width = 1126;
}
);
unicode = 0058;
},
{
glyphname = Y;
layers = (
{
anchors = (
{
name = L;
position = "{558, 17}";
},
{
name = U;
position = "{558, 1185}";
}
);
layerId = "233CC76B-C9AF-4A7F-B493-FFD1BBE88986";
paths = (
{
closed = 1;
nodes = (
"1060 1098 OFFCURVE",
"1000 1079 OFFCURVE",
"957 1031 CURVE SMOOTH",
"936 1007 OFFCURVE",
"912 972 OFFCURVE",
"880 922 CURVE SMOOTH",
"630 531 LINE",
"630 273 LINE SMOOTH",
"630 209 OFFCURVE",
"638 168 OFFCURVE",
"652 153 CURVE",
"670 133 OFFCURVE",
"701 122 OFFCURVE",
"744 122 CURVE SMOOTH",
"777 122 LINE",
"777 93 LINE",
"339 93 LINE",
"339 122 LINE",
"375 122 LINE SMOOTH",
"419 122 OFFCURVE",
"447 133 OFFCURVE",
"468 161 CURVE",
"477 177 OFFCURVE",
"482 212 OFFCURVE",
"482 273 CURVE SMOOTH",
"482 518 LINE",
"201 949 LINE",
"167 999 OFFCURVE",
"147 1033 OFFCURVE",
"119 1056 CURVE",
"92 1075 OFFCURVE",
"55 1098 OFFCURVE",
"13 1098 CURVE",
"13 1125 LINE",
"457 1125 LINE",
"457 1098 LINE",
"434 1098 LINE SMOOTH",
"406 1098 OFFCURVE",
"338 1086 OFFCURVE",
"338 1031 CURVE SMOOTH",
"338 1013 OFFCURVE",
"352 980 OFFCURVE",
"384 930 CURVE",
"598 598 LINE",
"803 916 LINE SMOOTH",
"848 986 OFFCURVE",
"864 1025 OFFCURVE",
"836 1062 CURVE",
"823 1082 OFFCURVE",
"801 1098 OFFCURVE",
"744 1098 CURVE",
"744 1125 LINE",
"1103 1125 LINE",
"1103 1098 LINE",
"1084 1098 LINE"
);
}
);
width = 1126;
}
);
unicode = 0059;
},
{
glyphname = Z;
layers = (
{
anchors = (
{
name = L;
position = "{465, 17}";
},
{
name = U;
position = "{465, 1185}";
}
);
layerId = "233CC76B-C9AF-4A7F-B493-FFD1BBE88986";
paths = (
{
closed = 1;
nodes = (
"21 93 LINE",
"21 122 LINE",
"681 1065 LINE",
"352 1065 LINE SMOOTH",
"273 1065 OFFCURVE",
"232 1054 OFFCURVE",
"202 1028 CURVE",
"176 1003 OFFCURVE",
"158 967 OFFCURVE",
"142 867 CURVE",
"113 867 LINE",
"133 1125 LINE",
"897 1125 LINE",
"219 156 LINE",
"642 156 LINE SMOOTH",
"707 156 OFFCURVE",
"756 168 OFFCURVE",
"790 198 CURVE",
"826 226 OFFCURVE",
"855 282 OFFCURVE",
"885 371 CURVE",
"909 366 LINE",
"861 93 LINE"
);
}
);
width = 952;
}
);
unicode = 005A;
},
{
glyphname = bracketleft;
layers = (
{
layerId = "233CC76B-C9AF-4A7F-B493-FFD1BBE88986";
paths = (
{
closed = 1;
nodes = (
"376 1366 LINE",
"130 1366 LINE",
"130 -80 LINE",
"356 -80 LINE",
"356 -2 LINE",
"214 -2 LINE",
"214 1296 LINE",
"376 1296 LINE"
);
}
);
width = 474;
}
);
unicode = 005B;
},
{
glyphname = backslash;
layers = (
{
layerId = "233CC76B-C9AF-4A7F-B493-FFD1BBE88986";
paths = (
{
closed = 1;
nodes = (
"214 1168 LINE",
"144 1168 LINE",
"534 20 LINE",
"600 20 LINE"
);
}
);
width = 744;
}
);
unicode = 005C;
},
{
glyphname = bracketright;
layers = (
{
layerId = "233CC76B-C9AF-4A7F-B493-FFD1BBE88986";
paths = (
{
closed = 1;
nodes = (
"472 1354 LINE",
"216 1354 LINE",
"216 1284 LINE",
"382 1284 LINE",
"382 -2 LINE",
"240 -2 LINE",
"240 -80 LINE",
"472 -80 LINE"
);
}
);
width = 602;
}
);
unicode = 005D;
},
{
glyphname = asciicircum;
layers = (
{
anchors = (
{
name = U;
position = "{244, 1139}";
}
);
layerId = "233CC76B-C9AF-4A7F-B493-FFD1BBE88986";
paths = (
{
closed = 1;
nodes = (
"244 1049 LINE",
"54 886 LINE",
"0 886 LINE",
"196 1148 LINE",
"294 1148 LINE",
"489 886 LINE",
"435 886 LINE"
);
}
);
width = 489;
}
);
unicode = 005E;
},
{
glyphname = underscore;
layers = (
{
layerId = "233CC76B-C9AF-4A7F-B493-FFD1BBE88986";
paths = (
{
closed = 1;
nodes = (
"902 -84 LINE",
"-2 -84 LINE",
"-2 -140 LINE",
"902 -140 LINE"
);
}
);
width = 902;
}
);
unicode = 005F;
},
{
glyphname = grave;
layers = (
{
anchors = (
{
name = U;
position = "{177, 1139}";
}
);
layerId = "233CC76B-C9AF-4A7F-B493-FFD1BBE88986";
paths = (
{
closed = 1;
nodes = (
"139 1104 LINE SMOOTH",
"111 1133 OFFCURVE",
"75 1155 OFFCURVE",
"49 1155 CURVE SMOOTH",
"18 1155 OFFCURVE",
"0 1133 OFFCURVE",
"0 1096 CURVE SMOOTH",
"0 1069 OFFCURVE",
"42 1045 OFFCURVE",
"68 1029 CURVE SMOOTH",
"292 886 LINE",
"355 886 LINE"
);
}
);
width = 534;
}
);
unicode = 0060;
},
{
glyphname = a;
layers = (
{
anchors = (
{
name = H;
position = "{524, 93}";
},
{
name = L;
position = "{339, 17}";
},
{
name = O;
position = "{622, 93}";
},
{
name = R;
position = "{693, 778}";
},
{
name = U;
position = "{339, 854}";
}
);
layerId = "233CC76B-C9AF-4A7F-B493-FFD1BBE88986";
paths = (
{
closed = 1;
nodes = (
"635 118 OFFCURVE",
"579 80 OFFCURVE",
"525 80 CURVE SMOOTH",
"480 80 OFFCURVE",
"444 105 OFFCURVE",
"444 193 CURVE",
"321 98 OFFCURVE",
"296 80 OFFCURVE",
"222 80 CURVE SMOOTH",
"123 80 OFFCURVE",
"56 150 OFFCURVE",
"56 258 CURVE SMOOTH",
"56 361 OFFCURVE",
"113 442 OFFCURVE",
"444 555 CURVE",
"444 584 LINE SMOOTH",
"444 717 OFFCURVE",
"402 765 OFFCURVE",
"314 765 CURVE SMOOTH",
"250 765 OFFCURVE",
"212 728 OFFCURVE",
"209 680 CURVE",
"210 634 LINE",
"212 591 OFFCURVE",
"186 563 OFFCURVE",
"147 563 CURVE SMOOTH",
"107 563 OFFCURVE",
"83 590 OFFCURVE",
"83 636 CURVE SMOOTH",
"83 745 OFFCURVE",
"204 810 OFFCURVE",
"338 810 CURVE SMOOTH",
"540 810 OFFCURVE",
"572 719 OFFCURVE",
"572 572 CURVE SMOOTH",
"572 335 LINE SMOOTH",
"572 270 OFFCURVE",
"575 228 OFFCURVE",
"575 213 CURVE",
"581 186 OFFCURVE",
"590 176 OFFCURVE",
"609 176 CURVE SMOOTH",
"628 176 OFFCURVE",
"635 181 OFFCURVE",
"692 238 CURVE",
"692 193 LINE"
);
},
{
closed = 1;
nodes = (
"209 419 OFFCURVE",
"185 361 OFFCURVE",
"185 294 CURVE SMOOTH",
"185 222 OFFCURVE",
"232 168 OFFCURVE",
"291 166 CURVE",
"330 164 OFFCURVE",
"380 191 OFFCURVE",
"444 243 CURVE",
"444 510 LINE"
);
}
);
width = 693;
}
);
unicode = 0061;
},
{
glyphname = b;
layers = (
{
anchors = (
{
name = H;
position = "{411, 93}";
},
{
name = L;
position = "{411, 17}";
},
{
name = R;
position = "{780, 778}";
},
{
name = U;
position = "{411, 1185}";
}
);
layerId = "233CC76B-C9AF-4A7F-B493-FFD1BBE88986";
paths = (
{
closed = 1;
nodes = (
"726 240 OFFCURVE",
"558 70 OFFCURVE",
"366 70 CURVE SMOOTH",
"286 70 OFFCURVE",
"203 99 OFFCURVE",
"113 161 CURVE",
"113 882 LINE SMOOTH",
"113 1039 OFFCURVE",
"107 1052 OFFCURVE",
"88 1066 CURVE",
"72 1081 OFFCURVE",
"53 1080 OFFCURVE",
"5 1065 CURVE",
"-6 1092 LINE",
"205 1176 LINE",
"240 1176 LINE",
"240 670 LINE",
"307 763 OFFCURVE",
"380 810 OFFCURVE",
"459 810 CURVE SMOOTH",
"601 810 OFFCURVE",
"726 683 OFFCURVE",
"726 470 CURVE SMOOTH"
);
},
{
closed = 1;
nodes = (
"594 601 OFFCURVE",
"504 704 OFFCURVE",
"398 704 CURVE SMOOTH",
"359 704 OFFCURVE",
"318 694 OFFCURVE",
"240 623 CURVE",
"240 204 LINE",
"289 155 OFFCURVE",
"346 127 OFFCURVE",
"405 127 CURVE SMOOTH",
"496 127 OFFCURVE",
"594 228 OFFCURVE",
"594 426 CURVE SMOOTH"
);
}
);
width = 780;
}
);
unicode = 0062;
},
{
glyphname = c;
layers = (
{
anchors = (
{
name = H;
position = "{346, 93}";
},
{
name = L;
position = "{365, 17}";
},
{
name = R;
position = "{693, 778}";
},
{
name = U;
position = "{365, 854}";
}
);
layerId = "233CC76B-C9AF-4A7F-B493-FFD1BBE88986";
paths = (
{
closed = 1;
nodes = (
"613 190 OFFCURVE",
"486 70 OFFCURVE",
"349 70 CURVE SMOOTH",
"185 70 OFFCURVE",
"53 216 OFFCURVE",
"53 441 CURVE SMOOTH",
"53 662 OFFCURVE",
"205 810 OFFCURVE",
"385 810 CURVE SMOOTH",
"454 810 OFFCURVE",
"511 792 OFFCURVE",
"555 756 CURVE SMOOTH",
"598 720 OFFCURVE",
"622 683 OFFCURVE",
"622 644 CURVE SMOOTH",
"622 608 OFFCURVE",
"599 579 OFFCURVE",
"551 579 CURVE SMOOTH",
"521 579 OFFCURVE",
"473 585 OFFCURVE",
"466 668 CURVE",
"461 723 OFFCURVE",
"431 760 OFFCURVE",
"361 760 CURVE SMOOTH",
"244 760 OFFCURVE",
"177 651 OFFCURVE",
"177 507 CURVE SMOOTH",
"177 342 OFFCURVE",
"258 192 OFFCURVE",
"403 192 CURVE SMOOTH",
"489 192 OFFCURVE",
"559 225 OFFCURVE",
"619 369 CURVE",
"640 358 LINE"
);
}
);
width = 693;
}
);
unicode = 0063;
},
{
glyphname = d;
layers = (
{
anchors = (
{
name = H;
position = "{419, 93}";
},
{
name = L;
position = "{419, 17}";
},
{
name = R;
position = "{739, 778}";
},
{
name = U;
position = "{416, 1185}";
}
);
layerId = "233CC76B-C9AF-4A7F-B493-FFD1BBE88986";
paths = (
{
closed = 1;
nodes = (
"541 70 LINE",
"541 171 LINE",
"479 106 OFFCURVE",
"419 70 OFFCURVE",
"338 70 CURVE SMOOTH",
"183 70 OFFCURVE",
"51 216 OFFCURVE",
"51 413 CURVE SMOOTH",
"51 592 OFFCURVE",
"173 811 OFFCURVE",
"390 811 CURVE SMOOTH",
"451 811 OFFCURVE",
"501 793 OFFCURVE",
"541 753 CURVE",
"541 882 LINE SMOOTH",
"541 1037 OFFCURVE",
"536 1048 OFFCURVE",
"517 1066 CURVE SMOOTH",
"500 1084 OFFCURVE",
"476 1079 OFFCURVE",
"435 1065 CURVE",
"425 1092 LINE",
"634 1176 LINE",
"669 1176 LINE",
"669 369 LINE SMOOTH",
"669 220 OFFCURVE",
"670 197 OFFCURVE",
"693 181 CURVE",
"711 166 OFFCURVE",
"737 169 OFFCURVE",
"777 184 CURVE",
"786 158 LINE",
"575 70 LINE"
);
},
{
closed = 1;
nodes = (
"541 661 OFFCURVE",
"481 763 OFFCURVE",
"380 765 CURVE",
"278 769 OFFCURVE",
"192 653 OFFCURVE",
"192 473 CURVE SMOOTH",
"192 247 OFFCURVE",
"309 158 OFFCURVE",
"406 156 CURVE",
"455 156 OFFCURVE",
"498 179 OFFCURVE",
"541 225 CURVE",
"541 585 LINE"
);
}
);
width = 780;
}
);
unicode = 0064;
},
{
glyphname = e;
layers = (
{
anchors = (
{
name = H;
position = "{352, 93}";
},
{
name = L;
position = "{369, 17}";
},
{
name = O;
position = "{503, 93}";
},
{
name = R;
position = "{693, 778}";
},
{
name = U;
position = "{369, 854}";
}
);
layerId = "233CC76B-C9AF-4A7F-B493-FFD1BBE88986";
paths = (
{
closed = 1;
nodes = (
"628 212 OFFCURVE",
"521 70 OFFCURVE",
"361 70 CURVE SMOOTH",
"196 70 OFFCURVE",
"57 212 OFFCURVE",
"57 434 CURVE SMOOTH",
"57 669 OFFCURVE",
"192 811 OFFCURVE",
"380 811 CURVE SMOOTH",
"535 811 OFFCURVE",
"648 705 OFFCURVE",
"648 528 CURVE",
"165 528 LINE",
"165 320 OFFCURVE",
"283 199 OFFCURVE",
"419 196 CURVE",
"510 194 OFFCURVE",
"575 235 OFFCURVE",
"624 363 CURVE",
"648 348 LINE"
);
},
{
closed = 1;
nodes = (
"489 725 OFFCURVE",
"388 757 OFFCURVE",
"338 757 CURVE SMOOTH",
"256 757 OFFCURVE",
"177 691 OFFCURVE",
"165 571 CURVE",
"489 571 LINE"
);
}
);
width = 693;
}
);
unicode = 0065;
},
{
glyphname = f;
layers = (
{
anchors = (
{
name = H;
position = "{368, 93}";
},
{
name = L;
position = "{257, 17}";
},
{
name = U;
position = "{434, 1139}";
}
);
layerId = "233CC76B-C9AF-4A7F-B493-FFD1BBE88986";
paths = (
{
closed = 1;
nodes = (
"678 1018 OFFCURVE",
"651 982 OFFCURVE",
"616 982 CURVE",
"538 979 OFFCURVE",
"532 1119 OFFCURVE",
"426 1119 CURVE SMOOTH",
"329 1119 OFFCURVE",
"321 1037 OFFCURVE",
"321 840 CURVE SMOOTH",
"321 790 LINE",
"501 790 LINE",
"501 735 LINE",
"321 735 LINE",
"321 278 LINE SMOOTH",
"321 213 OFFCURVE",
"326 171 OFFCURVE",
"343 155 CURVE",
"360 133 OFFCURVE",
"385 122 OFFCURVE",
"419 122 CURVE SMOOTH",
"481 122 LINE",
"481 93 LINE",
"62 93 LINE",
"62 122 LINE",
"93 122 LINE SMOOTH",
"117 122 OFFCURVE",
"139 125 OFFCURVE",
"162 146 CURVE SMOOTH",
"186 168 OFFCURVE",
"193 189 OFFCURVE",
"193 278 CURVE SMOOTH",
"193 735 LINE",
"57 735 LINE",
"57 790 LINE",
"193 790 LINE",
"193 837 LINE SMOOTH",
"193 1153 OFFCURVE",
"438 1176 OFFCURVE",
"486 1176 CURVE SMOOTH",
"575 1176 OFFCURVE",
"678 1115 OFFCURVE",
"678 1045 CURVE SMOOTH"
);
}
);
width = 519;
}
);
unicode = 0066;
},
{
glyphname = g;
layers = (
{
anchors = (
{
name = H;
position = "{396, -236}";
},
{
name = L;
position = "{399, -287}";
},
{
name = R;
position = "{780, 778}";
},
{
name = U;
position = "{388, 854}";
}
);
layerId = "233CC76B-C9AF-4A7F-B493-FFD1BBE88986";
paths = (
{
closed = 1;
nodes = (
"751 723 OFFCURVE",
"750 706 OFFCURVE",
"744 699 CURVE",
"739 695 OFFCURVE",
"730 693 OFFCURVE",
"720 693 CURVE",
"715 692 OFFCURVE",
"708 692 OFFCURVE",
"702 693 CURVE",
"613 693 LINE",
"639 657 OFFCURVE",
"654 611 OFFCURVE",
"654 553 CURVE",
"656 426 OFFCURVE",
"553 317 OFFCURVE",
"380 317 CURVE SMOOTH",
"344 317 OFFCURVE",
"309 322 OFFCURVE",
"273 333 CURVE",
"232 302 OFFCURVE",
"196 249 OFFCURVE",
"228 220 CURVE",
"246 202 OFFCURVE",
"275 200 OFFCURVE",
"499 193 CURVE",
"554 193 OFFCURVE",
"743 190 OFFCURVE",
"743 28 CURVE SMOOTH",
"743 -112 OFFCURVE",
"575 -245 OFFCURVE",
"352 -245 CURVE SMOOTH",
"198 -245 OFFCURVE",
"46 -170 OFFCURVE",
"46 -99 CURVE SMOOTH",
"46 -58 OFFCURVE",
"76 -10 OFFCURVE",
"186 99 CURVE",
"139 129 OFFCURVE",
"114 147 OFFCURVE",
"114 183 CURVE SMOOTH",
"114 219 OFFCURVE",
"130 258 OFFCURVE",
"236 348 CURVE",
"147 387 OFFCURVE",
"103 475 OFFCURVE",
"103 559 CURVE SMOOTH",
"103 690 OFFCURVE",
"207 810 OFFCURVE",
"380 810 CURVE SMOOTH",
"501 810 OFFCURVE",
"538 757 OFFCURVE",
"634 757 CURVE SMOOTH",
"681 757 OFFCURVE",
"702 761 OFFCURVE",
"721 761 CURVE SMOOTH",
"728 761 OFFCURVE",
"734 760 OFFCURVE",
"741 759 CURVE SMOOTH",
"748 757 OFFCURVE",
"751 747 OFFCURVE",
"751 728 CURVE SMOOTH"
);
},
{
closed = 1;
nodes = (
"519 677 OFFCURVE",
"462 774 OFFCURVE",
"368 774 CURVE SMOOTH",
"295 774 OFFCURVE",
"236 720 OFFCURVE",
"236 592 CURVE SMOOTH",
"236 454 OFFCURVE",
"291 356 OFFCURVE",
"388 356 CURVE SMOOTH",
"462 356 OFFCURVE",
"519 409 OFFCURVE",
"519 534 CURVE SMOOTH"
);
},
{
closed = 1;
nodes = (
"687 50 OFFCURVE",
"652 68 OFFCURVE",
"492 76 CURVE",
"377 82 OFFCURVE",
"289 84 OFFCURVE",
"228 93 CURVE",
"184 42 OFFCURVE",
"156 6 OFFCURVE",
"156 -40 CURVE SMOOTH",
"156 -104 OFFCURVE",
"263 -151 OFFCURVE",
"419 -151 CURVE SMOOTH",
"601 -151 OFFCURVE",
"687 -73 OFFCURVE",
"687 0 CURVE SMOOTH"
);
}
);
width = 780;
}
);
unicode = 0067;
},
{
glyphname = h;
layers = (
{
anchors = (
{
name = H;
position = "{487, 93}";
},
{
name = L;
position = "{390, 17}";
},
{
name = U;
position = "{390, 1185}";
}
);
layerId = "233CC76B-C9AF-4A7F-B493-FFD1BBE88986";
paths = (
{
closed = 1;
nodes = (
"428 122 LINE",
"516 122 OFFCURVE",
"540 142 OFFCURVE",
"540 236 CURVE SMOOTH",
"540 496 LINE SMOOTH",
"540 587 OFFCURVE",
"549 719 OFFCURVE",
"428 719 CURVE SMOOTH",
"381 719 OFFCURVE",
"330 706 OFFCURVE",
"255 618 CURVE",
"255 236 LINE SMOOTH",
"255 142 OFFCURVE",
"266 122 OFFCURVE",
"366 122 CURVE",
"366 93 LINE",
"21 93 LINE",
"21 122 LINE",
"113 122 OFFCURVE",
"127 152 OFFCURVE",
"127 236 CURVE SMOOTH",
"127 972 LINE SMOOTH",
"127 1045 OFFCURVE",
"118 1077 OFFCURVE",
"76 1077 CURVE SMOOTH",
"63 1077 OFFCURVE",
"43 1074 OFFCURVE",
"21 1065 CURVE",
"9 1092 LINE",
"219 1176 LINE",
"255 1176 LINE",
"255 666 LINE",
"336 788 OFFCURVE",
"413 810 OFFCURVE",
"486 810 CURVE SMOOTH",
"663 810 OFFCURVE",
"667 633 OFFCURVE",
"667 496 CURVE SMOOTH",
"667 236 LINE SMOOTH",
"667 147 OFFCURVE",
"680 122 OFFCURVE",
"772 122 CURVE",
"772 93 LINE",
"428 93 LINE"
);
}
);
width = 780;
}
);
unicode = 0068;
},
{
glyphname = i;
layers = (
{
anchors = (
{
name = H;
position = "{224, 93}";
},
{
name = L;
position = "{228, 17}";
},
{
name = O;
position = "{338, 93}";
},
{
name = R;
position = "{434, 778}";
},
{
name = U;
position = "{224, 854}";
}
);
layerId = "233CC76B-C9AF-4A7F-B493-FFD1BBE88986";
paths = (
{
closed = 1;
nodes = (
"306 984 OFFCURVE",
"274 949 OFFCURVE",
"229 949 CURVE SMOOTH",
"184 949 OFFCURVE",
"151 982 OFFCURVE",
"151 1028 CURVE SMOOTH",
"151 1072 OFFCURVE",
"186 1104 OFFCURVE",
"229 1104 CURVE SMOOTH",
"272 1104 OFFCURVE",
"306 1069 OFFCURVE",
"306 1028 CURVE SMOOTH"
);
},
{
closed = 1;
nodes = (
"59 122 LINE",
"147 122 OFFCURVE",
"165 142 OFFCURVE",
"165 236 CURVE SMOOTH",
"165 609 LINE SMOOTH",
"165 676 OFFCURVE",
"153 711 OFFCURVE",
"113 711 CURVE SMOOTH",
"98 711 OFFCURVE",
"82 707 OFFCURVE",
"59 699 CURVE",
"49 726 LINE",
"260 810 LINE",
"292 810 LINE",
"292 236 LINE SMOOTH",
"292 142 OFFCURVE",
"312 122 OFFCURVE",
"400 122 CURVE",
"400 93 LINE",
"59 93 LINE"
);
}
);
width = 434;
}
);
unicode = 0069;
},
{
glyphname = j;
layers = (
{
anchors = (
{
name = L;
position = "{92, -287}";
},
{
name = U;
position = "{228, 854}";
}
);
layerId = "233CC76B-C9AF-4A7F-B493-FFD1BBE88986";
paths = (
{
closed = 1;
nodes = (
"304 986 OFFCURVE",
"272 949 OFFCURVE",
"226 949 CURVE SMOOTH",
"181 949 OFFCURVE",
"148 982 OFFCURVE",
"148 1028 CURVE SMOOTH",
"148 1070 OFFCURVE",
"186 1105 OFFCURVE",
"226 1105 CURVE SMOOTH",
"265 1105 OFFCURVE",
"304 1070 OFFCURVE",
"304 1028 CURVE SMOOTH"
);
},
{
closed = 1;
nodes = (
"292 -133 OFFCURVE",
"176 -245 OFFCURVE",
"17 -245 CURVE SMOOTH",
"-81 -245 OFFCURVE",
"-118 -199 OFFCURVE",
"-120 -168 CURVE",
"-120 -131 OFFCURVE",
"-91 -102 OFFCURVE",
"-57 -102 CURVE SMOOTH",
"-21 -102 OFFCURVE",
"0 -117 OFFCURVE",
"33 -151 CURVE",
"56 -173 OFFCURVE",
"77 -183 OFFCURVE",
"94 -183 CURVE SMOOTH",
"167 -183 OFFCURVE",
"165 -73 OFFCURVE",
"165 21 CURVE SMOOTH",
"165 518 LINE SMOOTH",
"165 649 OFFCURVE",
"159 688 OFFCURVE",
"143 700 CURVE SMOOTH",
"123 715 OFFCURVE",
"100 714 OFFCURVE",
"57 699 CURVE",
"49 726 LINE",
"260 810 LINE",
"292 810 LINE",
"292 107 LINE"
);
}
);
width = 434;
}
);
unicode = 006A;
},
{
glyphname = k;
layers = (
{
anchors = (
{
name = H;
position = "{597, 93}";
},
{
name = L;
position = "{400, 17}";
},
{
name = R;
position = "{780, 778}";
},
{
name = U;
position = "{400, 1185}";
}
);
layerId = "233CC76B-C9AF-4A7F-B493-FFD1BBE88986";
paths = (
{
closed = 1;
nodes = (
"450 122 LINE",
"479 122 OFFCURVE",
"492 125 OFFCURVE",
"497 139 CURVE SMOOTH",
"498 143 OFFCURVE",
"499 148 OFFCURVE",
"499 152 CURVE SMOOTH",
"499 165 OFFCURVE",
"492 180 OFFCURVE",
"470 209 CURVE",
"256 478 LINE",
"256 251 LINE SMOOTH",
"256 185 OFFCURVE",
"260 163 OFFCURVE",
"273 147 CURVE SMOOTH",
"292 126 OFFCURVE",
"302 122 OFFCURVE",
"368 122 CURVE",
"368 93 LINE",
"10 93 LINE",
"10 122 LINE",
"59 122 OFFCURVE",
"89 126 OFFCURVE",
"107 144 CURVE SMOOTH",
"121 159 OFFCURVE",
"126 190 OFFCURVE",
"126 246 CURVE SMOOTH",
"126 881 LINE SMOOTH",
"126 1040 OFFCURVE",
"123 1052 OFFCURVE",
"105 1066 CURVE SMOOTH",
"93 1076 OFFCURVE",
"75 1085 OFFCURVE",
"26 1065 CURVE",
"10 1092 LINE",
"221 1176 LINE",
"256 1176 LINE",
"256 495 LINE",
"432 644 LINE SMOOTH",
"498 700 OFFCURVE",
"504 712 OFFCURVE",
"504 727 CURVE SMOOTH",
"504 748 OFFCURVE",
"489 763 OFFCURVE",
"450 766 CURVE",
"450 790 LINE",
"753 790 LINE",
"753 766 LINE",
"711 765 OFFCURVE",
"677 758 OFFCURVE",
"650 747 CURVE SMOOTH",
"622 735 OFFCURVE",
"594 715 OFFCURVE",
"558 684 CURVE SMOOTH",
"375 521 LINE",
"558 292 LINE SMOOTH",
"677 143 OFFCURVE",
"673 157 OFFCURVE",
"723 127 CURVE",
"733 122 OFFCURVE",
"756 122 OFFCURVE",
"789 122 CURVE",
"789 93 LINE",
"450 93 LINE"
);
}
);
width = 780;
}
);
unicode = 006B;
},
{
glyphname = l;
layers = (
{
anchors = (
{
name = H;
position = "{223, 93}";
},
{
name = L;
position = "{222, 17}";
},
{
name = R;
position = "{358, 778}";
},
{
name = U;
position = "{222, 1215}";
}
);
layerId = "233CC76B-C9AF-4A7F-B493-FFD1BBE88986";
paths = (
{
closed = 1;
nodes = (
"59 122 LINE",
"105 122 OFFCURVE",
"123 124 OFFCURVE",
"139 146 CURVE SMOOTH",
"151 161 OFFCURVE",
"161 186 OFFCURVE",
"161 251 CURVE SMOOTH",
"161 883 LINE SMOOTH",
"161 1041 OFFCURVE",
"154 1053 OFFCURVE",
"139 1066 CURVE",
"130 1072 OFFCURVE",
"120 1076 OFFCURVE",
"108 1076 CURVE SMOOTH",
"96 1076 OFFCURVE",
"80 1073 OFFCURVE",
"59 1065 CURVE",
"45 1092 LINE",
"255 1176 LINE",
"288 1176 LINE",
"288 251 LINE SMOOTH",
"288 189 OFFCURVE",
"294 167 OFFCURVE",
"307 149 CURVE SMOOTH",
"322 130 OFFCURVE",
"341 122 OFFCURVE",
"400 122 CURVE",
"400 93 LINE",
"59 93 LINE"
);
}
);
width = 434;
}
);
unicode = 006C;
},
{
glyphname = m;
layers = (
{
anchors = (
{
name = H;
position = "{609, 93}";
},
{
name = L;
position = "{609, 17}";
},
{
name = U;
position = "{609, 854}";
}
);
layerId = "233CC76B-C9AF-4A7F-B493-FFD1BBE88986";
paths = (
{
closed = 1;
nodes = (
"863 122 LINE",
"972 122 OFFCURVE",
"975 156 OFFCURVE",
"975 251 CURVE SMOOTH",
"975 552 LINE SMOOTH",
"975 677 OFFCURVE",
"938 720 OFFCURVE",
"860 720 CURVE SMOOTH",
"814 720 OFFCURVE",
"754 700 OFFCURVE",
"680 626 CURVE",
"680 251 LINE SMOOTH",
"680 151 OFFCURVE",
"686 122 OFFCURVE",
"791 122 CURVE",
"791 93 LINE",
"438 93 LINE",
"438 122 LINE",
"557 122 OFFCURVE",
"552 162 OFFCURVE",
"552 251 CURVE SMOOTH",
"552 552 LINE SMOOTH",
"552 676 OFFCURVE",
"507 722 OFFCURVE",
"434 722 CURVE SMOOTH",
"361 722 OFFCURVE",
"298 671 OFFCURVE",
"255 626 CURVE",
"255 251 LINE SMOOTH",
"255 133 OFFCURVE",
"278 122 OFFCURVE",
"368 122 CURVE",
"368 93 LINE",
"23 93 LINE",
"23 122 LINE",
"111 122 OFFCURVE",
"127 142 OFFCURVE",
"127 251 CURVE SMOOTH",
"127 518 LINE SMOOTH",
"127 673 OFFCURVE",
"136 739 OFFCURVE",
"23 699 CURVE",
"10 726 LINE",
"222 810 LINE",
"255 810 LINE",
"255 663 LINE",
"369 785 OFFCURVE",
"427 810 OFFCURVE",
"497 810 CURVE SMOOTH",
"579 810 OFFCURVE",
"651 764 OFFCURVE",
"673 663 CURVE",
"776 782 OFFCURVE",
"840 810 OFFCURVE",
"918 810 CURVE SMOOTH",
"1030 810 OFFCURVE",
"1102 741 OFFCURVE",
"1102 552 CURVE SMOOTH",
"1102 251 LINE SMOOTH",
"1102 144 OFFCURVE",
"1123 122 OFFCURVE",
"1208 122 CURVE",
"1208 93 LINE",
"863 93 LINE"
);
}
);
width = 1214;
}
);
unicode = 006D;
},
{
glyphname = n;
layers = (
{
anchors = (
{
name = H;
position = "{601, 93}";
},
{
name = L;
position = "{392, 17}";
},
{
name = U;
position = "{392, 854}";
}
);
layerId = "233CC76B-C9AF-4A7F-B493-FFD1BBE88986";
paths = (
{
closed = 1;
nodes = (
"428 122 LINE",
"531 122 OFFCURVE",
"541 143 OFFCURVE",
"541 251 CURVE SMOOTH",
"541 535 LINE SMOOTH",
"541 661 OFFCURVE",
"514 717 OFFCURVE",
"432 717 CURVE SMOOTH",
"374 717 OFFCURVE",
"313 685 OFFCURVE",
"252 618 CURVE",
"252 251 LINE SMOOTH",
"252 142 OFFCURVE",
"265 122 OFFCURVE",
"366 122 CURVE",
"366 93 LINE",
"20 93 LINE",
"20 122 LINE",
"107 122 OFFCURVE",
"125 144 OFFCURVE",
"125 251 CURVE SMOOTH",
"125 510 LINE SMOOTH",
"125 676 OFFCURVE",
"118 689 OFFCURVE",
"102 700 CURVE",
"85 715 OFFCURVE",
"58 715 OFFCURVE",
"20 699 CURVE",
"8 726 LINE",
"221 810 LINE",
"252 810 LINE",
"252 665 LINE",
"335 761 OFFCURVE",
"412 810 OFFCURVE",
"486 810 CURVE SMOOTH",
"622 810 OFFCURVE",
"669 706 OFFCURVE",
"669 550 CURVE SMOOTH",
"669 251 LINE SMOOTH",
"669 147 OFFCURVE",
"683 122 OFFCURVE",
"777 122 CURVE",
"777 93 LINE",
"428 93 LINE"
);
}
);
width = 780;
}
);
unicode = 006E;
},
{
glyphname = o;
layers = (
{
anchors = (
{
name = H;
position = "{389, 93}";
},
{
name = L;
position = "{389, 17}";
},
{
name = O;
position = "{546, 93}";
},
{
name = R;
position = "{780, 778}";
},
{
name = U;
position = "{389, 854}";
}
);
layerId = "233CC76B-C9AF-4A7F-B493-FFD1BBE88986";
paths = (
{
closed = 1;
nodes = (
"726 275 OFFCURVE",
"611 70 OFFCURVE",
"382 70 CURVE SMOOTH",
"187 70 OFFCURVE",
"53 241 OFFCURVE",
"53 435 CURVE SMOOTH",
"53 623 OFFCURVE",
"180 810 OFFCURVE",
"390 810 CURVE SMOOTH",
"590 810 OFFCURVE",
"726 654 OFFCURVE",
"726 454 CURVE SMOOTH"
);
},
{
closed = 1;
nodes = (
"584 603 OFFCURVE",
"500 762 OFFCURVE",
"366 762 CURVE SMOOTH",
"286 762 OFFCURVE",
"193 700 OFFCURVE",
"193 498 CURVE SMOOTH",
"193 298 OFFCURVE",
"280 126 OFFCURVE",
"414 126 CURVE SMOOTH",
"514 126 OFFCURVE",
"584 196 OFFCURVE",
"584 396 CURVE SMOOTH"
);
}
);
width = 780;
}
);
unicode = 006F;
},
{
glyphname = p;
layers = (
{
anchors = (
{
name = H;
position = "{175, -238}";
},
{
name = L;
position = "{359, -287}";
},
{
name = R;
position = "{780, 778}";
},
{
name = U;
position = "{359, 854}";
}
);
layerId = "233CC76B-C9AF-4A7F-B493-FFD1BBE88986";
paths = (
{
closed = 1;
nodes = (
"728 249 OFFCURVE",
"598 70 OFFCURVE",
"408 70 CURVE SMOOTH",
"363 70 OFFCURVE",
"307 75 OFFCURVE",
"242 133 CURVE",
"242 -77 LINE SMOOTH",
"242 -188 OFFCURVE",
"248 -209 OFFCURVE",
"361 -213 CURVE",
"361 -242 LINE",
"-9 -242 LINE",
"-9 -213 LINE",
"104 -209 OFFCURVE",
"113 -191 OFFCURVE",
"113 -74 CURVE SMOOTH",
"113 585 LINE SMOOTH",
"113 663 OFFCURVE",
"113 680 OFFCURVE",
"88 699 CURVE SMOOTH",
"72 710 OFFCURVE",
"49 714 OFFCURVE",
"5 696 CURVE",
"-5 722 LINE",
"213 808 LINE",
"242 808 LINE",
"242 645 LINE",
"314 768 OFFCURVE",
"382 810 OFFCURVE",
"466 810 CURVE SMOOTH",
"621 810 OFFCURVE",
"728 661 OFFCURVE",
"728 468 CURVE SMOOTH"
);
},
{
closed = 1;
nodes = (
"606 621 OFFCURVE",
"514 717 OFFCURVE",
"405 717 CURVE SMOOTH",
"345 717 OFFCURVE",
"304 668 OFFCURVE",
"242 600 CURVE",
"242 339 LINE SMOOTH",
"242 285 OFFCURVE",
"244 247 OFFCURVE",
"249 228 CURVE",
"263 175 OFFCURVE",
"315 117 OFFCURVE",
"405 117 CURVE SMOOTH",
"524 117 OFFCURVE",
"606 223 OFFCURVE",
"606 396 CURVE SMOOTH"
);
}
);
width = 780;
}
);
unicode = 0070;
},
{
glyphname = q;
layers = (
{
anchors = (
{
name = L;
position = "{417, -287}";
},
{
name = R;
position = "{780, 778}";
},
{
name = U;
position = "{417, 854}";
}
);
layerId = "233CC76B-C9AF-4A7F-B493-FFD1BBE88986";
paths = (
{
closed = 1;
nodes = (
"428 -213 LINE",
"516 -213 OFFCURVE",
"541 -202 OFFCURVE",
"541 -87 CURVE SMOOTH",
"541 215 LINE",
"452 106 OFFCURVE",
"389 70 OFFCURVE",
"312 70 CURVE SMOOTH",
"185 70 OFFCURVE",
"51 195 OFFCURVE",
"51 411 CURVE SMOOTH",
"51 644 OFFCURVE",
"207 810 OFFCURVE",
"411 810 CURVE SMOOTH",
"469 810 OFFCURVE",
"519 798 OFFCURVE",
"555 762 CURVE",
"585 777 OFFCURVE",
"616 792 OFFCURVE",
"642 810 CURVE",
"669 810 LINE",
"669 -87 LINE SMOOTH",
"669 -194 OFFCURVE",
"689 -213 OFFCURVE",
"783 -213 CURVE",
"783 -242 LINE",
"428 -242 LINE"
);
},
{
closed = 1;
nodes = (
"541 690 OFFCURVE",
"491 757 OFFCURVE",
"387 757 CURVE SMOOTH",
"274 757 OFFCURVE",
"180 663 OFFCURVE",
"180 467 CURVE SMOOTH",
"180 274 OFFCURVE",
"279 179 OFFCURVE",
"392 179 CURVE SMOOTH",
"457 179 OFFCURVE",
"495 208 OFFCURVE",
"541 260 CURVE",
"541 590 LINE"
);
}
);
width = 780;
}
);
unicode = 0071;
},
{
glyphname = r;
layers = (
{
anchors = (
{
name = H;
position = "{195, 93}";
},
{
name = L;
position = "{269, 17}";
},
{
name = U;
position = "{269, 854}";
}
);
layerId = "233CC76B-C9AF-4A7F-B493-FFD1BBE88986";
paths = (
{
closed = 1;
nodes = (
"531 690 OFFCURVE",
"501 655 OFFCURVE",
"462 655 CURVE SMOOTH",
"411 655 OFFCURVE",
"387 709 OFFCURVE",
"354 709 CURVE SMOOTH",
"329 709 OFFCURVE",
"291 665 OFFCURVE",
"252 591 CURVE",
"252 255 LINE SMOOTH",
"252 167 OFFCURVE",
"275 122 OFFCURVE",
"375 122 CURVE",
"375 93 LINE",
"13 93 LINE",
"13 122 LINE",
"100 122 OFFCURVE",
"125 132 OFFCURVE",
"125 251 CURVE SMOOTH",
"125 521 LINE SMOOTH",
"125 668 OFFCURVE",
"119 681 OFFCURVE",
"102 700 CURVE",
"80 712 OFFCURVE",
"56 717 OFFCURVE",
"13 699 CURVE",
"6 726 LINE",
"222 810 LINE",
"252 810 LINE",
"252 654 LINE",
"310 758 OFFCURVE",
"370 810 OFFCURVE",
"432 810 CURVE SMOOTH",
"488 810 OFFCURVE",
"531 776 OFFCURVE",
"531 726 CURVE SMOOTH"
);
}
);
width = 534;
}
);
unicode = 0072;
},
{
glyphname = s;
layers = (
{
anchors = (
{
name = H;
position = "{314, 93}";
},
{
name = L;
position = "{314, 17}";
},
{
name = U;
position = "{314, 854}";
}
);
layerId = "233CC76B-C9AF-4A7F-B493-FFD1BBE88986";
paths = (
{
closed = 1;
nodes = (
"552 162 OFFCURVE",
"444 70 OFFCURVE",
"320 70 CURVE SMOOTH",
"245 70 OFFCURVE",
"178 111 OFFCURVE",
"132 117 CURVE",
"120 117 OFFCURVE",
"111 96 OFFCURVE",
"105 83 CURVE",
"80 83 LINE",
"80 332 LINE",
"105 332 LINE",
"131 190 OFFCURVE",
"221 117 OFFCURVE",
"320 117 CURVE SMOOTH",
"394 117 OFFCURVE",
"439 165 OFFCURVE",
"439 220 CURVE",
"441 289 OFFCURVE",
"413 330 OFFCURVE",
"263 407 CURVE",
"115 483 OFFCURVE",
"76 537 OFFCURVE",
"76 624 CURVE SMOOTH",
"76 728 OFFCURVE",
"157 810 OFFCURVE",
"303 810 CURVE SMOOTH",
"365 810 OFFCURVE",
"431 783 OFFCURVE",
"455 783 CURVE SMOOTH",
"470 783 OFFCURVE",
"477 786 OFFCURVE",
"489 810 CURVE",
"514 810 LINE",
"514 572 LINE",
"489 572 LINE",
"453 722 OFFCURVE",
"388 766 OFFCURVE",
"301 766 CURVE SMOOTH",
"207 766 OFFCURVE",
"166 729 OFFCURVE",
"165 675 CURVE",
"163 619 OFFCURVE",
"183 574 OFFCURVE",
"279 530 CURVE",
"392 477 LINE",
"498 428 OFFCURVE",
"552 357 OFFCURVE",
"552 269 CURVE SMOOTH"
);
}
);
width = 607;
}
);
unicode = 0073;
},
{
glyphname = t;
layers = (
{
anchors = (
{
name = H;
position = "{223, 93}";
},
{
name = L;
position = "{223, 17}";
},
{
name = R;
position = "{434, 778}";
},
{
name = U;
position = "{217, 1081}";
}
);
layerId = "233CC76B-C9AF-4A7F-B493-FFD1BBE88986";
paths = (
{
closed = 1;
nodes = (
"403 117 OFFCURVE",
"321 70 OFFCURVE",
"261 70 CURVE SMOOTH",
"195 70 OFFCURVE",
"123 99 OFFCURVE",
"123 255 CURVE SMOOTH",
"123 738 LINE",
"11 738 LINE",
"11 762 LINE",
"53 777 OFFCURVE",
"102 819 OFFCURVE",
"142 865 CURVE",
"169 899 OFFCURVE",
"185 919 OFFCURVE",
"228 1020 CURVE",
"250 1020 LINE",
"250 790 LINE",
"414 790 LINE",
"414 738 LINE",
"250 738 LINE",
"250 273 LINE SMOOTH",
"250 182 OFFCURVE",
"281 160 OFFCURVE",
"320 158 CURVE",
"357 155 OFFCURVE",
"387 181 OFFCURVE",
"405 220 CURVE",
"435 220 LINE"
);
}
);
width = 434;
}
);
unicode = 0074;
},
{
glyphname = u;
layers = (
{
anchors = (
{
name = H;
position = "{350, 93}";
},
{
name = L;
position = "{390, 17}";
},
{
name = O;
position = "{428, 93}";
},
{
name = R;
position = "{780, 778}";
},
{
name = U;
position = "{390, 854}";
}
);
layerId = "233CC76B-C9AF-4A7F-B493-FFD1BBE88986";
paths = (
{
closed = 1;
nodes = (
"536 70 LINE",
"536 219 LINE",
"419 96 OFFCURVE",
"366 70 OFFCURVE",
"299 70 CURVE SMOOTH",
"136 70 OFFCURVE",
"119 231 OFFCURVE",
"119 342 CURVE SMOOTH",
"119 654 LINE SMOOTH",
"119 745 OFFCURVE",
"88 762 OFFCURVE",
"0 762 CURVE",
"0 790 LINE",
"246 790 LINE",
"246 324 LINE SMOOTH",
"246 244 OFFCURVE",
"261 165 OFFCURVE",
"361 165 CURVE SMOOTH",
"402 165 OFFCURVE",
"457 187 OFFCURVE",
"536 263 CURVE",
"536 660 LINE SMOOTH",
"536 744 OFFCURVE",
"502 760 OFFCURVE",
"423 762 CURVE",
"423 790 LINE",
"663 790 LINE",
"663 278 LINE SMOOTH",
"663 195 OFFCURVE",
"677 173 OFFCURVE",
"710 173 CURVE SMOOTH",
"724 173 OFFCURVE",
"749 176 OFFCURVE",
"771 184 CURVE",
"782 158 LINE",
"570 70 LINE"
);
}
);
width = 780;
}
);
unicode = 0075;
},
{
glyphname = v;
layers = (
{
anchors = (
{
name = H;
position = "{400, 93}";
},
{
name = L;
position = "{389, 17}";
},
{
name = O;
position = "{472, 93}";
},
{
name = U;
position = "{389, 854}";
}
);
layerId = "233CC76B-C9AF-4A7F-B493-FFD1BBE88986";
paths = (
{
closed = 1;
nodes = (
"740 760 OFFCURVE",
"723 756 OFFCURVE",
"710 747 CURVE",
"693 729 OFFCURVE",
"678 706 OFFCURVE",
"663 670 CURVE SMOOTH",
"416 70 LINE",
"384 70 LINE",
"133 661 LINE",
"113 712 OFFCURVE",
"93 731 OFFCURVE",
"65 750 CURVE",
"56 755 OFFCURVE",
"39 757 OFFCURVE",
"11 762 CURVE",
"11 790 LINE",
"342 790 LINE",
"342 762 LINE",
"320 762 LINE SMOOTH",
"301 762 OFFCURVE",
"283 760 OFFCURVE",
"275 748 CURVE",
"254 727 OFFCURVE",
"251 696 OFFCURVE",
"275 645 CURVE",
"437 260 LINE",
"600 661 LINE",
"618 704 OFFCURVE",
"624 727 OFFCURVE",
"613 744 CURVE SMOOTH",
"607 753 OFFCURVE",
"594 762 OFFCURVE",
"538 762 CURVE",
"538 790 LINE",
"767 790 LINE",
"767 762 LINE"
);
}
);
width = 780;
}
);
unicode = 0076;
},
{
glyphname = w;
layers = (
{
anchors = (
{
name = L;
position = "{561, 17}";
},
{
name = U;
position = "{561, 854}";
}
);
layerId = "233CC76B-C9AF-4A7F-B493-FFD1BBE88986";
paths = (
{
closed = 1;
nodes = (
"1068 756 OFFCURVE",
"1035 726 OFFCURVE",
"1014 674 CURVE",
"782 70 LINE",
"750 70 LINE",
"575 518 LINE",
"374 70 LINE",
"345 70 LINE",
"120 657 LINE",
"105 694 OFFCURVE",
"91 719 OFFCURVE",
"76 731 CURVE",
"65 746 OFFCURVE",
"40 756 OFFCURVE",
"9 762 CURVE",
"9 790 LINE",
"303 790 LINE",
"303 762 LINE",
"276 760 OFFCURVE",
"258 756 OFFCURVE",
"249 748 CURVE",
"231 731 OFFCURVE",
"231 705 OFFCURVE",
"249 657 CURVE SMOOTH",
"400 257 LINE",
"549 584 LINE",
"510 687 LINE",
"498 717 OFFCURVE",
"482 738 OFFCURVE",
"462 750 CURVE SMOOTH",
"451 757 OFFCURVE",
"429 760 OFFCURVE",
"400 762 CURVE",
"400 790 LINE",
"731 790 LINE",
"731 762 LINE",
"694 760 OFFCURVE",
"669 756 OFFCURVE",
"654 744 CURVE",
"642 732 OFFCURVE",
"631 699 OFFCURVE",
"645 674 CURVE",
"804 273 LINE",
"949 657 LINE",
"960 685 OFFCURVE",
"966 707 OFFCURVE",
"966 723 CURVE SMOOTH",
"966 735 OFFCURVE",
"957 762 OFFCURVE",
"893 762 CURVE",
"893 790 LINE",
"1113 790 LINE",
"1113 762 LINE"
);
}
);
width = 1126;
}
);
unicode = 0077;
},
{
glyphname = x;
layers = (
{
anchors = (
{
name = H;
position = "{586, 93}";
},
{
name = L;
position = "{391, 17}";
},
{
name = U;
position = "{391, 854}";
}
);
layerId = "233CC76B-C9AF-4A7F-B493-FFD1BBE88986";
paths = (
{
closed = 1;
nodes = (
"432 122 LINE",
"509 122 OFFCURVE",
"506 168 OFFCURVE",
"494 189 CURVE",
"349 402 LINE",
"198 200 LINE SMOOTH",
"177 173 OFFCURVE",
"177 124 OFFCURVE",
"255 122 CURVE",
"255 93 LINE",
"27 93 LINE",
"27 122 LINE",
"67 124 OFFCURVE",
"94 149 OFFCURVE",
"170 252 CURVE",
"318 447 LINE",
"186 639 LINE",
"111 750 OFFCURVE",
"87 760 OFFCURVE",
"21 762 CURVE",
"21 790 LINE",
"349 790 LINE",
"349 762 LINE",
"288 766 OFFCURVE",
"285 724 OFFCURVE",
"295 706 CURVE",
"395 550 LINE",
"498 700 LINE",
"514 722 OFFCURVE",
"512 762 OFFCURVE",
"451 762 CURVE",
"451 790 LINE",
"687 790 LINE",
"687 762 LINE",
"624 760 OFFCURVE",
"591 728 OFFCURVE",
"519 630 CURVE SMOOTH",
"425 501 LINE",
"598 252 LINE SMOOTH",
"640 192 OFFCURVE",
"648 182 OFFCURVE",
"690 142 CURVE",
"699 132 OFFCURVE",
"731 123 OFFCURVE",
"762 122 CURVE",
"762 93 LINE",
"432 93 LINE"
);
}
);
width = 780;
}
);
unicode = 0078;
},
{
glyphname = y;
layers = (
{
anchors = (
{
name = L;
position = "{390, -287}";
},
{
name = R;
position = "{780, 778}";
},
{
name = U;
position = "{419, 854}";
}
);
layerId = "233CC76B-C9AF-4A7F-B493-FFD1BBE88986";
paths = (
{
closed = 1;
nodes = (
"726 760 OFFCURVE",
"705 747 OFFCURVE",
"667 657 CURVE",
"384 -39 LINE",
"331 -170 OFFCURVE",
"236 -245 OFFCURVE",
"148 -245 CURVE SMOOTH",
"88 -245 OFFCURVE",
"45 -206 OFFCURVE",
"45 -157 CURVE SMOOTH",
"45 -117 OFFCURVE",
"72 -89 OFFCURVE",
"123 -89 CURVE SMOOTH",
"155 -89 OFFCURVE",
"218 -116 OFFCURVE",
"229 -116 CURVE SMOOTH",
"261 -116 OFFCURVE",
"298 -88 OFFCURVE",
"335 0 CURVE",
"384 122 LINE",
"133 647 LINE",
"115 683 OFFCURVE",
"84 756 OFFCURVE",
"9 762 CURVE",
"9 790 LINE",
"335 790 LINE",
"335 762 LINE",
"318 762 LINE SMOOTH",
"281 762 OFFCURVE",
"249 744 OFFCURVE",
"249 711 CURVE SMOOTH",
"249 690 OFFCURVE",
"257 665 OFFCURVE",
"275 629 CURVE SMOOTH",
"444 278 LINE",
"600 663 LINE",
"615 691 OFFCURVE",
"621 728 OFFCURVE",
"609 745 CURVE SMOOTH",
"603 754 OFFCURVE",
"596 762 OFFCURVE",
"544 762 CURVE",
"544 790 LINE",
"771 790 LINE",
"771 762 LINE"
);
}
);
width = 780;
}
);
unicode = 0079;
},
{
glyphname = z;
layers = (
{
anchors = (
{
name = H;
position = "{349, 93}";
},
{
name = L;
position = "{349, 17}";
},
{
name = U;
position = "{349, 854}";
}
);
layerId = "233CC76B-C9AF-4A7F-B493-FFD1BBE88986";
paths = (
{
closed = 1;
nodes = (
"455 144 LINE SMOOTH",
"508 144 OFFCURVE",
"543 149 OFFCURVE",
"561 158 CURVE SMOOTH",
"594 174 OFFCURVE",
"614 178 OFFCURVE",
"629 306 CURVE",
"655 306 LINE",
"647 93 LINE",
"31 93 LINE",
"31 122 LINE",
"495 738 LINE",
"265 738 LINE SMOOTH",
"217 738 OFFCURVE",
"186 733 OFFCURVE",
"167 727 CURVE",
"138 714 OFFCURVE",
"116 680 OFFCURVE",
"107 597 CURVE",
"78 597 LINE",
"83 790 LINE",
"667 790 LINE",
"667 762 LINE",
"199 144 LINE"
);
}
);
width = 693;
}
);
unicode = 007A;
},
{
glyphname = braceleft;
layers = (
{
layerId = "233CC76B-C9AF-4A7F-B493-FFD1BBE88986";
paths = (
{
closed = 1;
nodes = (
"804 -332 LINE",
"660 -294 OFFCURVE",
"572 -214 OFFCURVE",
"572 -58 CURVE SMOOTH",
"572 38 OFFCURVE",
"618 130 OFFCURVE",
"618 226 CURVE SMOOTH",
"618 416 OFFCURVE",
"506 536 OFFCURVE",
"334 600 CURVE",
"508 664 OFFCURVE",
"618 774 OFFCURVE",
"618 968 CURVE SMOOTH",
"618 1066 OFFCURVE",
"572 1158 OFFCURVE",
"572 1256 CURVE SMOOTH",
"572 1410 OFFCURVE",
"660 1498 OFFCURVE",
"804 1532 CURVE",
"804 1568 LINE",
"610 1542 OFFCURVE",
"418 1394 OFFCURVE",
"418 1184 CURVE SMOOTH",
"418 1070 OFFCURVE",
"464 962 OFFCURVE",
"464 850 CURVE SMOOTH",
"464 730 OFFCURVE",
"336 638 OFFCURVE",
"226 626 CURVE",
"226 572 LINE",
"342 556 OFFCURVE",
"464 474 OFFCURVE",
"464 346 CURVE SMOOTH",
"464 240 OFFCURVE",
"418 138 OFFCURVE",
"418 30 CURVE SMOOTH",
"418 -178 OFFCURVE",
"604 -348 OFFCURVE",
"804 -368 CURVE"
);
}
);
width = 1018;
}
);
unicode = 007B;
},
{
glyphname = bar;
layers = (
{
layerId = "233CC76B-C9AF-4A7F-B493-FFD1BBE88986";
paths = (
{
closed = 1;
nodes = (
"289 1287 LINE",
"213 1287 LINE",
"213 -294 LINE",
"289 -294 LINE"
);
}
);
width = 502;
}
);
unicode = 007C;
},
{
glyphname = braceright;
layers = (
{
layerId = "233CC76B-C9AF-4A7F-B493-FFD1BBE88986";
paths = (
{
closed = 1;
nodes = (
"790 626 LINE",
"678 640 OFFCURVE",
"552 726 OFFCURVE",
"552 850 CURVE SMOOTH",
"552 962 OFFCURVE",
"600 1072 OFFCURVE",
"600 1184 CURVE SMOOTH",
"600 1390 OFFCURVE",
"404 1546 OFFCURVE",
"212 1568 CURVE",
"212 1532 LINE",
"358 1494 OFFCURVE",
"444 1412 OFFCURVE",
"444 1256 CURVE SMOOTH",
"444 1158 OFFCURVE",
"398 1066 OFFCURVE",
"398 968 CURVE SMOOTH",
"398 778 OFFCURVE",
"514 664 OFFCURVE",
"684 600 CURVE",
"510 534 OFFCURVE",
"398 420 OFFCURVE",
"398 226 CURVE SMOOTH",
"398 130 OFFCURVE",
"444 38 OFFCURVE",
"444 -58 CURVE SMOOTH",
"444 -212 OFFCURVE",
"356 -298 OFFCURVE",
"212 -332 CURVE",
"212 -368 LINE",
"410 -342 OFFCURVE",
"600 -180 OFFCURVE",
"600 30 CURVE SMOOTH",
"600 136 OFFCURVE",
"552 238 OFFCURVE",
"552 346 CURVE SMOOTH",
"552 470 OFFCURVE",
"674 560 OFFCURVE",
"790 572 CURVE"
);
}
);
width = 1018;
}
);
unicode = 007D;
},
{
glyphname = asciitilde;
layers = (
{
layerId = "233CC76B-C9AF-4A7F-B493-FFD1BBE88986";
paths = (
{
closed = 1;
nodes = (
"775 630 LINE",
"746 570 OFFCURVE",
"684 495 OFFCURVE",
"613 495 CURVE SMOOTH",
"528 495 OFFCURVE",
"354 610 OFFCURVE",
"246 610 CURVE SMOOTH",
"135 610 OFFCURVE",
"78 518 OFFCURVE",
"30 431 CURVE",
"72 375 LINE",
"110 438 OFFCURVE",
"154 519 OFFCURVE",
"239 519 CURVE SMOOTH",
"348 519 OFFCURVE",
"485 407 OFFCURVE",
"604 407 CURVE SMOOTH",
"705 407 OFFCURVE",
"775 491 OFFCURVE",
"819 572 CURVE"
);
}
);
width = 849;
}
);
unicode = 007E;
},
{
glyphname = exclamdown;
layers = (
{
layerId = "233CC76B-C9AF-4A7F-B493-FFD1BBE88986";
paths = (
{
closed = 1;
nodes = (
"345 717 OFFCURVE",
"294 743 OFFCURVE",
"260 743 CURVE SMOOTH",
"215 743 OFFCURVE",
"176 704 OFFCURVE",
"176 655 CURVE SMOOTH",
"176 604 OFFCURVE",
"221 573 OFFCURVE",
"260 573 CURVE SMOOTH",
"299 573 OFFCURVE",
"345 601 OFFCURVE",
"345 655 CURVE SMOOTH"
);
},
{
closed = 1;
nodes = (
"346 -218 OFFCURVE",
"345 -207 OFFCURVE",
"341 -170 CURVE SMOOTH",
"275 447 LINE",
"244 447 LINE",
"176 -170 LINE SMOOTH",
"173 -192 OFFCURVE",
"173 -210 OFFCURVE",
"173 -222 CURVE SMOOTH",
"173 -306 OFFCURVE",
"221 -336 OFFCURVE",
"258 -336 CURVE SMOOTH",
"307 -336 OFFCURVE",
"346 -298 OFFCURVE",
"346 -229 CURVE SMOOTH"
);
}
);
width = 519;
}
);
unicode = 00A1;
},
{
glyphname = cent;
layers = (
{
layerId = "233CC76B-C9AF-4A7F-B493-FFD1BBE88986";
paths = (
{
closed = 1;
nodes = (
"658 97 OFFCURVE",
"529 -23 OFFCURVE",
"393 -23 CURVE SMOOTH",
"355 -23 OFFCURVE",
"320 -14 OFFCURVE",
"286 0 CURVE",
"270 -47 OFFCURVE",
"256 -88 OFFCURVE",
"235 -145 CURVE SMOOTH",
"183 -288 LINE",
"129 -288 LINE",
"244 24 LINE",
"156 85 OFFCURVE",
"96 197 OFFCURVE",
"96 348 CURVE SMOOTH",
"96 569 OFFCURVE",
"247 717 OFFCURVE",
"429 717 CURVE SMOOTH",
"451 717 OFFCURVE",
"472 716 OFFCURVE",
"492 711 CURVE",
"600 1009 LINE",
"654 1009 LINE",
"541 697 LINE",
"562 689 OFFCURVE",
"581 677 OFFCURVE",
"598 663 CURVE",
"643 628 OFFCURVE",
"666 591 OFFCURVE",
"666 551 CURVE SMOOTH",
"666 515 OFFCURVE",
"643 486 OFFCURVE",
"594 486 CURVE SMOOTH",
"564 486 OFFCURVE",
"516 492 OFFCURVE",
"510 575 CURVE",
"510 585 OFFCURVE",
"508 593 OFFCURVE",
"505 600 CURVE",
"336 133 LINE",
"368 113 OFFCURVE",
"404 99 OFFCURVE",
"447 99 CURVE SMOOTH",
"532 99 OFFCURVE",
"602 132 OFFCURVE",
"663 276 CURVE",
"684 265 LINE"
);
},
{
closed = 1;
nodes = (
"221 320 OFFCURVE",
"246 231 OFFCURVE",
"295 173 CURVE",
"296 173 OFFCURVE",
"322 240 OFFCURVE",
"352 324 CURVE",
"416 499 LINE SMOOTH",
"437 557 OFFCURVE",
"451 597 OFFCURVE",
"470 651 CURVE",
"452 661 OFFCURVE",
"433 667 OFFCURVE",
"403 667 CURVE SMOOTH",
"288 667 OFFCURVE",
"221 558 OFFCURVE",
"221 414 CURVE SMOOTH"
);
}
);
width = 780;
}
);
unicode = 00A2;
},
{
glyphname = sterling;
layers = (
{
layerId = "233CC76B-C9AF-4A7F-B493-FFD1BBE88986";
paths = (
{
closed = 1;
nodes = (
"840 330 LINE",
"816 250 OFFCURVE",
"764 208 OFFCURVE",
"680 208 CURVE SMOOTH",
"602 208 OFFCURVE",
"506 246 OFFCURVE",
"432 270 CURVE",
"468 376 OFFCURVE",
"480 460 OFFCURVE",
"478 572 CURVE",
"478 594 LINE",
"674 594 LINE",
"674 666 LINE",
"478 666 LINE",
"472 740 OFFCURVE",
"462 814 OFFCURVE",
"462 890 CURVE SMOOTH",
"462 984 OFFCURVE",
"480 1104 OFFCURVE",
"600 1104 CURVE SMOOTH",
"750 1104 OFFCURVE",
"644 928 OFFCURVE",
"750 928 CURVE SMOOTH",
"784 928 OFFCURVE",
"810 958 OFFCURVE",
"810 990 CURVE SMOOTH",
"810 1092 OFFCURVE",
"708 1146 OFFCURVE",
"618 1146 CURVE SMOOTH",
"440 1146 OFFCURVE",
"336 982 OFFCURVE",
"336 818 CURVE SMOOTH",
"336 768 OFFCURVE",
"342 716 OFFCURVE",
"346 666 CURVE",
"200 666 LINE",
"200 594 LINE",
"346 594 LINE",
"354 506 OFFCURVE",
"362 418 OFFCURVE",
"362 330 CURVE SMOOTH",
"362 314 OFFCURVE",
"362 300 OFFCURVE",
"360 286 CURVE",
"340 290 OFFCURVE",
"316 292 OFFCURVE",
"296 292 CURVE SMOOTH",
"228 292 OFFCURVE",
"170 244 OFFCURVE",
"170 174 CURVE SMOOTH",
"170 122 OFFCURVE",
"204 74 OFFCURVE",
"260 74 CURVE SMOOTH",
"326 74 OFFCURVE",
"376 142 OFFCURVE",
"402 196 CURVE",
"474 142 OFFCURVE",
"554 74 OFFCURVE",
"648 74 CURVE SMOOTH",
"782 74 OFFCURVE",
"852 208 OFFCURVE",
"868 324 CURVE"
);
},
{
closed = 1;
nodes = (
"342 182 OFFCURVE",
"316 120 OFFCURVE",
"264 120 CURVE SMOOTH",
"234 120 OFFCURVE",
"214 150 OFFCURVE",
"214 178 CURVE SMOOTH",
"214 218 OFFCURVE",
"246 246 OFFCURVE",
"286 246 CURVE SMOOTH",
"308 246 OFFCURVE",
"332 236 OFFCURVE",
"352 224 CURVE"
);
}
);
width = 902;
}
);
unicode = 00A3;
},
{
glyphname = currency;
layers = (
{
layerId = "233CC76B-C9AF-4A7F-B493-FFD1BBE88986";
paths = (
{
closed = 1;
nodes = (
"680 766 LINE",
"728 824 OFFCURVE",
"750 894 OFFCURVE",
"750 968 CURVE SMOOTH",
"750 1042 OFFCURVE",
"726 1116 OFFCURVE",
"680 1174 CURVE",
"842 1336 LINE",
"786 1392 LINE",
"620 1226 LINE",
"564 1272 OFFCURVE",
"498 1296 OFFCURVE",
"424 1296 CURVE SMOOTH",
"350 1296 OFFCURVE",
"278 1274 OFFCURVE",
"220 1228 CURVE",
"56 1392 LINE",
"0 1336 LINE",
"164 1172 LINE",
"112 1114 OFFCURVE",
"92 1044 OFFCURVE",
"92 966 CURVE SMOOTH",
"92 894 OFFCURVE",
"116 822 OFFCURVE",
"162 766 CURVE",
"0 606 LINE",
"56 550 LINE",
"218 712 LINE",
"278 660 OFFCURVE",
"346 638 OFFCURVE",
"424 638 CURVE SMOOTH",
"498 638 OFFCURVE",
"568 664 OFFCURVE",
"624 712 CURVE",
"786 550 LINE",
"842 606 LINE"
);
},
{
closed = 1;
nodes = (
"660 838 OFFCURVE",
"556 726 OFFCURVE",
"424 726 CURVE SMOOTH",
"290 726 OFFCURVE",
"180 832 OFFCURVE",
"180 966 CURVE SMOOTH",
"180 1102 OFFCURVE",
"288 1208 OFFCURVE",
"424 1208 CURVE SMOOTH",
"554 1208 OFFCURVE",
"660 1096 OFFCURVE",
"660 968 CURVE SMOOTH"
);
}
);
width = 1102;
}
);
unicode = 00A4;
},
{
glyphname = yen;
layers = (
{
layerId = "233CC76B-C9AF-4A7F-B493-FFD1BBE88986";
paths = (
{
closed = 1;
nodes = (
"765 323 LINE",
"455 323 LINE",
"455 447 LINE",
"460 460 LINE",
"765 460 LINE",
"765 516 LINE",
"482 516 LINE",
"648 887 LINE SMOOTH",
"670 936 OFFCURVE",
"693 969 OFFCURVE",
"712 985 CURVE SMOOTH",
"728 999 OFFCURVE",
"749 1005 OFFCURVE",
"780 1005 CURVE",
"780 1032 LINE",
"516 1032 LINE",
"516 1005 LINE",
"546 1003 OFFCURVE",
"567 1001 OFFCURVE",
"585 989 CURVE SMOOTH",
"613 969 OFFCURVE",
"595 925 OFFCURVE",
"585 900 CURVE SMOOTH",
"423 516 LINE",
"261 912 LINE",
"252 936 OFFCURVE",
"229 963 OFFCURVE",
"263 985 CURVE SMOOTH",
"285 999 OFFCURVE",
"303 1002 OFFCURVE",
"339 1005 CURVE",
"339 1032 LINE",
"2 1032 LINE",
"2 1005 LINE",
"30 1002 OFFCURVE",
"53 996 OFFCURVE",
"70 981 CURVE",
"90 967 OFFCURVE",
"107 938 OFFCURVE",
"126 894 CURVE SMOOTH",
"288 516 LINE",
"14 516 LINE",
"14 460 LINE",
"314 460 LINE",
"323 434 LINE",
"323 323 LINE",
"14 323 LINE",
"14 269 LINE",
"323 269 LINE",
"323 186 LINE SMOOTH",
"323 133 OFFCURVE",
"325 81 OFFCURVE",
"309 63 CURVE SMOOTH",
"286 37 OFFCURVE",
"252 31 OFFCURVE",
"218 31 CURVE SMOOTH",
"192 31 LINE",
"192 0 LINE",
"585 0 LINE",
"585 31 LINE",
"554 31 LINE SMOOTH",
"530 31 OFFCURVE",
"492 40 OFFCURVE",
"474 62 CURVE SMOOTH",
"455 84 OFFCURVE",
"455 129 OFFCURVE",
"455 186 CURVE SMOOTH",
"455 269 LINE",
"765 269 LINE"
);
}
);
width = 780;
}
);
unicode = 00A5;
},
{
glyphname = brokenbar;
layers = (
{
layerId = "233CC76B-C9AF-4A7F-B493-FFD1BBE88986";
paths = (
{
closed = 1;
nodes = (
"80 1368 LINE",
"0 1368 LINE",
"0 744 LINE",
"80 744 LINE"
);
},
{
closed = 1;
nodes = (
"80 536 LINE",
"0 536 LINE",
"0 -86 LINE",
"80 -86 LINE"
);
}
);
width = 622;
}
);
unicode = 00A6;
},
{
glyphname = section;
layers = (
{
layerId = "233CC76B-C9AF-4A7F-B493-FFD1BBE88986";
paths = (
{
closed = 1;
nodes = (
"846 856 OFFCURVE",
"446 930 OFFCURVE",
"446 1136 CURVE SMOOTH",
"446 1214 OFFCURVE",
"502 1274 OFFCURVE",
"582 1274 CURVE SMOOTH",
"634 1274 OFFCURVE",
"668 1254 OFFCURVE",
"668 1198 CURVE SMOOTH",
"668 1174 OFFCURVE",
"658 1148 OFFCURVE",
"658 1122 CURVE SMOOTH",
"658 1088 OFFCURVE",
"688 1062 OFFCURVE",
"720 1062 CURVE SMOOTH",
"764 1062 OFFCURVE",
"782 1090 OFFCURVE",
"782 1132 CURVE SMOOTH",
"782 1240 OFFCURVE",
"682 1308 OFFCURVE",
"582 1308 CURVE SMOOTH",
"458 1308 OFFCURVE",
"358 1206 OFFCURVE",
"358 1084 CURVE SMOOTH",
"358 1008 OFFCURVE",
"410 936 OFFCURVE",
"456 880 CURVE",
"356 818 OFFCURVE",
"282 734 OFFCURVE",
"282 612 CURVE SMOOTH",
"282 348 OFFCURVE",
"686 260 OFFCURVE",
"686 58 CURVE SMOOTH",
"686 -8 OFFCURVE",
"612 -72 OFFCURVE",
"548 -72 CURVE SMOOTH",
"514 -72 OFFCURVE",
"452 -52 OFFCURVE",
"452 -12 CURVE SMOOTH",
"452 16 OFFCURVE",
"466 46 OFFCURVE",
"466 76 CURVE SMOOTH",
"466 112 OFFCURVE",
"444 144 OFFCURVE",
"406 144 CURVE SMOOTH",
"366 144 OFFCURVE",
"346 110 OFFCURVE",
"346 74 CURVE SMOOTH",
"346 -34 OFFCURVE",
"440 -104 OFFCURVE",
"542 -104 CURVE SMOOTH",
"670 -104 OFFCURVE",
"766 -4 OFFCURVE",
"766 122 CURVE SMOOTH",
"766 198 OFFCURVE",
"722 270 OFFCURVE",
"672 324 CURVE",
"772 386 OFFCURVE",
"846 468 OFFCURVE",
"846 592 CURVE SMOOTH"
);
},
{
closed = 1;
nodes = (
"764 444 OFFCURVE",
"706 386 OFFCURVE",
"644 346 CURVE",
"558 452 OFFCURVE",
"360 512 OFFCURVE",
"360 678 CURVE SMOOTH",
"360 760 OFFCURVE",
"414 816 OFFCURVE",
"482 854 CURVE",
"574 776 OFFCURVE",
"764 656 OFFCURVE",
"764 522 CURVE SMOOTH"
);
}
);
width = 990;
}
);
unicode = 00A7;
},
{
glyphname = dieresis;
layers = (
{
anchors = (
{
name = U;
position = "{233, 1046}";
}
);
layerId = "233CC76B-C9AF-4A7F-B493-FFD1BBE88986";
paths = (
{
closed = 1;
nodes = (
"466 976 OFFCURVE",
"431 1012 OFFCURVE",
"388 1012 CURVE SMOOTH",
"349 1012 OFFCURVE",
"310 973 OFFCURVE",
"310 935 CURVE SMOOTH",
"310 894 OFFCURVE",
"346 856 OFFCURVE",
"388 856 CURVE SMOOTH",
"431 856 OFFCURVE",
"466 893 OFFCURVE",
"466 935 CURVE SMOOTH"
);
},
{
closed = 1;
nodes = (
"154 976 OFFCURVE",
"119 1012 OFFCURVE",
"76 1012 CURVE SMOOTH",
"37 1012 OFFCURVE",
"0 973 OFFCURVE",
"0 935 CURVE SMOOTH",
"0 894 OFFCURVE",
"36 856 OFFCURVE",
"76 856 CURVE SMOOTH",
"119 856 OFFCURVE",
"154 893 OFFCURVE",
"154 935 CURVE SMOOTH"
);
}
);
width = 466;
}
);
unicode = 00A8;
},
{
glyphname = copyright;
layers = (
{
layerId = "233CC76B-C9AF-4A7F-B493-FFD1BBE88986";
paths = (
{
closed = 1;
nodes = (
"1134 819 OFFCURVE",
"897 1056 OFFCURVE",
"593 1056 CURVE SMOOTH",
"325 1056 OFFCURVE",
"53 853 OFFCURVE",
"53 516 CURVE SMOOTH",
"53 207 OFFCURVE",
"295 -24 OFFCURVE",
"593 -24 CURVE SMOOTH",
"891 -24 OFFCURVE",
"1134 212 OFFCURVE",
"1134 516 CURVE SMOOTH"
);
},
{
closed = 1;
nodes = (
"1086 229 OFFCURVE",
"855 24 OFFCURVE",
"593 24 CURVE SMOOTH",
"326 24 OFFCURVE",
"100 232 OFFCURVE",
"100 516 CURVE SMOOTH",
"100 820 OFFCURVE",
"351 1009 OFFCURVE",
"593 1009 CURVE SMOOTH",
"864 1009 OFFCURVE",
"1086 793 OFFCURVE",
"1086 516 CURVE SMOOTH"
);
},
{
closed = 1;
nodes = (
"860 343 LINE",
"801 261 OFFCURVE",
"723 221 OFFCURVE",
"622 221 CURVE SMOOTH",
"471 221 OFFCURVE",
"369 322 OFFCURVE",
"369 534 CURVE SMOOTH",
"369 712 OFFCURVE",
"460 829 OFFCURVE",
"615 829 CURVE SMOOTH",
"775 829 OFFCURVE",
"826 710 OFFCURVE",
"846 651 CURVE",
"874 651 LINE",
"860 864 LINE",
"829 864 LINE",
"823 850 OFFCURVE",
"820 829 OFFCURVE",
"791 829 CURVE SMOOTH",
"762 829 OFFCURVE",
"720 864 OFFCURVE",
"622 864 CURVE SMOOTH",
"426 864 OFFCURVE",
"244 737 OFFCURVE",
"244 511 CURVE SMOOTH",
"244 310 OFFCURVE",
"405 173 OFFCURVE",
"595 173 CURVE SMOOTH",
"723 173 OFFCURVE",
"817 226 OFFCURVE",
"887 326 CURVE"
);
}
);
width = 1185;
}
);
unicode = 00A9;
},
{
glyphname = ordfeminine;
layers = (
{
layerId = "233CC76B-C9AF-4A7F-B493-FFD1BBE88986";
paths = (
{
closed = 1;
nodes = (
"495 700 LINE",
"457 666 OFFCURVE",
"448 663 OFFCURVE",
"437 663 CURVE SMOOTH",
"421 663 OFFCURVE",
"414 669 OFFCURVE",
"412 686 CURVE",
"409 694 OFFCURVE",
"409 720 OFFCURVE",
"409 759 CURVE SMOOTH",
"409 902 LINE SMOOTH",
"409 989 OFFCURVE",
"387 1043 OFFCURVE",
"242 1043 CURVE SMOOTH",
"146 1043 OFFCURVE",
"59 1005 OFFCURVE",
"59 939 CURVE SMOOTH",
"59 912 OFFCURVE",
"75 896 OFFCURVE",
"105 896 CURVE SMOOTH",
"132 896 OFFCURVE",
"151 912 OFFCURVE",
"150 939 CURVE SMOOTH",
"148 966 LINE",
"151 995 OFFCURVE",
"179 1017 OFFCURVE",
"224 1017 CURVE SMOOTH",
"288 1017 OFFCURVE",
"318 989 OFFCURVE",
"318 907 CURVE SMOOTH",
"318 891 LINE",
"80 822 OFFCURVE",
"39 774 OFFCURVE",
"39 712 CURVE SMOOTH",
"39 648 OFFCURVE",
"88 606 OFFCURVE",
"159 606 CURVE SMOOTH",
"212 606 OFFCURVE",
"229 616 OFFCURVE",
"318 673 CURVE",
"318 621 OFFCURVE",
"345 606 OFFCURVE",
"377 606 CURVE SMOOTH",
"416 606 OFFCURVE",
"455 629 OFFCURVE",
"495 673 CURVE"
);
},
{
closed = 1;
nodes = (
"486 531 LINE",
"45 531 LINE",
"45 498 LINE",
"486 498 LINE"
);
},
{
closed = 1;
nodes = (
"273 673 OFFCURVE",
"236 655 OFFCURVE",
"209 657 CURVE",
"166 658 OFFCURVE",
"132 692 OFFCURVE",
"132 733 CURVE SMOOTH",
"132 774 OFFCURVE",
"148 808 OFFCURVE",
"318 864 CURVE",
"318 704 LINE"
);
}
);
width = 497;
}
);
unicode = 00AA;
},
{
glyphname = guillemotleft;
layers = (
{
layerId = "233CC76B-C9AF-4A7F-B493-FFD1BBE88986";
paths = (
{
closed = 1;
nodes = (
"544 354 LINE",
"731 711 LINE",
"687 711 LINE",
"387 354 LINE",
"687 -6 LINE",
"731 -6 LINE"
);
},
{
closed = 1;
nodes = (
"199 354 LINE",
"385 711 LINE",
"343 711 LINE",
"49 354 LINE",
"343 -6 LINE",
"385 -6 LINE"
);
}
);
width = 780;
}
);
unicode = 00AB;
},
{
glyphname = logicalnot;
layers = (
{
layerId = "233CC76B-C9AF-4A7F-B493-FFD1BBE88986";
paths = (
{
closed = 1;
nodes = (
"870 630 LINE",
"60 630 LINE",
"60 540 LINE",
"780 540 LINE",
"780 283 LINE",
"870 283 LINE"
);
}
);
width = 930;
}
);
unicode = 00AC;
},
{
glyphname = uni00AD;
layers = (
{
anchors = (
{
name = U;
position = "{260, 761}";
}
);
layerId = "233CC76B-C9AF-4A7F-B493-FFD1BBE88986";
paths = (
{
closed = 1;
nodes = (
"457 406 LINE",
"63 406 LINE",
"63 291 LINE",
"457 291 LINE"
);
}
);
width = 519;
}
);
unicode = 00AD;
},
{
glyphname = registered;
layers = (
{
layerId = "233CC76B-C9AF-4A7F-B493-FFD1BBE88986";
paths = (
{
closed = 1;
nodes = (
"1134 819 OFFCURVE",
"897 1056 OFFCURVE",
"593 1056 CURVE SMOOTH",
"325 1056 OFFCURVE",
"53 853 OFFCURVE",
"53 516 CURVE SMOOTH",
"53 207 OFFCURVE",
"295 -24 OFFCURVE",
"593 -24 CURVE SMOOTH",
"891 -24 OFFCURVE",
"1134 212 OFFCURVE",
"1134 516 CURVE SMOOTH"
);
},
{
closed = 1;
nodes = (
"1086 229 OFFCURVE",
"855 24 OFFCURVE",
"593 24 CURVE SMOOTH",
"326 24 OFFCURVE",
"100 232 OFFCURVE",
"100 516 CURVE SMOOTH",
"100 820 OFFCURVE",
"351 1009 OFFCURVE",
"593 1009 CURVE SMOOTH",
"864 1009 OFFCURVE",
"1086 793 OFFCURVE",
"1086 516 CURVE SMOOTH"
);
},
{
closed = 1;
nodes = (
"897 216 LINE",
"879 218 OFFCURVE",
"866 221 OFFCURVE",
"856 226 CURVE",
"840 237 OFFCURVE",
"825 252 OFFCURVE",
"804 282 CURVE SMOOTH",
"647 508 LINE",
"707 524 OFFCURVE",
"814 564 OFFCURVE",
"814 678 CURVE SMOOTH",
"814 771 OFFCURVE",
"733 849 OFFCURVE",
"588 849 CURVE SMOOTH",
"294 849 LINE",
"294 820 LINE",
"317 820 OFFCURVE",
"333 817 OFFCURVE",
"342 811 CURVE SMOOTH",
"352 804 OFFCURVE",
"358 794 OFFCURVE",
"361 785 CURVE SMOOTH",
"363 779 OFFCURVE",
"363 756 OFFCURVE",
"363 717 CURVE SMOOTH",
"363 320 LINE SMOOTH",
"363 281 OFFCURVE",
"363 250 OFFCURVE",
"351 236 CURVE SMOOTH",
"336 216 OFFCURVE",
"309 216 OFFCURVE",
"285 216 CURVE",
"285 190 LINE",
"564 190 LINE",
"564 216 LINE",
"531 216 OFFCURVE",
"507 219 OFFCURVE",
"497 226 CURVE SMOOTH",
"486 234 OFFCURVE",
"474 246 OFFCURVE",
"474 263 CURVE SMOOTH",
"474 498 LINE",
"533 498 LINE",
"756 190 LINE",
"897 190 LINE"
);
},
{
closed = 1;
nodes = (
"693 534 OFFCURVE",
"540 531 OFFCURVE",
"474 531 CURVE",
"474 804 LINE",
"498 811 OFFCURVE",
"519 814 OFFCURVE",
"538 814 CURVE SMOOTH",
"634 814 OFFCURVE",
"693 746 OFFCURVE",
"693 669 CURVE SMOOTH"
);
}
);
width = 1185;
}
);
unicode = 00AE;
},
{
glyphname = macron;
layers = (
{
layerId = "233CC76B-C9AF-4A7F-B493-FFD1BBE88986";
paths = (
{
closed = 1;
nodes = (
"489 941 LINE",
"0 941 LINE",
"0 856 LINE",
"489 856 LINE"
);
}
);
width = 489;
}
);
unicode = 00AF;
},
{
glyphname = degree;
layers = (
{
layerId = "233CC76B-C9AF-4A7F-B493-FFD1BBE88986";
paths = (
{
closed = 1;
nodes = (
"405 1006 OFFCURVE",
"332 1081 OFFCURVE",
"240 1081 CURVE SMOOTH",
"148 1081 OFFCURVE",
"75 1006 OFFCURVE",
"75 915 CURVE SMOOTH",
"75 823 OFFCURVE",
"148 750 OFFCURVE",
"240 750 CURVE SMOOTH",
"332 750 OFFCURVE",
"405 823 OFFCURVE",
"405 915 CURVE SMOOTH"
);
},
{
closed = 1;
nodes = (
"345 856 OFFCURVE",
"299 810 OFFCURVE",
"240 810 CURVE SMOOTH",
"182 810 OFFCURVE",
"135 856 OFFCURVE",
"135 915 CURVE SMOOTH",
"135 973 OFFCURVE",
"182 1021 OFFCURVE",
"240 1021 CURVE SMOOTH",
"299 1021 OFFCURVE",
"345 973 OFFCURVE",
"345 915 CURVE SMOOTH"
);
}
);
width = 479;
}
);
unicode = 00B0;
},
{
glyphname = plusminus;
layers = (
{
layerId = "233CC76B-C9AF-4A7F-B493-FFD1BBE88986";
paths = (
{
closed = 1;
nodes = (
"1199 630 LINE",
"796 630 LINE",
"796 900 LINE",
"704 900 LINE",
"704 630 LINE",
"301 630 LINE",
"301 537 LINE",
"704 537 LINE",
"704 267 LINE",
"796 267 LINE",
"796 537 LINE",
"1199 537 LINE"
);
},
{
closed = 1;
nodes = (
"1199 93 LINE",
"301 93 LINE",
"301 0 LINE",
"1199 0 LINE"
);
}
);
width = 1500;
}
);
unicode = 00B1;
},
{
glyphname = twosuperior;
layers = (
{
anchors = (
{
name = L;
position = "{269, 571}";
},
{
name = U;
position = "{269, 1237}";
}
);
layerId = "233CC76B-C9AF-4A7F-B493-FFD1BBE88986";
paths = (
{
closed = 1;
nodes = (
"495 731 LINE",
"460 692 OFFCURVE",
"448 683 OFFCURVE",
"336 683 CURVE SMOOTH",
"142 683 LINE",
"164 700 OFFCURVE",
"221 750 OFFCURVE",
"310 833 CURVE",
"372 887 OFFCURVE",
"470 985 OFFCURVE",
"470 1083 CURVE SMOOTH",
"470 1185 OFFCURVE",
"363 1247 OFFCURVE",
"256 1247 CURVE SMOOTH",
"93 1247 OFFCURVE",
"56 1128 OFFCURVE",
"46 1071 CURVE",
"66 1071 LINE",
"80 1105 OFFCURVE",
"125 1177 OFFCURVE",
"228 1177 CURVE SMOOTH",
"275 1177 OFFCURVE",
"375 1148 OFFCURVE",
"375 1041 CURVE SMOOTH",
"375 990 OFFCURVE",
"348 933 OFFCURVE",
"298 871 CURVE",
"244 808 OFFCURVE",
"151 729 OFFCURVE",
"24 630 CURVE",
"24 613 LINE",
"462 613 LINE",
"514 731 LINE"
);
}
);
width = 561;
}
);
unicode = 00B2;
},
{
glyphname = threesuperior;
layers = (
{
anchors = (
{
name = L;
position = "{257, 571}";
},
{
name = U;
position = "{257, 1237}";
}
);
layerId = "233CC76B-C9AF-4A7F-B493-FFD1BBE88986";
paths = (
{
closed = 1;
nodes = (
"468 923 OFFCURVE",
"378 966 OFFCURVE",
"330 981 CURVE",
"398 1029 OFFCURVE",
"431 1075 OFFCURVE",
"431 1120 CURVE SMOOTH",
"431 1152 OFFCURVE",
"402 1247 OFFCURVE",
"258 1247 CURVE SMOOTH",
"123 1247 OFFCURVE",
"78 1154 OFFCURVE",
"57 1115 CURVE",
"75 1106 LINE",
"113 1158 OFFCURVE",
"161 1183 OFFCURVE",
"218 1183 CURVE SMOOTH",
"267 1183 OFFCURVE",
"341 1159 OFFCURVE",
"341 1079 CURVE SMOOTH",
"341 964 OFFCURVE",
"198 938 OFFCURVE",
"170 935 CURVE",
"170 921 LINE",
"170 921 OFFCURVE",
"387 927 OFFCURVE",
"387 763 CURVE SMOOTH",
"387 690 OFFCURVE",
"314 642 OFFCURVE",
"247 642 CURVE SMOOTH",
"173 642 OFFCURVE",
"145 684 OFFCURVE",
"90 684 CURVE SMOOTH",
"66 684 OFFCURVE",
"46 670 OFFCURVE",
"46 652 CURVE SMOOTH",
"46 638 OFFCURVE",
"51 603 OFFCURVE",
"174 603 CURVE SMOOTH",
"355 603 OFFCURVE",
"468 692 OFFCURVE",
"468 819 CURVE SMOOTH"
);
}
);
width = 561;
}
);
unicode = 00B3;
},
{
glyphname = acute;
layers = (
{
anchors = (
{
name = U;
position = "{358, 1046}";
}
);
layerId = "233CC76B-C9AF-4A7F-B493-FFD1BBE88986";
paths = (
{
closed = 1;
nodes = (
"534 1033 OFFCURVE",
"510 1062 OFFCURVE",
"494 1062 CURVE SMOOTH",
"460 1062 OFFCURVE",
"426 1038 OFFCURVE",
"400 1011 CURVE SMOOTH",
"183 793 LINE",
"246 793 LINE",
"471 936 LINE SMOOTH",
"504 957 OFFCURVE",
"534 982 OFFCURVE",
"534 1012 CURVE SMOOTH"
);
}
);
width = 534;
}
);
unicode = 00B4;
},
{
glyphname = mu;
layers = (
{
layerId = "233CC76B-C9AF-4A7F-B493-FFD1BBE88986";
paths = (
{
closed = 1;
nodes = (
"794 158 LINE",
"780 84 OFFCURVE",
"763 63 OFFCURVE",
"731 63 CURVE SMOOTH",
"704 63 OFFCURVE",
"681 66 OFFCURVE",
"681 201 CURVE SMOOTH",
"681 696 LINE",
"554 696 LINE",
"554 174 LINE",
"494 107 OFFCURVE",
"434 72 OFFCURVE",
"375 72 CURVE SMOOTH",
"326 72 OFFCURVE",
"292 103 OFFCURVE",
"281 142 CURVE",
"272 167 OFFCURVE",
"267 216 OFFCURVE",
"267 291 CURVE SMOOTH",
"267 696 LINE",
"143 696 LINE",
"143 146 LINE SMOOTH",
"143 -143 OFFCURVE",
"94 -161 OFFCURVE",
"94 -255 CURVE SMOOTH",
"94 -303 OFFCURVE",
"126 -338 OFFCURVE",
"161 -338 CURVE SMOOTH",
"198 -338 OFFCURVE",
"232 -302 OFFCURVE",
"232 -252 CURVE SMOOTH",
"232 -190 OFFCURVE",
"196 -88 OFFCURVE",
"196 8 CURVE SMOOTH",
"196 43 LINE",
"234 -20 OFFCURVE",
"292 -23 OFFCURVE",
"315 -23 CURVE SMOOTH",
"395 -23 OFFCURVE",
"468 24 OFFCURVE",
"554 123 CURVE",
"568 10 OFFCURVE",
"613 -23 OFFCURVE",
"673 -23 CURVE SMOOTH",
"751 -23 OFFCURVE",
"816 29 OFFCURVE",
"825 158 CURVE"
);
}
);
width = 884;
}
);
unicode = 00B5;
},
{
glyphname = paragraph;
layers = (
{
layerId = "233CC76B-C9AF-4A7F-B493-FFD1BBE88986";
paths = (
{
closed = 1;
nodes = (
"748 1314 LINE",
"356 1314 LINE SMOOTH",
"164 1314 OFFCURVE",
"0 1230 OFFCURVE",
"0 1018 CURVE SMOOTH",
"0 790 OFFCURVE",
"182 724 OFFCURVE",
"380 720 CURVE",
"380 -106 LINE",
"438 -106 LINE",
"438 1272 LINE",
"584 1272 LINE",
"584 -106 LINE",
"642 -106 LINE",
"642 1272 LINE",
"748 1272 LINE"
);
}
);
width = 1018;
}
);
unicode = 00B6;
},
{
glyphname = periodcentered;
layers = (
{
layerId = "233CC76B-C9AF-4A7F-B493-FFD1BBE88986";
paths = (
{
closed = 1;
nodes = (
"229 559 OFFCURVE",
"190 598 OFFCURVE",
"142 598 CURVE SMOOTH",
"91 598 OFFCURVE",
"53 559 OFFCURVE",
"53 510 CURVE SMOOTH",
"53 460 OFFCURVE",
"91 421 OFFCURVE",
"142 421 CURVE SMOOTH",
"190 421 OFFCURVE",
"229 460 OFFCURVE",
"229 510 CURVE SMOOTH"
);
}
);
width = 282;
}
);
unicode = 00B7;
},
{
glyphname = cedilla;
layers = (
{
anchors = (
{
name = L;
position = "{163, -381}";
}
);
layerId = "233CC76B-C9AF-4A7F-B493-FFD1BBE88986";
paths = (
{
closed = 1;
nodes = (
"326 -130 OFFCURVE",
"263 -97 OFFCURVE",
"196 -97 CURVE SMOOTH",
"180 -97 OFFCURVE",
"165 -99 OFFCURVE",
"151 -102 CURVE",
"199 19 LINE",
"144 19 LINE",
"70 -154 LINE",
"83 -164 LINE",
"103 -158 OFFCURVE",
"129 -154 OFFCURVE",
"153 -156 CURVE SMOOTH",
"187 -159 OFFCURVE",
"210 -180 OFFCURVE",
"210 -216 CURVE SMOOTH",
"210 -260 OFFCURVE",
"177 -282 OFFCURVE",
"119 -282 CURVE SMOOTH",
"93 -282 OFFCURVE",
"49 -273 OFFCURVE",
"23 -263 CURVE",
"0 -312 LINE",
"39 -325 OFFCURVE",
"84 -336 OFFCURVE",
"126 -336 CURVE SMOOTH",
"224 -336 OFFCURVE",
"326 -288 OFFCURVE",
"326 -205 CURVE SMOOTH"
);
}
);
width = 326;
}
);
unicode = 00B8;
},
{
glyphname = onesuperior;
layers = (
{
anchors = (
{
name = L;
position = "{279, 571}";
},
{
name = U;
position = "{279, 1237}";
}
);
layerId = "233CC76B-C9AF-4A7F-B493-FFD1BBE88986";
paths = (
{
closed = 1;
nodes = (
"425 630 LINE",
"332 630 OFFCURVE",
"332 644 OFFCURVE",
"332 723 CURVE SMOOTH",
"332 1247 LINE",
"312 1247 LINE",
"132 1173 LINE",
"139 1158 LINE",
"249 1199 OFFCURVE",
"240 1138 OFFCURVE",
"240 1058 CURVE SMOOTH",
"240 723 LINE SMOOTH",
"240 645 OFFCURVE",
"237 630 OFFCURVE",
"145 630 CURVE",
"145 613 LINE",
"425 613 LINE"
);
}
);
width = 561;
}
);
unicode = 00B9;
},
{
glyphname = ordmasculine;
layers = (
{
layerId = "233CC76B-C9AF-4A7F-B493-FFD1BBE88986";
paths = (
{
closed = 1;
nodes = (
"528 949 OFFCURVE",
"431 1043 OFFCURVE",
"286 1043 CURVE SMOOTH",
"135 1043 OFFCURVE",
"43 931 OFFCURVE",
"43 819 CURVE SMOOTH",
"43 702 OFFCURVE",
"142 600 OFFCURVE",
"282 600 CURVE SMOOTH",
"445 600 OFFCURVE",
"528 723 OFFCURVE",
"528 831 CURVE SMOOTH"
);
},
{
closed = 1;
nodes = (
"521 531 LINE",
"53 531 LINE",
"53 498 LINE",
"521 498 LINE"
);
},
{
closed = 1;
nodes = (
"426 675 OFFCURVE",
"377 633 OFFCURVE",
"304 633 CURVE SMOOTH",
"209 633 OFFCURVE",
"146 737 OFFCURVE",
"146 856 CURVE SMOOTH",
"146 978 OFFCURVE",
"213 1015 OFFCURVE",
"270 1015 CURVE SMOOTH",
"366 1015 OFFCURVE",
"426 919 OFFCURVE",
"426 794 CURVE SMOOTH"
);
}
);
width = 572;
}
);
unicode = 00BA;
},
{
glyphname = guillemotright;
layers = (
{
layerId = "233CC76B-C9AF-4A7F-B493-FFD1BBE88986";
paths = (
{
closed = 1;
nodes = (
"437 711 LINE",
"395 711 LINE",
"581 352 LINE",
"395 -6 LINE",
"437 -6 LINE",
"731 352 LINE"
);
},
{
closed = 1;
nodes = (
"93 711 LINE",
"49 711 LINE",
"236 352 LINE",
"49 -6 LINE",
"93 -6 LINE",
"393 352 LINE"
);
}
);
width = 780;
}
);
unicode = 00BB;
},
{
glyphname = onequarter;
layers = (
{
layerId = "233CC76B-C9AF-4A7F-B493-FFD1BBE88986";
paths = (
{
closed = 1;
nodes = (
"1029 224 LINE",
"946 224 LINE",
"946 633 LINE",
"896 633 LINE",
"604 218 LINE",
"604 161 LINE",
"870 161 LINE",
"870 -6 LINE",
"946 -6 LINE",
"946 161 LINE",
"1029 161 LINE"
);
},
{
closed = 1;
nodes = (
"902 1052 LINE",
"192 -11 LINE",
"267 -11 LINE",
"972 1052 LINE"
);
},
{
closed = 1;
nodes = (
"374 417 LINE",
"294 417 OFFCURVE",
"294 429 OFFCURVE",
"294 510 CURVE SMOOTH",
"294 1038 LINE",
"278 1038 LINE",
"126 964 LINE",
"132 947 LINE",
"226 992 OFFCURVE",
"218 930 OFFCURVE",
"218 846 CURVE SMOOTH",
"218 510 LINE SMOOTH",
"218 429 OFFCURVE",
"215 417 OFFCURVE",
"136 417 CURVE",
"136 400 LINE",
"374 400 LINE"
);
},
{
closed = 1;
nodes = (
"650 224 LINE",
"870 536 LINE",
"870 224 LINE"
);
}
);
width = 1155;
}
);
unicode = 00BC;
},
{
glyphname = onehalf;
layers = (
{
layerId = "233CC76B-C9AF-4A7F-B493-FFD1BBE88986";
paths = (
{
closed = 1;
nodes = (
"1033 114 LINE",
"1005 73 OFFCURVE",
"995 65 OFFCURVE",
"900 65 CURVE SMOOTH",
"737 65 LINE",
"756 81 OFFCURVE",
"803 132 OFFCURVE",
"879 215 CURVE SMOOTH",
"931 272 OFFCURVE",
"1012 371 OFFCURVE",
"1012 468 CURVE SMOOTH",
"1012 572 OFFCURVE",
"923 633 OFFCURVE",
"834 633 CURVE SMOOTH",
"696 633 OFFCURVE",
"663 513 OFFCURVE",
"657 457 CURVE",
"672 457 LINE",
"684 492 OFFCURVE",
"721 562 OFFCURVE",
"810 562 CURVE SMOOTH",
"849 562 OFFCURVE",
"933 533 OFFCURVE",
"933 426 CURVE SMOOTH",
"933 374 OFFCURVE",
"910 317 OFFCURVE",
"867 253 CURVE",
"822 190 OFFCURVE",
"746 111 OFFCURVE",
"637 11 CURVE",
"637 -6 LINE",
"1006 -6 LINE",
"1052 114 LINE"
);
},
{
closed = 1;
nodes = (
"836 1052 LINE",
"179 -11 LINE",
"253 -11 LINE",
"909 1052 LINE"
);
},
{
closed = 1;
nodes = (
"351 417 LINE",
"272 417 OFFCURVE",
"272 429 OFFCURVE",
"272 510 CURVE SMOOTH",
"272 1038 LINE",
"255 1038 LINE",
"103 964 LINE",
"110 947 LINE",
"205 992 OFFCURVE",
"195 930 OFFCURVE",
"195 846 CURVE SMOOTH",
"195 510 LINE SMOOTH",
"195 429 OFFCURVE",
"192 417 OFFCURVE",
"114 417 CURVE",
"114 400 LINE",
"351 400 LINE"
);
}
);
width = 1155;
}
);
unicode = 00BD;
},
{
glyphname = threequarters;
layers = (
{
layerId = "233CC76B-C9AF-4A7F-B493-FFD1BBE88986";
paths = (
{
closed = 1;
nodes = (
"1049 224 LINE",
"966 224 LINE",
"966 633 LINE",
"915 633 LINE",
"624 218 LINE",
"624 161 LINE",
"889 161 LINE",
"889 -6 LINE",
"966 -6 LINE",
"966 161 LINE",
"1049 161 LINE"
);
},
{
closed = 1;
nodes = (
"936 1052 LINE",
"226 -11 LINE",
"302 -11 LINE",
"1006 1052 LINE"
);
},
{
closed = 1;
nodes = (
"462 711 OFFCURVE",
"385 754 OFFCURVE",
"346 769 CURVE",
"402 819 OFFCURVE",
"431 866 OFFCURVE",
"431 910 CURVE SMOOTH",
"431 944 OFFCURVE",
"406 1038 OFFCURVE",
"285 1038 CURVE SMOOTH",
"170 1038 OFFCURVE",
"135 944 OFFCURVE",
"116 905 CURVE",
"132 897 LINE",
"164 947 OFFCURVE",
"205 973 OFFCURVE",
"252 973 CURVE SMOOTH",
"292 973 OFFCURVE",
"354 949 OFFCURVE",
"354 868 CURVE SMOOTH",
"354 753 OFFCURVE",
"236 726 OFFCURVE",
"212 723 CURVE",
"212 708 LINE",
"212 708 OFFCURVE",
"395 715 OFFCURVE",
"395 549 CURVE SMOOTH",
"395 476 OFFCURVE",
"332 428 OFFCURVE",
"278 428 CURVE SMOOTH",
"213 428 OFFCURVE",
"189 470 OFFCURVE",
"145 470 CURVE SMOOTH",
"125 470 OFFCURVE",
"107 457 OFFCURVE",
"107 438 CURVE SMOOTH",
"107 425 OFFCURVE",
"111 387 OFFCURVE",
"215 387 CURVE SMOOTH",
"368 387 OFFCURVE",
"462 477 OFFCURVE",
"462 606 CURVE SMOOTH"
);
},
{
closed = 1;
nodes = (
"669 224 LINE",
"889 536 LINE",
"889 224 LINE"
);
}
);
width = 1155;
}
);
unicode = 00BE;
},
{
glyphname = questiondown;
layers = (
{
layerId = "233CC76B-C9AF-4A7F-B493-FFD1BBE88986";
paths = (
{
closed = 1;
nodes = (
"439 710 OFFCURVE",
"396 741 OFFCURVE",
"352 741 CURVE SMOOTH",
"314 741 OFFCURVE",
"269 711 OFFCURVE",
"269 655 CURVE SMOOTH",
"269 604 OFFCURVE",
"310 570 OFFCURVE",
"352 570 CURVE SMOOTH",
"398 570 OFFCURVE",
"439 606 OFFCURVE",
"439 655 CURVE SMOOTH"
);
},
{
closed = 1;
nodes = (
"618 -18 OFFCURVE",
"555 3 OFFCURVE",
"534 3 CURVE SMOOTH",
"507 3 OFFCURVE",
"473 -20 OFFCURVE",
"473 -63 CURVE SMOOTH",
"473 -97 OFFCURVE",
"521 -151 OFFCURVE",
"521 -193 CURVE SMOOTH",
"521 -239 OFFCURVE",
"474 -294 OFFCURVE",
"377 -294 CURVE SMOOTH",
"298 -294 OFFCURVE",
"199 -237 OFFCURVE",
"199 -84 CURVE SMOOTH",
"199 -5 OFFCURVE",
"240 90 OFFCURVE",
"272 143 CURVE SMOOTH",
"339 255 OFFCURVE",
"369 355 OFFCURVE",
"375 477 CURVE",
"342 477 LINE",
"336 335 OFFCURVE",
"285 278 OFFCURVE",
"177 156 CURVE SMOOTH",
"130 103 OFFCURVE",
"59 20 OFFCURVE",
"59 -96 CURVE SMOOTH",
"59 -246 OFFCURVE",
"179 -336 OFFCURVE",
"343 -336 CURVE SMOOTH",
"521 -336 OFFCURVE",
"618 -231 OFFCURVE",
"618 -117 CURVE SMOOTH"
);
}
);
width = 693;
}
);
unicode = 00BF;
},
{
glyphname = Agrave;
layers = (
{
anchors = (
{
name = H;
position = "{559, 0}";
},
{
name = L;
position = "{559, -76}";
},
{
name = O;
position = "{989, 0}";
},
{
name = U;
position = "{559, 1423}";
}
);
layerId = "233CC76B-C9AF-4A7F-B493-FFD1BBE88986";
paths = (
{
closed = 1;
nodes = (
"702 29 LINE",
"845 31 OFFCURVE",
"810 115 OFFCURVE",
"775 198 CURVE SMOOTH",
"714 346 LINE",
"314 346 LINE",
"244 182 LINE",
"205 88 OFFCURVE",
"193 41 OFFCURVE",
"338 29 CURVE",
"338 0 LINE",
"11 0 LINE",
"11 29 LINE",
"100 35 OFFCURVE",
"134 93 OFFCURVE",
"183 205 CURVE",
"546 1056 LINE",
"573 1056 LINE",
"931 198 LINE",
"992 54 OFFCURVE",
"1022 35 OFFCURVE",
"1108 29 CURVE",
"1108 0 LINE",
"702 0 LINE"
);
},
{
closed = 1;
nodes = (
"338 402 LINE",
"693 402 LINE",
"517 820 LINE"
);
},
{
closed = 1;
nodes = (
"478 1342 LINE SMOOTH",
"450 1371 OFFCURVE",
"413 1393 OFFCURVE",
"387 1393 CURVE SMOOTH",
"357 1393 OFFCURVE",
"339 1371 OFFCURVE",
"339 1334 CURVE SMOOTH",
"339 1307 OFFCURVE",
"380 1283 OFFCURVE",
"406 1267 CURVE SMOOTH",
"631 1124 LINE",
"694 1124 LINE"
);
}
);
width = 1120;
}
);
unicode = 00C0;
},
{
glyphname = Aacute;
layers = (
{
anchors = (
{
name = H;
position = "{559, 0}";
},
{
name = L;
position = "{559, -76}";
},
{
name = O;
position = "{989, 0}";
},
{
name = U;
position = "{559, 1423}";
}
);
layerId = "233CC76B-C9AF-4A7F-B493-FFD1BBE88986";
paths = (
{
closed = 1;
nodes = (
"702 29 LINE",
"845 31 OFFCURVE",
"810 115 OFFCURVE",
"775 198 CURVE SMOOTH",
"714 346 LINE",
"314 346 LINE",
"244 182 LINE",
"205 88 OFFCURVE",
"193 41 OFFCURVE",
"338 29 CURVE",
"338 0 LINE",
"11 0 LINE",
"11 29 LINE",
"100 35 OFFCURVE",
"134 93 OFFCURVE",
"183 205 CURVE",
"546 1056 LINE",
"573 1056 LINE",
"931 198 LINE",
"992 54 OFFCURVE",
"1022 35 OFFCURVE",
"1108 29 CURVE",
"1108 0 LINE",
"702 0 LINE"
);
},
{
closed = 1;
nodes = (
"338 402 LINE",
"693 402 LINE",
"517 820 LINE"
);
},
{
closed = 1;
nodes = (
"778 1364 OFFCURVE",
"753 1393 OFFCURVE",
"737 1393 CURVE SMOOTH",
"704 1393 OFFCURVE",
"670 1369 OFFCURVE",
"643 1342 CURVE SMOOTH",
"427 1124 LINE",
"489 1124 LINE",
"715 1267 LINE SMOOTH",
"747 1288 OFFCURVE",
"778 1313 OFFCURVE",
"778 1343 CURVE SMOOTH"
);
}
);
width = 1120;
}
);
unicode = 00C1;
},
{
glyphname = Acircumflex;
layers = (
{
anchors = (
{
name = H;
position = "{559, 0}";
},
{
name = L;
position = "{559, -76}";
},
{
name = O;
position = "{989, 0}";
},
{
name = U;
position = "{559, 1423}";
}
);
layerId = "233CC76B-C9AF-4A7F-B493-FFD1BBE88986";
paths = (
{
closed = 1;
nodes = (
"702 29 LINE",
"845 31 OFFCURVE",
"810 115 OFFCURVE",
"775 198 CURVE SMOOTH",
"714 346 LINE",
"314 346 LINE",
"244 182 LINE",
"205 88 OFFCURVE",
"193 41 OFFCURVE",
"338 29 CURVE",
"338 0 LINE",
"11 0 LINE",
"11 29 LINE",
"100 35 OFFCURVE",
"134 93 OFFCURVE",
"183 205 CURVE",
"546 1056 LINE",
"573 1056 LINE",
"931 198 LINE",
"992 54 OFFCURVE",
"1022 35 OFFCURVE",
"1108 29 CURVE",
"1108 0 LINE",
"702 0 LINE"
);
},
{
closed = 1;
nodes = (
"338 402 LINE",
"693 402 LINE",
"517 820 LINE"
);
},
{
closed = 1;
nodes = (
"559 1287 LINE",
"369 1124 LINE",
"315 1124 LINE",
"511 1386 LINE",
"609 1386 LINE",
"804 1124 LINE",
"750 1124 LINE"
);
}
);
width = 1120;
}
);
unicode = 00C2;
},
{
glyphname = Atilde;
layers = (
{
anchors = (
{
name = H;
position = "{559, 0}";
},
{
name = L;
position = "{559, -76}";
},
{
name = O;
position = "{989, 0}";
},
{
name = U;
position = "{559, 1423}";
}
);
layerId = "233CC76B-C9AF-4A7F-B493-FFD1BBE88986";
paths = (
{
closed = 1;
nodes = (
"702 29 LINE",
"845 31 OFFCURVE",
"810 115 OFFCURVE",
"775 198 CURVE SMOOTH",
"714 346 LINE",
"314 346 LINE",
"244 182 LINE",
"205 88 OFFCURVE",
"193 41 OFFCURVE",
"338 29 CURVE",
"338 0 LINE",
"11 0 LINE",
"11 29 LINE",
"100 35 OFFCURVE",
"134 93 OFFCURVE",
"183 205 CURVE",
"546 1056 LINE",
"573 1056 LINE",
"931 198 LINE",
"992 54 OFFCURVE",
"1022 35 OFFCURVE",
"1108 29 CURVE",
"1108 0 LINE",
"702 0 LINE"
);
},
{
closed = 1;
nodes = (
"338 402 LINE",
"693 402 LINE",
"517 820 LINE"
);
},
{
closed = 1;
nodes = (
"810 1271 OFFCURVE",
"740 1187 OFFCURVE",
"654 1187 CURVE SMOOTH",
"540 1187 OFFCURVE",
"530 1259 OFFCURVE",
"428 1259 CURVE SMOOTH",
"388 1259 OFFCURVE",
"344 1221 OFFCURVE",
"340 1187 CURVE",
"300 1187 LINE",
"323 1277 OFFCURVE",
"374 1346 OFFCURVE",
"473 1346 CURVE SMOOTH",
"551 1346 OFFCURVE",
"591 1277 OFFCURVE",
"670 1277 CURVE SMOOTH",
"720 1277 OFFCURVE",
"766 1304 OFFCURVE",
"778 1354 CURVE",
"819 1354 LINE"
);
}
);
width = 1120;
}
);
unicode = 00C3;
},
{
glyphname = Adieresis;
layers = (
{
anchors = (
{
name = H;
position = "{559, 0}";
},
{
name = L;
position = "{559, -76}";
},
{
name = O;
position = "{989, 0}";
},
{
name = U;
position = "{559, 1423}";
}
);
layerId = "233CC76B-C9AF-4A7F-B493-FFD1BBE88986";
paths = (
{
closed = 1;
nodes = (
"702 29 LINE",
"845 31 OFFCURVE",
"810 115 OFFCURVE",
"775 198 CURVE SMOOTH",
"714 346 LINE",
"314 346 LINE",
"244 182 LINE",
"205 88 OFFCURVE",
"193 41 OFFCURVE",
"338 29 CURVE",
"338 0 LINE",
"11 0 LINE",
"11 29 LINE",
"100 35 OFFCURVE",
"134 93 OFFCURVE",
"183 205 CURVE",
"546 1056 LINE",
"573 1056 LINE",
"931 198 LINE",
"992 54 OFFCURVE",
"1022 35 OFFCURVE",
"1108 29 CURVE",
"1108 0 LINE",
"702 0 LINE"
);
},
{
closed = 1;
nodes = (
"338 402 LINE",
"693 402 LINE",
"517 820 LINE"
);
},
{
closed = 1;
nodes = (
"793 1307 OFFCURVE",
"757 1343 OFFCURVE",
"715 1343 CURVE SMOOTH",
"676 1343 OFFCURVE",
"637 1304 OFFCURVE",
"637 1266 CURVE SMOOTH",
"637 1225 OFFCURVE",
"673 1187 OFFCURVE",
"715 1187 CURVE SMOOTH",
"757 1187 OFFCURVE",
"793 1224 OFFCURVE",
"793 1266 CURVE SMOOTH"
);
},
{
closed = 1;
nodes = (
"481 1307 OFFCURVE",
"445 1343 OFFCURVE",
"403 1343 CURVE SMOOTH",
"364 1343 OFFCURVE",
"326 1304 OFFCURVE",
"326 1266 CURVE SMOOTH",
"326 1225 OFFCURVE",
"362 1187 OFFCURVE",
"403 1187 CURVE SMOOTH",
"445 1187 OFFCURVE",
"481 1224 OFFCURVE",
"481 1266 CURVE SMOOTH"
);
}
);
width = 1120;
}
);
unicode = 00C4;
},
{
glyphname = Aring;
layers = (
{
anchors = (
{
name = H;
position = "{559, 0}";
},
{
name = L;
position = "{559, -76}";
},
{
name = O;
position = "{989, 0}";
},
{
name = U;
position = "{559, 1423}";
}
);
layerId = "233CC76B-C9AF-4A7F-B493-FFD1BBE88986";
paths = (
{
closed = 1;
nodes = (
"702 29 LINE",
"845 31 OFFCURVE",
"810 115 OFFCURVE",
"775 198 CURVE SMOOTH",
"714 346 LINE",
"314 346 LINE",
"244 182 LINE",
"205 88 OFFCURVE",
"193 41 OFFCURVE",
"338 29 CURVE",
"338 0 LINE",
"11 0 LINE",
"11 29 LINE",
"100 35 OFFCURVE",
"134 93 OFFCURVE",
"183 205 CURVE",
"546 1056 LINE",
"573 1056 LINE",
"931 198 LINE",
"992 54 OFFCURVE",
"1022 35 OFFCURVE",
"1108 29 CURVE",
"1108 0 LINE",
"702 0 LINE"
);
},
{
closed = 1;
nodes = (
"338 402 LINE",
"693 402 LINE",
"517 820 LINE"
);
},
{
closed = 1;
nodes = (
"705 1360 OFFCURVE",
"633 1415 OFFCURVE",
"561 1415 CURVE SMOOTH",
"482 1415 OFFCURVE",
"414 1357 OFFCURVE",
"414 1270 CURVE SMOOTH",
"414 1183 OFFCURVE",
"489 1124 OFFCURVE",
"561 1124 CURVE SMOOTH",
"633 1124 OFFCURVE",
"705 1183 OFFCURVE",
"705 1270 CURVE SMOOTH"
);
},
{
closed = 1;
nodes = (
"653 1220 OFFCURVE",
"612 1177 OFFCURVE",
"561 1177 CURVE SMOOTH",
"513 1177 OFFCURVE",
"466 1212 OFFCURVE",
"466 1270 CURVE SMOOTH",
"466 1326 OFFCURVE",
"510 1363 OFFCURVE",
"561 1363 CURVE SMOOTH",
"607 1363 OFFCURVE",
"653 1326 OFFCURVE",
"653 1270 CURVE SMOOTH"
);
}
);
width = 1120;
}
);
unicode = 00C5;
},
{
glyphname = AE;
layers = (
{
anchors = (
{
name = L;
position = "{662, -76}";
},
{
name = U;
position = "{662, 1092}";
}
);
layerId = "233CC76B-C9AF-4A7F-B493-FFD1BBE88986";
paths = (
{
closed = 1;
nodes = (
"1315 261 LINE",
"1245 116 OFFCURVE",
"1180 56 OFFCURVE",
"1008 56 CURVE SMOOTH",
"870 56 LINE SMOOTH",
"810 56 OFFCURVE",
"796 73 OFFCURVE",
"788 88 CURVE",
"780 97 OFFCURVE",
"782 129 OFFCURVE",
"782 169 CURVE SMOOTH",
"782 511 LINE",
"978 511 LINE SMOOTH",
"1108 511 OFFCURVE",
"1128 481 OFFCURVE",
"1143 361 CURVE",
"1170 361 LINE",
"1170 717 LINE",
"1143 717 LINE",
"1134 607 OFFCURVE",
"1097 568 OFFCURVE",
"978 568 CURVE SMOOTH",
"782 568 LINE",
"782 976 LINE",
"1035 976 LINE SMOOTH",
"1189 976 OFFCURVE",
"1206 947 OFFCURVE",
"1237 807 CURVE",
"1261 807 LINE",
"1250 1032 LINE",
"403 1032 LINE",
"403 1005 LINE",
"511 999 OFFCURVE",
"536 976 OFFCURVE",
"536 942 CURVE SMOOTH",
"536 918 OFFCURVE",
"516 867 OFFCURVE",
"477 794 CURVE SMOOTH",
"162 209 LINE SMOOTH",
"103 100 OFFCURVE",
"68 60 OFFCURVE",
"39 42 CURVE SMOOTH",
"24 33 OFFCURVE",
"5 29 OFFCURVE",
"-18 29 CURVE",
"-18 0 LINE",
"306 0 LINE",
"306 29 LINE",
"256 33 OFFCURVE",
"224 40 OFFCURVE",
"209 51 CURVE",
"167 76 OFFCURVE",
"183 117 OFFCURVE",
"240 222 CURVE SMOOTH",
"335 400 LINE",
"635 400 LINE",
"635 183 LINE SMOOTH",
"635 120 OFFCURVE",
"630 81 OFFCURVE",
"618 66 CURVE SMOOTH",
"597 40 OFFCURVE",
"567 29 OFFCURVE",
"524 29 CURVE SMOOTH",
"486 29 LINE",
"486 0 LINE",
"1261 0 LINE",
"1342 261 LINE"
);
},
{
closed = 1;
nodes = (
"363 457 LINE",
"635 976 LINE",
"635 457 LINE"
);
}
);
width = 1387;
}
);
unicode = 00C6;
},
{
glyphname = Ccedilla;
layers = (
{
anchors = (
{
name = L;
position = "{521, -457}";
},
{
name = U;
position = "{563, 1092}";
}
);
layerId = "233CC76B-C9AF-4A7F-B493-FFD1BBE88986";
paths = (
{
closed = 1;
nodes = (
"884 62 OFFCURVE",
"753 -24 OFFCURVE",
"558 -24 CURVE SMOOTH",
"242 -24 OFFCURVE",
"56 219 OFFCURVE",
"56 501 CURVE SMOOTH",
"56 801 OFFCURVE",
"265 1056 OFFCURVE",
"582 1056 CURVE SMOOTH",
"738 1056 OFFCURVE",
"817 984 OFFCURVE",
"849 984 CURVE SMOOTH",
"876 984 OFFCURVE",
"900 1008 OFFCURVE",
"912 1056 CURVE",
"939 1056 LINE",
"963 705 LINE",
"939 705 LINE",
"876 916 OFFCURVE",
"755 1002 OFFCURVE",
"594 1002 CURVE SMOOTH",
"382 1002 OFFCURVE",
"229 843 OFFCURVE",
"229 499 CURVE SMOOTH",
"229 204 OFFCURVE",
"384 43 OFFCURVE",
"616 43 CURVE SMOOTH",
"752 43 OFFCURVE",
"842 86 OFFCURVE",
"963 258 CURVE",
"985 242 LINE"
);
},
{
closed = 1;
nodes = (
"684 -130 OFFCURVE",
"621 -97 OFFCURVE",
"554 -97 CURVE SMOOTH",
"538 -97 OFFCURVE",
"523 -99 OFFCURVE",
"509 -102 CURVE",
"557 19 LINE",
"501 19 LINE",
"428 -154 LINE",
"441 -164 LINE",
"461 -158 OFFCURVE",
"486 -154 OFFCURVE",
"511 -156 CURVE SMOOTH",
"545 -159 OFFCURVE",
"568 -180 OFFCURVE",
"568 -216 CURVE SMOOTH",
"568 -260 OFFCURVE",
"534 -282 OFFCURVE",
"476 -282 CURVE SMOOTH",
"451 -282 OFFCURVE",
"407 -273 OFFCURVE",
"380 -263 CURVE",
"358 -312 LINE",
"396 -325 OFFCURVE",
"441 -336 OFFCURVE",
"484 -336 CURVE SMOOTH",
"582 -336 OFFCURVE",
"684 -288 OFFCURVE",
"684 -205 CURVE SMOOTH"
);
}
);
width = 1041;
}
);
unicode = 00C7;
},
{
glyphname = Egrave;
layers = (
{
anchors = (
{
name = H;
position = "{475, 0}";
},
{
name = L;
position = "{475, -76}";
},
{
name = O;
position = "{794, 0}";
},
{
name = R;
position = "{952, 837}";
},
{
name = U;
position = "{475, 1423}";
}
);
layerId = "233CC76B-C9AF-4A7F-B493-FFD1BBE88986";
paths = (
{
closed = 1;
nodes = (
"33 0 LINE",
"33 29 LINE",
"68 29 LINE SMOOTH",
"85 29 OFFCURVE",
"129 34 OFFCURVE",
"150 53 CURVE SMOOTH",
"170 71 OFFCURVE",
"180 92 OFFCURVE",
"180 183 CURVE SMOOTH",
"180 853 LINE SMOOTH",
"180 920 OFFCURVE",
"173 960 OFFCURVE",
"161 973 CURVE SMOOTH",
"142 994 OFFCURVE",
"112 1005 OFFCURVE",
"68 1005 CURVE SMOOTH",
"33 1005 LINE",
"33 1032 LINE",
"828 1032 LINE",
"840 807 LINE",
"810 807 LINE",
"788 896 OFFCURVE",
"792 976 OFFCURVE",
"611 976 CURVE SMOOTH",
"325 976 LINE",
"325 568 LINE",
"552 568 LINE SMOOTH",
"693 568 OFFCURVE",
"701 613 OFFCURVE",
"715 717 CURVE",
"744 717 LINE",
"744 358 LINE",
"715 358 LINE",
"701 466 OFFCURVE",
"691 511 OFFCURVE",
"552 511 CURVE SMOOTH",
"325 511 LINE",
"325 170 LINE",
"325 125 LINE SMOOTH",
"325 84 OFFCURVE",
"341 56 OFFCURVE",
"412 56 CURVE SMOOTH",
"587 56 LINE SMOOTH",
"756 56 OFFCURVE",
"790 90 OFFCURVE",
"887 260 CURVE",
"918 260 LINE",
"828 0 LINE"
);
},
{
closed = 1;
nodes = (
"393 1342 LINE SMOOTH",
"365 1371 OFFCURVE",
"329 1393 OFFCURVE",
"303 1393 CURVE SMOOTH",
"272 1393 OFFCURVE",
"254 1371 OFFCURVE",
"254 1334 CURVE SMOOTH",
"254 1307 OFFCURVE",
"296 1283 OFFCURVE",
"322 1267 CURVE SMOOTH",
"546 1124 LINE",
"610 1124 LINE"
);
}
);
width = 952;
}
);
unicode = 00C8;
},
{
glyphname = Eacute;
layers = (
{
anchors = (
{
name = H;
position = "{475, 0}";
},
{
name = L;
position = "{475, -76}";
},
{
name = O;
position = "{794, 0}";
},
{
name = R;
position = "{952, 837}";
},
{
name = U;
position = "{475, 1423}";
}
);
layerId = "233CC76B-C9AF-4A7F-B493-FFD1BBE88986";
paths = (
{
closed = 1;
nodes = (
"33 0 LINE",
"33 29 LINE",
"68 29 LINE SMOOTH",
"85 29 OFFCURVE",
"129 34 OFFCURVE",
"150 53 CURVE SMOOTH",
"170 71 OFFCURVE",
"180 92 OFFCURVE",
"180 183 CURVE SMOOTH",
"180 853 LINE SMOOTH",
"180 920 OFFCURVE",
"173 960 OFFCURVE",
"161 973 CURVE SMOOTH",
"142 994 OFFCURVE",
"112 1005 OFFCURVE",
"68 1005 CURVE SMOOTH",
"33 1005 LINE",
"33 1032 LINE",
"828 1032 LINE",
"840 807 LINE",
"810 807 LINE",
"788 896 OFFCURVE",
"792 976 OFFCURVE",
"611 976 CURVE SMOOTH",
"325 976 LINE",
"325 568 LINE",
"552 568 LINE SMOOTH",
"693 568 OFFCURVE",
"701 613 OFFCURVE",
"715 717 CURVE",
"744 717 LINE",
"744 358 LINE",
"715 358 LINE",
"701 466 OFFCURVE",
"691 511 OFFCURVE",
"552 511 CURVE SMOOTH",
"325 511 LINE",
"325 170 LINE",
"325 125 LINE SMOOTH",
"325 84 OFFCURVE",
"341 56 OFFCURVE",
"412 56 CURVE SMOOTH",
"587 56 LINE SMOOTH",
"756 56 OFFCURVE",
"790 90 OFFCURVE",
"887 260 CURVE",
"918 260 LINE",
"828 0 LINE"
);
},
{
closed = 1;
nodes = (
"693 1364 OFFCURVE",
"669 1393 OFFCURVE",
"653 1393 CURVE SMOOTH",
"619 1393 OFFCURVE",
"585 1369 OFFCURVE",
"559 1342 CURVE SMOOTH",
"342 1124 LINE",
"405 1124 LINE",
"630 1267 LINE SMOOTH",
"663 1288 OFFCURVE",
"693 1313 OFFCURVE",
"693 1343 CURVE SMOOTH"
);
}
);
width = 952;
}
);
unicode = 00C9;
},
{
glyphname = Ecircumflex;
layers = (
{
anchors = (
{
name = H;
position = "{475, 0}";
},
{
name = L;
position = "{475, -76}";
},
{
name = O;
position = "{794, 0}";
},
{
name = R;
position = "{952, 837}";
},
{
name = U;
position = "{475, 1423}";
}
);
layerId = "233CC76B-C9AF-4A7F-B493-FFD1BBE88986";
paths = (
{
closed = 1;
nodes = (
"33 0 LINE",
"33 29 LINE",
"68 29 LINE SMOOTH",
"85 29 OFFCURVE",
"129 34 OFFCURVE",
"150 53 CURVE SMOOTH",
"170 71 OFFCURVE",
"180 92 OFFCURVE",
"180 183 CURVE SMOOTH",
"180 853 LINE SMOOTH",
"180 920 OFFCURVE",
"173 960 OFFCURVE",
"161 973 CURVE SMOOTH",
"142 994 OFFCURVE",
"112 1005 OFFCURVE",
"68 1005 CURVE SMOOTH",
"33 1005 LINE",
"33 1032 LINE",
"828 1032 LINE",
"840 807 LINE",
"810 807 LINE",
"788 896 OFFCURVE",
"792 976 OFFCURVE",
"611 976 CURVE SMOOTH",
"325 976 LINE",
"325 568 LINE",
"552 568 LINE SMOOTH",
"693 568 OFFCURVE",
"701 613 OFFCURVE",
"715 717 CURVE",
"744 717 LINE",
"744 358 LINE",
"715 358 LINE",
"701 466 OFFCURVE",
"691 511 OFFCURVE",
"552 511 CURVE SMOOTH",
"325 511 LINE",
"325 170 LINE",
"325 125 LINE SMOOTH",
"325 84 OFFCURVE",
"341 56 OFFCURVE",
"412 56 CURVE SMOOTH",
"587 56 LINE SMOOTH",
"756 56 OFFCURVE",
"790 90 OFFCURVE",
"887 260 CURVE",
"918 260 LINE",
"828 0 LINE"
);
},
{
closed = 1;
nodes = (
"475 1287 LINE",
"285 1124 LINE",
"231 1124 LINE",
"427 1386 LINE",
"524 1386 LINE",
"720 1124 LINE",
"666 1124 LINE"
);
}
);
width = 952;
}
);
unicode = 00CA;
},
{
glyphname = Edieresis;
layers = (
{
anchors = (
{
name = H;
position = "{475, 0}";
},
{
name = L;
position = "{475, -76}";
},
{
name = O;
position = "{794, 0}";
},
{
name = R;
position = "{952, 837}";
},
{
name = U;
position = "{475, 1423}";
}
);
layerId = "233CC76B-C9AF-4A7F-B493-FFD1BBE88986";
paths = (
{
closed = 1;
nodes = (
"33 0 LINE",
"33 29 LINE",
"68 29 LINE SMOOTH",
"85 29 OFFCURVE",
"129 34 OFFCURVE",
"150 53 CURVE SMOOTH",
"170 71 OFFCURVE",
"180 92 OFFCURVE",
"180 183 CURVE SMOOTH",
"180 853 LINE SMOOTH",
"180 920 OFFCURVE",
"173 960 OFFCURVE",
"161 973 CURVE SMOOTH",
"142 994 OFFCURVE",
"112 1005 OFFCURVE",
"68 1005 CURVE SMOOTH",
"33 1005 LINE",
"33 1032 LINE",
"828 1032 LINE",
"840 807 LINE",
"810 807 LINE",
"788 896 OFFCURVE",
"792 976 OFFCURVE",
"611 976 CURVE SMOOTH",
"325 976 LINE",
"325 568 LINE",
"552 568 LINE SMOOTH",
"693 568 OFFCURVE",
"701 613 OFFCURVE",
"715 717 CURVE",
"744 717 LINE",
"744 358 LINE",
"715 358 LINE",
"701 466 OFFCURVE",
"691 511 OFFCURVE",
"552 511 CURVE SMOOTH",
"325 511 LINE",
"325 170 LINE",
"325 125 LINE SMOOTH",
"325 84 OFFCURVE",
"341 56 OFFCURVE",
"412 56 CURVE SMOOTH",
"587 56 LINE SMOOTH",
"756 56 OFFCURVE",
"790 90 OFFCURVE",
"887 260 CURVE",
"918 260 LINE",
"828 0 LINE"
);
},
{
closed = 1;
nodes = (
"708 1307 OFFCURVE",
"673 1343 OFFCURVE",
"630 1343 CURVE SMOOTH",
"591 1343 OFFCURVE",
"552 1304 OFFCURVE",
"552 1266 CURVE SMOOTH",
"552 1225 OFFCURVE",
"588 1187 OFFCURVE",
"630 1187 CURVE SMOOTH",
"673 1187 OFFCURVE",
"708 1224 OFFCURVE",
"708 1266 CURVE SMOOTH"
);
},
{
closed = 1;
nodes = (
"396 1307 OFFCURVE",
"361 1343 OFFCURVE",
"318 1343 CURVE SMOOTH",
"279 1343 OFFCURVE",
"242 1304 OFFCURVE",
"242 1266 CURVE SMOOTH",
"242 1225 OFFCURVE",
"278 1187 OFFCURVE",
"318 1187 CURVE SMOOTH",
"361 1187 OFFCURVE",
"396 1224 OFFCURVE",
"396 1266 CURVE SMOOTH"
);
}
);
width = 952;
}
);
unicode = 00CB;
},
{
glyphname = Igrave;
layers = (
{
anchors = (
{
name = H;
position = "{260, 0}";
},
{
name = L;
position = "{260, -76}";
},
{
name = O;
position = "{388, 0}";
},
{
name = R;
position = "{519, 837}";
},
{
name = U;
position = "{260, 1423}";
}
);
layerId = "233CC76B-C9AF-4A7F-B493-FFD1BBE88986";
paths = (
{
closed = 1;
nodes = (
"39 29 LINE",
"76 29 LINE SMOOTH",
"119 29 OFFCURVE",
"147 40 OFFCURVE",
"167 66 CURVE",
"180 81 OFFCURVE",
"186 119 OFFCURVE",
"186 183 CURVE SMOOTH",
"186 850 LINE SMOOTH",
"186 921 OFFCURVE",
"186 947 OFFCURVE",
"169 966 CURVE",
"150 990 OFFCURVE",
"112 1005 OFFCURVE",
"76 1005 CURVE SMOOTH",
"39 1005 LINE",
"39 1032 LINE",
"481 1032 LINE",
"481 1005 LINE",
"444 1005 LINE SMOOTH",
"403 1005 OFFCURVE",
"373 992 OFFCURVE",
"352 967 CURVE",
"341 950 OFFCURVE",
"333 912 OFFCURVE",
"333 850 CURVE SMOOTH",
"333 183 LINE SMOOTH",
"333 116 OFFCURVE",
"339 83 OFFCURVE",
"351 65 CURVE SMOOTH",
"361 49 OFFCURVE",
"408 29 OFFCURVE",
"444 29 CURVE SMOOTH",
"481 29 LINE",
"481 0 LINE",
"39 0 LINE"
);
},
{
closed = 1;
nodes = (
"178 1342 LINE SMOOTH",
"150 1371 OFFCURVE",
"113 1393 OFFCURVE",
"88 1393 CURVE SMOOTH",
"57 1393 OFFCURVE",
"39 1371 OFFCURVE",
"39 1334 CURVE SMOOTH",
"39 1307 OFFCURVE",
"81 1283 OFFCURVE",
"107 1267 CURVE SMOOTH",
"331 1124 LINE",
"394 1124 LINE"
);
}
);
width = 519;
}
);
unicode = 00CC;
},
{
glyphname = Iacute;
layers = (
{
anchors = (
{
name = H;
position = "{260, 0}";
},
{
name = L;
position = "{260, -76}";
},
{
name = O;
position = "{388, 0}";
},
{
name = R;
position = "{519, 837}";
},
{
name = U;
position = "{260, 1423}";
}
);
layerId = "233CC76B-C9AF-4A7F-B493-FFD1BBE88986";
paths = (
{
closed = 1;
nodes = (
"39 29 LINE",
"76 29 LINE SMOOTH",
"119 29 OFFCURVE",
"147 40 OFFCURVE",
"167 66 CURVE",
"180 81 OFFCURVE",
"186 119 OFFCURVE",
"186 183 CURVE SMOOTH",
"186 850 LINE SMOOTH",
"186 921 OFFCURVE",
"186 947 OFFCURVE",
"169 966 CURVE",
"150 990 OFFCURVE",
"112 1005 OFFCURVE",
"76 1005 CURVE SMOOTH",
"39 1005 LINE",
"39 1032 LINE",
"481 1032 LINE",
"481 1005 LINE",
"444 1005 LINE SMOOTH",
"403 1005 OFFCURVE",
"373 992 OFFCURVE",
"352 967 CURVE",
"341 950 OFFCURVE",
"333 912 OFFCURVE",
"333 850 CURVE SMOOTH",
"333 183 LINE SMOOTH",
"333 116 OFFCURVE",
"339 83 OFFCURVE",
"351 65 CURVE SMOOTH",
"361 49 OFFCURVE",
"408 29 OFFCURVE",
"444 29 CURVE SMOOTH",
"481 29 LINE",
"481 0 LINE",
"39 0 LINE"
);
},
{
closed = 1;
nodes = (
"478 1364 OFFCURVE",
"454 1393 OFFCURVE",
"438 1393 CURVE SMOOTH",
"404 1393 OFFCURVE",
"370 1369 OFFCURVE",
"343 1342 CURVE SMOOTH",
"127 1124 LINE",
"189 1124 LINE",
"415 1267 LINE SMOOTH",
"447 1288 OFFCURVE",
"478 1313 OFFCURVE",
"478 1343 CURVE SMOOTH"
);
}
);
width = 519;
}
);
unicode = 00CD;
},
{
glyphname = Icircumflex;
layers = (
{
anchors = (
{
name = H;
position = "{260, 0}";
},
{
name = L;
position = "{260, -76}";
},
{
name = O;
position = "{388, 0}";
},
{
name = R;
position = "{519, 837}";
},
{
name = U;
position = "{260, 1423}";
}
);
layerId = "233CC76B-C9AF-4A7F-B493-FFD1BBE88986";
paths = (
{
closed = 1;
nodes = (
"39 29 LINE",
"76 29 LINE SMOOTH",
"119 29 OFFCURVE",
"147 40 OFFCURVE",
"167 66 CURVE",
"180 81 OFFCURVE",
"186 119 OFFCURVE",
"186 183 CURVE SMOOTH",
"186 850 LINE SMOOTH",
"186 921 OFFCURVE",
"186 947 OFFCURVE",
"169 966 CURVE",
"150 990 OFFCURVE",
"112 1005 OFFCURVE",
"76 1005 CURVE SMOOTH",
"39 1005 LINE",
"39 1032 LINE",
"481 1032 LINE",
"481 1005 LINE",
"444 1005 LINE SMOOTH",
"403 1005 OFFCURVE",
"373 992 OFFCURVE",
"352 967 CURVE",
"341 950 OFFCURVE",
"333 912 OFFCURVE",
"333 850 CURVE SMOOTH",
"333 183 LINE SMOOTH",
"333 116 OFFCURVE",
"339 83 OFFCURVE",
"351 65 CURVE SMOOTH",
"361 49 OFFCURVE",
"408 29 OFFCURVE",
"444 29 CURVE SMOOTH",
"481 29 LINE",
"481 0 LINE",
"39 0 LINE"
);
},
{
closed = 1;
nodes = (
"260 1287 LINE",
"69 1124 LINE",
"15 1124 LINE",
"212 1386 LINE",
"309 1386 LINE",
"505 1124 LINE",
"451 1124 LINE"
);
}
);
width = 519;
}
);
unicode = 00CE;
},
{
glyphname = Idieresis;
layers = (
{
anchors = (
{
name = H;
position = "{260, 0}";
},
{
name = L;
position = "{260, -76}";
},
{
name = O;
position = "{388, 0}";
},
{
name = R;
position = "{519, 837}";
},
{
name = U;
position = "{260, 1423}";
}
);
layerId = "233CC76B-C9AF-4A7F-B493-FFD1BBE88986";
paths = (
{
closed = 1;
nodes = (
"39 29 LINE",
"76 29 LINE SMOOTH",
"119 29 OFFCURVE",
"147 40 OFFCURVE",
"167 66 CURVE",
"180 81 OFFCURVE",
"186 119 OFFCURVE",
"186 183 CURVE SMOOTH",
"186 850 LINE SMOOTH",
"186 921 OFFCURVE",
"186 947 OFFCURVE",
"169 966 CURVE",
"150 990 OFFCURVE",
"112 1005 OFFCURVE",
"76 1005 CURVE SMOOTH",
"39 1005 LINE",
"39 1032 LINE",
"481 1032 LINE",
"481 1005 LINE",
"444 1005 LINE SMOOTH",
"403 1005 OFFCURVE",
"373 992 OFFCURVE",
"352 967 CURVE",
"341 950 OFFCURVE",
"333 912 OFFCURVE",
"333 850 CURVE SMOOTH",
"333 183 LINE SMOOTH",
"333 116 OFFCURVE",
"339 83 OFFCURVE",
"351 65 CURVE SMOOTH",
"361 49 OFFCURVE",
"408 29 OFFCURVE",
"444 29 CURVE SMOOTH",
"481 29 LINE",
"481 0 LINE",
"39 0 LINE"
);
},
{
closed = 1;
nodes = (
"493 1307 OFFCURVE",
"457 1343 OFFCURVE",
"415 1343 CURVE SMOOTH",
"376 1343 OFFCURVE",
"337 1304 OFFCURVE",
"337 1266 CURVE SMOOTH",
"337 1225 OFFCURVE",
"373 1187 OFFCURVE",
"415 1187 CURVE SMOOTH",
"457 1187 OFFCURVE",
"493 1224 OFFCURVE",
"493 1266 CURVE SMOOTH"
);
},
{
closed = 1;
nodes = (
"181 1307 OFFCURVE",
"145 1343 OFFCURVE",
"103 1343 CURVE SMOOTH",
"64 1343 OFFCURVE",
"27 1304 OFFCURVE",
"27 1266 CURVE SMOOTH",
"27 1225 OFFCURVE",
"62 1187 OFFCURVE",
"103 1187 CURVE SMOOTH",
"145 1187 OFFCURVE",
"181 1224 OFFCURVE",
"181 1266 CURVE SMOOTH"
);
}
);
width = 519;
}
);
unicode = 00CF;
},
{
glyphname = Eth;
layers = (
{
anchors = (
{
name = L;
position = "{546, -76}";
},
{
name = U;
position = "{546, 1092}";
}
);
layerId = "233CC76B-C9AF-4A7F-B493-FFD1BBE88986";
paths = (
{
closed = 1;
nodes = (
"27 603 LINE",
"622 603 LINE",
"622 516 LINE",
"27 516 LINE"
);
},
{
closed = 1;
nodes = (
"1066 232 OFFCURVE",
"887 0 OFFCURVE",
"489 0 CURVE SMOOTH",
"27 0 LINE",
"27 29 LINE",
"66 29 LINE SMOOTH",
"110 29 OFFCURVE",
"142 42 OFFCURVE",
"158 70 CURVE",
"167 88 OFFCURVE",
"174 125 OFFCURVE",
"174 183 CURVE SMOOTH",
"174 850 LINE SMOOTH",
"174 913 OFFCURVE",
"167 954 OFFCURVE",
"154 972 CURVE",
"133 993 OFFCURVE",
"105 1005 OFFCURVE",
"66 1005 CURVE SMOOTH",
"27 1005 LINE",
"27 1032 LINE",
"447 1032 LINE SMOOTH",
"676 1032 OFFCURVE",
"809 996 OFFCURVE",
"907 910 CURVE",
"1002 825 OFFCURVE",
"1066 684 OFFCURVE",
"1066 522 CURVE SMOOTH"
);
},
{
closed = 1;
nodes = (
"894 800 OFFCURVE",
"720 975 OFFCURVE",
"477 975 CURVE SMOOTH",
"431 975 OFFCURVE",
"381 970 OFFCURVE",
"321 952 CURVE",
"321 75 LINE",
"385 62 OFFCURVE",
"439 53 OFFCURVE",
"482 53 CURVE",
"716 50 OFFCURVE",
"894 226 OFFCURVE",
"894 514 CURVE SMOOTH"
);
}
);
width = 1126;
}
);
unicode = 00D0;
},
{
glyphname = Ntilde;
layers = (
{
anchors = (
{
name = H;
position = "{931, 0}";
},
{
name = L;
position = "{556, -76}";
},
{
name = U;
position = "{556, 1423}";
}
);
layerId = "233CC76B-C9AF-4A7F-B493-FFD1BBE88986";
paths = (
{
closed = 1;
nodes = (
"1024 1005 OFFCURVE",
"992 992 OFFCURVE",
"975 966 CURVE SMOOTH",
"964 948 OFFCURVE",
"959 911 OFFCURVE",
"959 853 CURVE SMOOTH",
"959 -17 LINE",
"931 -17 LINE",
"249 814 LINE",
"249 180 LINE SMOOTH",
"249 117 OFFCURVE",
"256 77 OFFCURVE",
"270 60 CURVE",
"289 40 OFFCURVE",
"319 29 OFFCURVE",
"361 29 CURVE SMOOTH",
"396 29 LINE",
"396 0 LINE",
"36 0 LINE",
"36 29 LINE",
"72 29 LINE SMOOTH",
"117 29 OFFCURVE",
"148 40 OFFCURVE",
"165 68 CURVE",
"177 84 OFFCURVE",
"183 119 OFFCURVE",
"183 180 CURVE SMOOTH",
"183 897 LINE",
"163 919 OFFCURVE",
"131 1005 OFFCURVE",
"9 1005 CURVE",
"9 1032 LINE",
"261 1032 LINE",
"891 258 LINE",
"891 853 LINE SMOOTH",
"891 919 OFFCURVE",
"884 958 OFFCURVE",
"870 972 CURVE",
"851 994 OFFCURVE",
"821 1005 OFFCURVE",
"780 1005 CURVE SMOOTH",
"746 1005 LINE",
"746 1032 LINE",
"1103 1032 LINE",
"1103 1005 LINE",
"1068 1005 LINE SMOOTH"
);
},
{
closed = 1;
nodes = (
"807 1271 OFFCURVE",
"737 1187 OFFCURVE",
"651 1187 CURVE SMOOTH",
"537 1187 OFFCURVE",
"527 1259 OFFCURVE",
"425 1259 CURVE SMOOTH",
"385 1259 OFFCURVE",
"341 1221 OFFCURVE",
"337 1187 CURVE",
"297 1187 LINE",
"320 1277 OFFCURVE",
"371 1346 OFFCURVE",
"470 1346 CURVE SMOOTH",
"548 1346 OFFCURVE",
"588 1277 OFFCURVE",
"667 1277 CURVE SMOOTH",
"717 1277 OFFCURVE",
"763 1304 OFFCURVE",
"775 1354 CURVE",
"816 1354 LINE"
);
}
);
width = 1126;
}
);
unicode = 00D1;
},
{
glyphname = Ograve;
layers = (
{
anchors = (
{
name = H;
position = "{559, 0}";
},
{
name = L;
position = "{559, -76}";
},
{
name = O;
position = "{753, 0}";
},
{
name = R;
position = "{1065, 1005}";
},
{
name = U;
position = "{559, 1423}";
}
);
layerId = "233CC76B-C9AF-4A7F-B493-FFD1BBE88986";
paths = (
{
closed = 1;
nodes = (
"1065 210 OFFCURVE",
"846 -24 OFFCURVE",
"558 -24 CURVE SMOOTH",
"278 -24 OFFCURVE",
"54 194 OFFCURVE",
"54 519 CURVE SMOOTH",
"54 828 OFFCURVE",
"278 1056 OFFCURVE",
"572 1056 CURVE SMOOTH",
"842 1056 OFFCURVE",
"1065 830 OFFCURVE",
"1065 522 CURVE SMOOTH"
);
},
{
closed = 1;
nodes = (
"895 817 OFFCURVE",
"783 1000 OFFCURVE",
"555 1002 CURVE",
"348 1002 OFFCURVE",
"229 820 OFFCURVE",
"229 524 CURVE SMOOTH",
"229 231 OFFCURVE",
"343 32 OFFCURVE",
"556 30 CURVE",
"754 30 OFFCURVE",
"890 177 OFFCURVE",
"893 502 CURVE SMOOTH"
);
},
{
closed = 1;
nodes = (
"478 1342 LINE SMOOTH",
"450 1371 OFFCURVE",
"413 1393 OFFCURVE",
"387 1393 CURVE SMOOTH",
"357 1393 OFFCURVE",
"339 1371 OFFCURVE",
"339 1334 CURVE SMOOTH",
"339 1307 OFFCURVE",
"380 1283 OFFCURVE",
"406 1267 CURVE SMOOTH",
"631 1124 LINE",
"694 1124 LINE"
);
}
);
width = 1126;
}
);
unicode = 00D2;
},
{
glyphname = Oacute;
layers = (
{
anchors = (
{
name = H;
position = "{559, 0}";
},
{
name = L;
position = "{559, -76}";
},
{
name = O;
position = "{753, 0}";
},
{
name = R;
position = "{1065, 1005}";
},
{
name = U;
position = "{559, 1423}";
}
);
layerId = "233CC76B-C9AF-4A7F-B493-FFD1BBE88986";
paths = (
{
closed = 1;
nodes = (
"1065 210 OFFCURVE",
"846 -24 OFFCURVE",
"558 -24 CURVE SMOOTH",
"278 -24 OFFCURVE",
"54 194 OFFCURVE",
"54 519 CURVE SMOOTH",
"54 828 OFFCURVE",
"278 1056 OFFCURVE",
"572 1056 CURVE SMOOTH",
"842 1056 OFFCURVE",
"1065 830 OFFCURVE",
"1065 522 CURVE SMOOTH"
);
},
{
closed = 1;
nodes = (
"895 817 OFFCURVE",
"783 1000 OFFCURVE",
"555 1002 CURVE",
"348 1002 OFFCURVE",
"229 820 OFFCURVE",
"229 524 CURVE SMOOTH",
"229 231 OFFCURVE",
"343 32 OFFCURVE",
"556 30 CURVE",
"754 30 OFFCURVE",
"890 177 OFFCURVE",
"893 502 CURVE SMOOTH"
);
},
{
closed = 1;
nodes = (
"778 1364 OFFCURVE",
"753 1393 OFFCURVE",
"737 1393 CURVE SMOOTH",
"704 1393 OFFCURVE",
"670 1369 OFFCURVE",
"643 1342 CURVE SMOOTH",
"427 1124 LINE",
"489 1124 LINE",
"715 1267 LINE SMOOTH",
"747 1288 OFFCURVE",
"778 1313 OFFCURVE",
"778 1343 CURVE SMOOTH"
);
}
);
width = 1126;
}
);
unicode = 00D3;
},
{
glyphname = Ocircumflex;
layers = (
{
anchors = (
{
name = H;
position = "{559, 0}";
},
{
name = L;
position = "{559, -76}";
},
{
name = O;
position = "{753, 0}";
},
{
name = R;
position = "{1065, 1005}";
},
{
name = U;
position = "{559, 1423}";
}
);
layerId = "233CC76B-C9AF-4A7F-B493-FFD1BBE88986";
paths = (
{
closed = 1;
nodes = (
"1065 210 OFFCURVE",
"846 -24 OFFCURVE",
"558 -24 CURVE SMOOTH",
"278 -24 OFFCURVE",
"54 194 OFFCURVE",
"54 519 CURVE SMOOTH",
"54 828 OFFCURVE",
"278 1056 OFFCURVE",
"572 1056 CURVE SMOOTH",
"842 1056 OFFCURVE",
"1065 830 OFFCURVE",
"1065 522 CURVE SMOOTH"
);
},
{
closed = 1;
nodes = (
"895 817 OFFCURVE",
"783 1000 OFFCURVE",
"555 1002 CURVE",
"348 1002 OFFCURVE",
"229 820 OFFCURVE",
"229 524 CURVE SMOOTH",
"229 231 OFFCURVE",
"343 32 OFFCURVE",
"556 30 CURVE",
"754 30 OFFCURVE",
"890 177 OFFCURVE",
"893 502 CURVE SMOOTH"
);
},
{
closed = 1;
nodes = (
"559 1287 LINE",
"369 1124 LINE",
"315 1124 LINE",
"511 1386 LINE",
"609 1386 LINE",
"804 1124 LINE",
"750 1124 LINE"
);
}
);
width = 1126;
}
);
unicode = 00D4;
},
{
glyphname = Otilde;
layers = (
{
anchors = (
{
name = H;
position = "{559, 0}";
},
{
name = L;
position = "{559, -76}";
},
{
name = O;
position = "{753, 0}";
},
{
name = R;
position = "{1065, 1005}";
},
{
name = U;
position = "{559, 1423}";
}
);
layerId = "233CC76B-C9AF-4A7F-B493-FFD1BBE88986";
paths = (
{
closed = 1;
nodes = (
"1065 210 OFFCURVE",
"846 -24 OFFCURVE",
"558 -24 CURVE SMOOTH",
"278 -24 OFFCURVE",
"54 194 OFFCURVE",
"54 519 CURVE SMOOTH",
"54 828 OFFCURVE",
"278 1056 OFFCURVE",
"572 1056 CURVE SMOOTH",
"842 1056 OFFCURVE",
"1065 830 OFFCURVE",
"1065 522 CURVE SMOOTH"
);
},
{
closed = 1;
nodes = (
"895 817 OFFCURVE",
"783 1000 OFFCURVE",
"555 1002 CURVE",
"348 1002 OFFCURVE",
"229 820 OFFCURVE",
"229 524 CURVE SMOOTH",
"229 231 OFFCURVE",
"343 32 OFFCURVE",
"556 30 CURVE",
"754 30 OFFCURVE",
"890 177 OFFCURVE",
"893 502 CURVE SMOOTH"
);
},
{
closed = 1;
nodes = (
"810 1271 OFFCURVE",
"740 1187 OFFCURVE",
"654 1187 CURVE SMOOTH",
"540 1187 OFFCURVE",
"530 1259 OFFCURVE",
"428 1259 CURVE SMOOTH",
"388 1259 OFFCURVE",
"344 1221 OFFCURVE",
"340 1187 CURVE",
"300 1187 LINE",
"323 1277 OFFCURVE",
"374 1346 OFFCURVE",
"473 1346 CURVE SMOOTH",
"551 1346 OFFCURVE",
"591 1277 OFFCURVE",
"670 1277 CURVE SMOOTH",
"720 1277 OFFCURVE",
"766 1304 OFFCURVE",
"778 1354 CURVE",
"819 1354 LINE"
);
}
);
width = 1126;
}
);
unicode = 00D5;
},
{
glyphname = Odieresis;
layers = (
{
anchors = (
{
name = H;
position = "{559, 0}";
},
{
name = L;
position = "{559, -76}";
},
{
name = O;
position = "{753, 0}";
},
{
name = R;
position = "{1065, 1005}";
},
{
name = U;
position = "{559, 1423}";
}
);
layerId = "233CC76B-C9AF-4A7F-B493-FFD1BBE88986";
paths = (
{
closed = 1;
nodes = (
"1065 210 OFFCURVE",
"846 -24 OFFCURVE",
"558 -24 CURVE SMOOTH",
"278 -24 OFFCURVE",
"54 194 OFFCURVE",
"54 519 CURVE SMOOTH",
"54 828 OFFCURVE",
"278 1056 OFFCURVE",
"572 1056 CURVE SMOOTH",
"842 1056 OFFCURVE",
"1065 830 OFFCURVE",
"1065 522 CURVE SMOOTH"
);
},
{
closed = 1;
nodes = (
"895 817 OFFCURVE",
"783 1000 OFFCURVE",
"555 1002 CURVE",
"348 1002 OFFCURVE",
"229 820 OFFCURVE",
"229 524 CURVE SMOOTH",
"229 231 OFFCURVE",
"343 32 OFFCURVE",
"556 30 CURVE",
"754 30 OFFCURVE",
"890 177 OFFCURVE",
"893 502 CURVE SMOOTH"
);
},
{
closed = 1;
nodes = (
"793 1307 OFFCURVE",
"757 1343 OFFCURVE",
"715 1343 CURVE SMOOTH",
"676 1343 OFFCURVE",
"637 1304 OFFCURVE",
"637 1266 CURVE SMOOTH",
"637 1225 OFFCURVE",
"673 1187 OFFCURVE",
"715 1187 CURVE SMOOTH",
"757 1187 OFFCURVE",
"793 1224 OFFCURVE",
"793 1266 CURVE SMOOTH"
);
},
{
closed = 1;
nodes = (
"481 1307 OFFCURVE",
"445 1343 OFFCURVE",
"403 1343 CURVE SMOOTH",
"364 1343 OFFCURVE",
"326 1304 OFFCURVE",
"326 1266 CURVE SMOOTH",
"326 1225 OFFCURVE",
"362 1187 OFFCURVE",
"403 1187 CURVE SMOOTH",
"445 1187 OFFCURVE",
"481 1224 OFFCURVE",
"481 1266 CURVE SMOOTH"
);
}
);
width = 1126;
}
);
unicode = 00D6;
},
{
glyphname = multiply;
layers = (
{
layerId = "233CC76B-C9AF-4A7F-B493-FFD1BBE88986";
paths = (
{
closed = 1;
nodes = (
"810 450 LINE",
"1155 796 LINE",
"1097 855 LINE",
"750 507 LINE",
"403 855 LINE",
"345 796 LINE",
"690 450 LINE",
"345 103 LINE",
"403 45 LINE",
"750 393 LINE",
"1097 45 LINE",
"1155 103 LINE"
);
}
);
width = 1500;
}
);
unicode = 00D7;
},
{
glyphname = Oslash;
layers = (
{
anchors = (
{
name = L;
position = "{561, -76}";
},
{
name = U;
position = "{561, 1092}";
}
);
layerId = "233CC76B-C9AF-4A7F-B493-FFD1BBE88986";
paths = (
{
closed = 1;
nodes = (
"278 1056 OFFCURVE",
"54 828 OFFCURVE",
"54 519 CURVE SMOOTH",
"54 354 OFFCURVE",
"111 217 OFFCURVE",
"205 120 CURVE",
"107 0 LINE",
"153 -36 LINE",
"248 81 LINE",
"336 11 OFFCURVE",
"444 -24 OFFCURVE",
"558 -24 CURVE SMOOTH",
"846 -24 OFFCURVE",
"1065 210 OFFCURVE",
"1065 522 CURVE SMOOTH",
"1065 677 OFFCURVE",
"1008 812 OFFCURVE",
"917 906 CURVE",
"1019 1032 LINE",
"973 1065 LINE",
"876 945 LINE",
"791 1017 OFFCURVE",
"686 1056 OFFCURVE",
"572 1056 CURVE SMOOTH"
);
},
{
closed = 1;
nodes = (
"670 1001 OFFCURVE",
"754 955 OFFCURVE",
"812 867 CURVE",
"285 218 LINE",
"244 315 OFFCURVE",
"229 411 OFFCURVE",
"229 524 CURVE SMOOTH",
"229 820 OFFCURVE",
"348 1002 OFFCURVE",
"555 1002 CURVE"
);
},
{
closed = 1;
nodes = (
"453 30 OFFCURVE",
"371 78 OFFCURVE",
"314 164 CURVE",
"841 813 LINE",
"881 713 OFFCURVE",
"894 621 OFFCURVE",
"893 502 CURVE SMOOTH",
"890 177 OFFCURVE",
"754 30 OFFCURVE",
"556 30 CURVE SMOOTH"
);
}
);
width = 1126;
}
);
unicode = 00D8;
},
{
glyphname = Ugrave;
layers = (
{
anchors = (
{
name = H;
position = "{566, 0}";
},
{
name = L;
position = "{566, -76}";
},
{
name = O;
position = "{766, 0}";
},
{
name = R;
position = "{1134, 1012}";
},
{
name = U;
position = "{566, 1423}";
}
);
layerId = "233CC76B-C9AF-4A7F-B493-FFD1BBE88986";
paths = (
{
closed = 1;
nodes = (
"1028 1005 OFFCURVE",
"1001 988 OFFCURVE",
"978 952 CURVE",
"966 938 OFFCURVE",
"962 903 OFFCURVE",
"962 845 CURVE SMOOTH",
"962 425 LINE SMOOTH",
"962 282 OFFCURVE",
"944 167 OFFCURVE",
"871 90 CURVE SMOOTH",
"797 11 OFFCURVE",
"715 -24 OFFCURVE",
"562 -24 CURVE SMOOTH",
"139 -24 OFFCURVE",
"158 282 OFFCURVE",
"158 445 CURVE SMOOTH",
"158 850 LINE SMOOTH",
"158 914 OFFCURVE",
"150 954 OFFCURVE",
"132 975 CURVE",
"116 996 OFFCURVE",
"88 1005 OFFCURVE",
"46 1005 CURVE SMOOTH",
"23 1005 LINE",
"23 1032 LINE",
"439 1032 LINE",
"439 1005 LINE",
"400 1005 LINE SMOOTH",
"358 1005 OFFCURVE",
"342 992 OFFCURVE",
"323 964 CURVE",
"312 944 OFFCURVE",
"304 908 OFFCURVE",
"304 850 CURVE SMOOTH",
"304 400 LINE SMOOTH",
"304 265 OFFCURVE",
"310 40 OFFCURVE",
"573 40 CURVE SMOOTH",
"696 40 OFFCURVE",
"784 99 OFFCURVE",
"820 133 CURVE SMOOTH",
"886 193 OFFCURVE",
"893 323 OFFCURVE",
"893 395 CURVE SMOOTH",
"893 432 LINE",
"893 850 LINE SMOOTH",
"893 914 OFFCURVE",
"887 954 OFFCURVE",
"871 972 CURVE SMOOTH",
"851 994 OFFCURVE",
"822 1005 OFFCURVE",
"783 1005 CURVE SMOOTH",
"744 1005 LINE",
"744 1032 LINE",
"1110 1032 LINE",
"1110 1005 LINE",
"1071 1005 LINE SMOOTH"
);
},
{
closed = 1;
nodes = (
"485 1342 LINE SMOOTH",
"457 1371 OFFCURVE",
"420 1393 OFFCURVE",
"394 1393 CURVE SMOOTH",
"364 1393 OFFCURVE",
"345 1371 OFFCURVE",
"345 1334 CURVE SMOOTH",
"345 1307 OFFCURVE",
"387 1283 OFFCURVE",
"413 1267 CURVE SMOOTH",
"638 1124 LINE",
"701 1124 LINE"
);
}
);
width = 1126;
}
);
unicode = 00D9;
},
{
glyphname = Uacute;
layers = (
{
anchors = (
{
name = H;
position = "{566, 0}";
},
{
name = L;
position = "{566, -76}";
},
{
name = O;
position = "{766, 0}";
},
{
name = R;
position = "{1134, 1012}";
},
{
name = U;
position = "{566, 1423}";
}
);
layerId = "233CC76B-C9AF-4A7F-B493-FFD1BBE88986";
paths = (
{
closed = 1;
nodes = (
"1028 1005 OFFCURVE",
"1001 988 OFFCURVE",
"978 952 CURVE",
"966 938 OFFCURVE",
"962 903 OFFCURVE",
"962 845 CURVE SMOOTH",
"962 425 LINE SMOOTH",
"962 282 OFFCURVE",
"944 167 OFFCURVE",
"871 90 CURVE SMOOTH",
"797 11 OFFCURVE",
"715 -24 OFFCURVE",
"562 -24 CURVE SMOOTH",
"139 -24 OFFCURVE",
"158 282 OFFCURVE",
"158 445 CURVE SMOOTH",
"158 850 LINE SMOOTH",
"158 914 OFFCURVE",
"150 954 OFFCURVE",
"132 975 CURVE",
"116 996 OFFCURVE",
"88 1005 OFFCURVE",
"46 1005 CURVE SMOOTH",
"23 1005 LINE",
"23 1032 LINE",
"439 1032 LINE",
"439 1005 LINE",
"400 1005 LINE SMOOTH",
"358 1005 OFFCURVE",
"342 992 OFFCURVE",
"323 964 CURVE",
"312 944 OFFCURVE",
"304 908 OFFCURVE",
"304 850 CURVE SMOOTH",
"304 400 LINE SMOOTH",
"304 265 OFFCURVE",
"310 40 OFFCURVE",
"573 40 CURVE SMOOTH",
"696 40 OFFCURVE",
"784 99 OFFCURVE",
"820 133 CURVE SMOOTH",
"886 193 OFFCURVE",
"893 323 OFFCURVE",
"893 395 CURVE SMOOTH",
"893 432 LINE",
"893 850 LINE SMOOTH",
"893 914 OFFCURVE",
"887 954 OFFCURVE",
"871 972 CURVE SMOOTH",
"851 994 OFFCURVE",
"822 1005 OFFCURVE",
"783 1005 CURVE SMOOTH",
"744 1005 LINE",
"744 1032 LINE",
"1110 1032 LINE",
"1110 1005 LINE",
"1071 1005 LINE SMOOTH"
);
},
{
closed = 1;
nodes = (
"785 1364 OFFCURVE",
"760 1393 OFFCURVE",
"744 1393 CURVE SMOOTH",
"711 1393 OFFCURVE",
"677 1369 OFFCURVE",
"650 1342 CURVE SMOOTH",
"434 1124 LINE",
"496 1124 LINE",
"721 1267 LINE SMOOTH",
"754 1288 OFFCURVE",
"785 1313 OFFCURVE",
"785 1343 CURVE SMOOTH"
);
}
);
width = 1126;
}
);
unicode = 00DA;
},
{
glyphname = Ucircumflex;
layers = (
{
anchors = (
{
name = H;
position = "{566, 0}";
},
{
name = L;
position = "{566, -76}";
},
{
name = O;
position = "{766, 0}";
},
{
name = R;
position = "{1134, 1012}";
},
{
name = U;
position = "{566, 1423}";
}
);
layerId = "233CC76B-C9AF-4A7F-B493-FFD1BBE88986";
paths = (
{
closed = 1;
nodes = (
"1028 1005 OFFCURVE",
"1001 988 OFFCURVE",
"978 952 CURVE",
"966 938 OFFCURVE",
"962 903 OFFCURVE",
"962 845 CURVE SMOOTH",
"962 425 LINE SMOOTH",
"962 282 OFFCURVE",
"944 167 OFFCURVE",
"871 90 CURVE SMOOTH",
"797 11 OFFCURVE",
"715 -24 OFFCURVE",
"562 -24 CURVE SMOOTH",
"139 -24 OFFCURVE",
"158 282 OFFCURVE",
"158 445 CURVE SMOOTH",
"158 850 LINE SMOOTH",
"158 914 OFFCURVE",
"150 954 OFFCURVE",
"132 975 CURVE",
"116 996 OFFCURVE",
"88 1005 OFFCURVE",
"46 1005 CURVE SMOOTH",
"23 1005 LINE",
"23 1032 LINE",
"439 1032 LINE",
"439 1005 LINE",
"400 1005 LINE SMOOTH",
"358 1005 OFFCURVE",
"342 992 OFFCURVE",
"323 964 CURVE",
"312 944 OFFCURVE",
"304 908 OFFCURVE",
"304 850 CURVE SMOOTH",
"304 400 LINE SMOOTH",
"304 265 OFFCURVE",
"310 40 OFFCURVE",
"573 40 CURVE SMOOTH",
"696 40 OFFCURVE",
"784 99 OFFCURVE",
"820 133 CURVE SMOOTH",
"886 193 OFFCURVE",
"893 323 OFFCURVE",
"893 395 CURVE SMOOTH",
"893 432 LINE",
"893 850 LINE SMOOTH",
"893 914 OFFCURVE",
"887 954 OFFCURVE",
"871 972 CURVE SMOOTH",
"851 994 OFFCURVE",
"822 1005 OFFCURVE",
"783 1005 CURVE SMOOTH",
"744 1005 LINE",
"744 1032 LINE",
"1110 1032 LINE",
"1110 1005 LINE",
"1071 1005 LINE SMOOTH"
);
},
{
closed = 1;
nodes = (
"566 1287 LINE",
"376 1124 LINE",
"322 1124 LINE",
"518 1386 LINE",
"616 1386 LINE",
"811 1124 LINE",
"757 1124 LINE"
);
}
);
width = 1126;
}
);
unicode = 00DB;
},
{
glyphname = Udieresis;
layers = (
{
anchors = (
{
name = H;
position = "{566, 0}";
},
{
name = L;
position = "{566, -76}";
},
{
name = O;
position = "{766, 0}";
},
{
name = R;
position = "{1134, 1012}";
},
{
name = U;
position = "{566, 1423}";
}
);
layerId = "233CC76B-C9AF-4A7F-B493-FFD1BBE88986";
paths = (
{
closed = 1;
nodes = (
"1028 1005 OFFCURVE",
"1001 988 OFFCURVE",
"978 952 CURVE",
"966 938 OFFCURVE",
"962 903 OFFCURVE",
"962 845 CURVE SMOOTH",
"962 425 LINE SMOOTH",
"962 282 OFFCURVE",
"944 167 OFFCURVE",
"871 90 CURVE SMOOTH",
"797 11 OFFCURVE",
"715 -24 OFFCURVE",
"562 -24 CURVE SMOOTH",
"139 -24 OFFCURVE",
"158 282 OFFCURVE",
"158 445 CURVE SMOOTH",
"158 850 LINE SMOOTH",
"158 914 OFFCURVE",
"150 954 OFFCURVE",
"132 975 CURVE",
"116 996 OFFCURVE",
"88 1005 OFFCURVE",
"46 1005 CURVE SMOOTH",
"23 1005 LINE",
"23 1032 LINE",
"439 1032 LINE",
"439 1005 LINE",
"400 1005 LINE SMOOTH",
"358 1005 OFFCURVE",
"342 992 OFFCURVE",
"323 964 CURVE",
"312 944 OFFCURVE",
"304 908 OFFCURVE",
"304 850 CURVE SMOOTH",
"304 400 LINE SMOOTH",
"304 265 OFFCURVE",
"310 40 OFFCURVE",
"573 40 CURVE SMOOTH",
"696 40 OFFCURVE",
"784 99 OFFCURVE",
"820 133 CURVE SMOOTH",
"886 193 OFFCURVE",
"893 323 OFFCURVE",
"893 395 CURVE SMOOTH",
"893 432 LINE",
"893 850 LINE SMOOTH",
"893 914 OFFCURVE",
"887 954 OFFCURVE",
"871 972 CURVE SMOOTH",
"851 994 OFFCURVE",
"822 1005 OFFCURVE",
"783 1005 CURVE SMOOTH",
"744 1005 LINE",
"744 1032 LINE",
"1110 1032 LINE",
"1110 1005 LINE",
"1071 1005 LINE SMOOTH"
);
},
{
closed = 1;
nodes = (
"800 1307 OFFCURVE",
"764 1343 OFFCURVE",
"721 1343 CURVE SMOOTH",
"683 1343 OFFCURVE",
"644 1304 OFFCURVE",
"644 1266 CURVE SMOOTH",
"644 1225 OFFCURVE",
"680 1187 OFFCURVE",
"721 1187 CURVE SMOOTH",
"764 1187 OFFCURVE",
"800 1224 OFFCURVE",
"800 1266 CURVE SMOOTH"
);
},
{
closed = 1;
nodes = (
"488 1307 OFFCURVE",
"452 1343 OFFCURVE",
"409 1343 CURVE SMOOTH",
"371 1343 OFFCURVE",
"333 1304 OFFCURVE",
"333 1266 CURVE SMOOTH",
"333 1225 OFFCURVE",
"369 1187 OFFCURVE",
"409 1187 CURVE SMOOTH",
"452 1187 OFFCURVE",
"488 1224 OFFCURVE",
"488 1266 CURVE SMOOTH"
);
}
);
width = 1126;
}
);
unicode = 00DC;
},
{
glyphname = Yacute;
layers = (
{
anchors = (
{
name = L;
position = "{558, -76}";
},
{
name = U;
position = "{558, 1423}";
}
);
layerId = "233CC76B-C9AF-4A7F-B493-FFD1BBE88986";
paths = (
{
closed = 1;
nodes = (
"1060 1005 OFFCURVE",
"1000 986 OFFCURVE",
"957 938 CURVE SMOOTH",
"936 914 OFFCURVE",
"912 879 OFFCURVE",
"880 829 CURVE SMOOTH",
"630 438 LINE",
"630 180 LINE SMOOTH",
"630 116 OFFCURVE",
"638 75 OFFCURVE",
"652 60 CURVE",
"670 40 OFFCURVE",
"701 29 OFFCURVE",
"744 29 CURVE SMOOTH",
"777 29 LINE",
"777 0 LINE",
"339 0 LINE",
"339 29 LINE",
"375 29 LINE SMOOTH",
"419 29 OFFCURVE",
"447 40 OFFCURVE",
"468 68 CURVE",
"477 84 OFFCURVE",
"482 119 OFFCURVE",
"482 180 CURVE SMOOTH",
"482 425 LINE",
"201 856 LINE",
"167 906 OFFCURVE",
"147 940 OFFCURVE",
"119 963 CURVE",
"92 982 OFFCURVE",
"55 1005 OFFCURVE",
"13 1005 CURVE",
"13 1032 LINE",
"457 1032 LINE",
"457 1005 LINE",
"434 1005 LINE SMOOTH",
"406 1005 OFFCURVE",
"338 993 OFFCURVE",
"338 938 CURVE SMOOTH",
"338 920 OFFCURVE",
"352 887 OFFCURVE",
"384 837 CURVE",
"598 505 LINE",
"803 823 LINE SMOOTH",
"848 893 OFFCURVE",
"864 932 OFFCURVE",
"836 969 CURVE",
"823 989 OFFCURVE",
"801 1005 OFFCURVE",
"744 1005 CURVE",
"744 1032 LINE",
"1103 1032 LINE",
"1103 1005 LINE",
"1084 1005 LINE SMOOTH"
);
},
{
closed = 1;
nodes = (
"776 1364 OFFCURVE",
"752 1393 OFFCURVE",
"736 1393 CURVE SMOOTH",
"702 1393 OFFCURVE",
"668 1369 OFFCURVE",
"642 1342 CURVE SMOOTH",
"425 1124 LINE",
"488 1124 LINE",
"713 1267 LINE SMOOTH",
"746 1288 OFFCURVE",
"776 1313 OFFCURVE",
"776 1343 CURVE SMOOTH"
);
}
);
width = 1126;
}
);
unicode = 00DD;
},
{
glyphname = Thorn;
layers = (
{
anchors = (
{
name = L;
position = "{419, -76}";
},
{
name = U;
position = "{419, 1092}";
}
);
layerId = "233CC76B-C9AF-4A7F-B493-FFD1BBE88986";
paths = (
{
closed = 1;
nodes = (
"808 618 OFFCURVE",
"754 692 OFFCURVE",
"684 740 CURVE SMOOTH",
"619 783 OFFCURVE",
"559 798 OFFCURVE",
"377 798 CURVE SMOOTH",
"320 798 LINE",
"320 849 LINE SMOOTH",
"320 899 OFFCURVE",
"322 916 OFFCURVE",
"333 949 CURVE SMOOTH",
"346 990 OFFCURVE",
"403 1005 OFFCURVE",
"437 1005 CURVE SMOOTH",
"468 1005 LINE",
"468 1032 LINE",
"29 1032 LINE",
"29 1005 LINE",
"57 1005 LINE SMOOTH",
"114 1005 OFFCURVE",
"154 979 OFFCURVE",
"164 949 CURVE",
"169 938 OFFCURVE",
"173 902 OFFCURVE",
"173 845 CURVE SMOOTH",
"173 183 LINE SMOOTH",
"173 122 OFFCURVE",
"167 84 OFFCURVE",
"158 70 CURVE SMOOTH",
"138 42 OFFCURVE",
"105 29 OFFCURVE",
"56 29 CURVE SMOOTH",
"29 29 LINE",
"29 0 LINE",
"468 0 LINE",
"468 29 LINE",
"437 29 LINE SMOOTH",
"393 29 OFFCURVE",
"365 37 OFFCURVE",
"346 57 CURVE",
"329 78 OFFCURVE",
"320 120 OFFCURVE",
"320 186 CURVE SMOOTH",
"320 232 LINE",
"374 232 LINE SMOOTH",
"616 232 OFFCURVE",
"672 270 OFFCURVE",
"726 323 CURVE",
"775 374 OFFCURVE",
"808 442 OFFCURVE",
"808 517 CURVE SMOOTH"
);
},
{
closed = 1;
nodes = (
"632 385 OFFCURVE",
"556 285 OFFCURVE",
"354 285 CURVE SMOOTH",
"320 285 LINE",
"320 740 LINE",
"355 740 LINE SMOOTH",
"494 740 OFFCURVE",
"505 724 OFFCURVE",
"546 696 CURVE",
"601 655 OFFCURVE",
"632 590 OFFCURVE",
"632 516 CURVE SMOOTH"
);
}
);
width = 867;
}
);
unicode = 00DE;
},
{
glyphname = germandbls;
layers = (
{
anchors = (
{
name = L;
position = "{379, -76}";
},
{
name = U;
position = "{379, 1092}";
}
);
layerId = "233CC76B-C9AF-4A7F-B493-FFD1BBE88986";
paths = (
{
closed = 1;
nodes = (
"731 489 OFFCURVE",
"654 588 OFFCURVE",
"522 626 CURVE",
"645 677 OFFCURVE",
"667 757 OFFCURVE",
"667 836 CURVE SMOOTH",
"667 982 OFFCURVE",
"561 1083 OFFCURVE",
"400 1083 CURVE SMOOTH",
"222 1083 OFFCURVE",
"127 984 OFFCURVE",
"127 737 CURVE SMOOTH",
"127 170 LINE SMOOTH",
"127 54 OFFCURVE",
"107 30 OFFCURVE",
"27 29 CURVE",
"27 0 LINE",
"255 0 LINE",
"255 789 LINE SMOOTH",
"255 992 OFFCURVE",
"314 1032 OFFCURVE",
"393 1032 CURVE SMOOTH",
"479 1032 OFFCURVE",
"540 978 OFFCURVE",
"540 840 CURVE SMOOTH",
"540 684 OFFCURVE",
"478 633 OFFCURVE",
"377 633 CURVE",
"377 590 LINE",
"531 577 OFFCURVE",
"600 447 OFFCURVE",
"600 239 CURVE SMOOTH",
"600 102 OFFCURVE",
"554 33 OFFCURVE",
"486 33 CURVE",
"459 36 OFFCURVE",
"442 45 OFFCURVE",
"442 68 CURVE SMOOTH",
"442 78 OFFCURVE",
"453 107 OFFCURVE",
"451 120 CURVE",
"450 156 OFFCURVE",
"428 180 OFFCURVE",
"388 180 CURVE SMOOTH",
"349 180 OFFCURVE",
"325 153 OFFCURVE",
"326 114 CURVE SMOOTH",
"329 42 OFFCURVE",
"390 -9 OFFCURVE",
"474 -9 CURVE SMOOTH",
"633 -9 OFFCURVE",
"731 147 OFFCURVE",
"731 321 CURVE SMOOTH"
);
}
);
width = 780;
}
);
unicode = 00DF;
},
{
glyphname = agrave;
layers = (
{
anchors = (
{
name = H;
position = "{339, 0}";
},
{
name = L;
position = "{339, -76}";
},
{
name = O;
position = "{622, 0}";
},
{
name = R;
position = "{693, 685}";
},
{
name = U;
position = "{339, 1092}";
}
);
layerId = "233CC76B-C9AF-4A7F-B493-FFD1BBE88986";
paths = (
{
closed = 1;
nodes = (
"635 25 OFFCURVE",
"579 -13 OFFCURVE",
"525 -13 CURVE SMOOTH",
"480 -13 OFFCURVE",
"444 12 OFFCURVE",
"444 100 CURVE",
"321 5 OFFCURVE",
"296 -13 OFFCURVE",
"222 -13 CURVE SMOOTH",
"123 -13 OFFCURVE",
"56 57 OFFCURVE",
"56 165 CURVE SMOOTH",
"56 268 OFFCURVE",
"113 349 OFFCURVE",
"444 462 CURVE",
"444 491 LINE SMOOTH",
"444 624 OFFCURVE",
"402 672 OFFCURVE",
"314 672 CURVE SMOOTH",
"250 672 OFFCURVE",
"212 635 OFFCURVE",
"209 587 CURVE",
"210 541 LINE",
"212 498 OFFCURVE",
"186 470 OFFCURVE",
"147 470 CURVE SMOOTH",
"107 470 OFFCURVE",
"83 497 OFFCURVE",
"83 543 CURVE SMOOTH",
"83 652 OFFCURVE",
"204 717 OFFCURVE",
"338 717 CURVE SMOOTH",
"540 717 OFFCURVE",
"572 626 OFFCURVE",
"572 479 CURVE SMOOTH",
"572 242 LINE SMOOTH",
"572 177 OFFCURVE",
"575 135 OFFCURVE",
"575 120 CURVE",
"581 93 OFFCURVE",
"590 83 OFFCURVE",
"609 83 CURVE SMOOTH",
"628 83 OFFCURVE",
"635 88 OFFCURVE",
"692 145 CURVE",
"692 100 LINE"
);
},
{
closed = 1;
nodes = (
"209 326 OFFCURVE",
"185 268 OFFCURVE",
"185 201 CURVE SMOOTH",
"185 129 OFFCURVE",
"232 75 OFFCURVE",
"291 73 CURVE",
"330 71 OFFCURVE",
"380 98 OFFCURVE",
"444 150 CURVE",
"444 417 LINE"
);
},
{
closed = 1;
nodes = (
"257 1011 LINE SMOOTH",
"229 1040 OFFCURVE",
"193 1062 OFFCURVE",
"167 1062 CURVE SMOOTH",
"136 1062 OFFCURVE",
"118 1040 OFFCURVE",
"118 1003 CURVE SMOOTH",
"118 976 OFFCURVE",
"160 952 OFFCURVE",
"186 936 CURVE SMOOTH",
"410 793 LINE",
"473 793 LINE"
);
}
);
width = 693;
}
);
unicode = 00E0;
},
{
glyphname = aacute;
layers = (
{
anchors = (
{
name = H;
position = "{339, 0}";
},
{
name = L;
position = "{339, -76}";
},
{
name = O;
position = "{622, 0}";
},
{
name = R;
position = "{693, 685}";
},
{
name = U;
position = "{339, 1092}";
}
);
layerId = "233CC76B-C9AF-4A7F-B493-FFD1BBE88986";
paths = (
{
closed = 1;
nodes = (
"635 25 OFFCURVE",
"579 -13 OFFCURVE",
"525 -13 CURVE SMOOTH",
"480 -13 OFFCURVE",
"444 12 OFFCURVE",
"444 100 CURVE",
"321 5 OFFCURVE",
"296 -13 OFFCURVE",
"222 -13 CURVE SMOOTH",
"123 -13 OFFCURVE",
"56 57 OFFCURVE",
"56 165 CURVE SMOOTH",
"56 268 OFFCURVE",
"113 349 OFFCURVE",
"444 462 CURVE",
"444 491 LINE SMOOTH",
"444 624 OFFCURVE",
"402 672 OFFCURVE",
"314 672 CURVE SMOOTH",
"250 672 OFFCURVE",
"212 635 OFFCURVE",
"209 587 CURVE",
"210 541 LINE",
"212 498 OFFCURVE",
"186 470 OFFCURVE",
"147 470 CURVE SMOOTH",
"107 470 OFFCURVE",
"83 497 OFFCURVE",
"83 543 CURVE SMOOTH",
"83 652 OFFCURVE",
"204 717 OFFCURVE",
"338 717 CURVE SMOOTH",
"540 717 OFFCURVE",
"572 626 OFFCURVE",
"572 479 CURVE SMOOTH",
"572 242 LINE SMOOTH",
"572 177 OFFCURVE",
"575 135 OFFCURVE",
"575 120 CURVE",
"581 93 OFFCURVE",
"590 83 OFFCURVE",
"609 83 CURVE SMOOTH",
"628 83 OFFCURVE",
"635 88 OFFCURVE",
"692 145 CURVE",
"692 100 LINE"
);
},
{
closed = 1;
nodes = (
"209 326 OFFCURVE",
"185 268 OFFCURVE",
"185 201 CURVE SMOOTH",
"185 129 OFFCURVE",
"232 75 OFFCURVE",
"291 73 CURVE",
"330 71 OFFCURVE",
"380 98 OFFCURVE",
"444 150 CURVE",
"444 417 LINE"
);
},
{
closed = 1;
nodes = (
"557 1033 OFFCURVE",
"533 1062 OFFCURVE",
"517 1062 CURVE SMOOTH",
"483 1062 OFFCURVE",
"449 1038 OFFCURVE",
"422 1011 CURVE SMOOTH",
"206 793 LINE",
"269 793 LINE",
"494 936 LINE SMOOTH",
"527 957 OFFCURVE",
"557 982 OFFCURVE",
"557 1012 CURVE SMOOTH"
);
}
);
width = 693;
}
);
unicode = 00E1;
},
{
glyphname = acircumflex;
layers = (
{
anchors = (
{
name = H;
position = "{339, 0}";
},
{
name = L;
position = "{339, -76}";
},
{
name = O;
position = "{622, 0}";
},
{
name = R;
position = "{693, 685}";
},
{
name = U;
position = "{339, 1092}";
}
);
layerId = "233CC76B-C9AF-4A7F-B493-FFD1BBE88986";
paths = (
{
closed = 1;
nodes = (
"635 25 OFFCURVE",
"579 -13 OFFCURVE",
"525 -13 CURVE SMOOTH",
"480 -13 OFFCURVE",
"444 12 OFFCURVE",
"444 100 CURVE",
"321 5 OFFCURVE",
"296 -13 OFFCURVE",
"222 -13 CURVE SMOOTH",
"123 -13 OFFCURVE",
"56 57 OFFCURVE",
"56 165 CURVE SMOOTH",
"56 268 OFFCURVE",
"113 349 OFFCURVE",
"444 462 CURVE",
"444 491 LINE SMOOTH",
"444 624 OFFCURVE",
"402 672 OFFCURVE",
"314 672 CURVE SMOOTH",
"250 672 OFFCURVE",
"212 635 OFFCURVE",
"209 587 CURVE",
"210 541 LINE",
"212 498 OFFCURVE",
"186 470 OFFCURVE",
"147 470 CURVE SMOOTH",
"107 470 OFFCURVE",
"83 497 OFFCURVE",
"83 543 CURVE SMOOTH",
"83 652 OFFCURVE",
"204 717 OFFCURVE",
"338 717 CURVE SMOOTH",
"540 717 OFFCURVE",
"572 626 OFFCURVE",
"572 479 CURVE SMOOTH",
"572 242 LINE SMOOTH",
"572 177 OFFCURVE",
"575 135 OFFCURVE",
"575 120 CURVE",
"581 93 OFFCURVE",
"590 83 OFFCURVE",
"609 83 CURVE SMOOTH",
"628 83 OFFCURVE",
"635 88 OFFCURVE",
"692 145 CURVE",
"692 100 LINE"
);
},
{
closed = 1;
nodes = (
"209 326 OFFCURVE",
"185 268 OFFCURVE",
"185 201 CURVE SMOOTH",
"185 129 OFFCURVE",
"232 75 OFFCURVE",
"291 73 CURVE",
"330 71 OFFCURVE",
"380 98 OFFCURVE",
"444 150 CURVE",
"444 417 LINE"
);
},
{
closed = 1;
nodes = (
"339 956 LINE",
"148 793 LINE",
"94 793 LINE",
"291 1055 LINE",
"388 1055 LINE",
"584 793 LINE",
"530 793 LINE"
);
}
);
width = 693;
}
);
unicode = 00E2;
},
{
glyphname = atilde;
layers = (
{
anchors = (
{
name = H;
position = "{339, 0}";
},
{
name = L;
position = "{339, -76}";
},
{
name = O;
position = "{622, 0}";
},
{
name = R;
position = "{693, 685}";
},
{
name = U;
position = "{339, 1092}";
}
);
layerId = "233CC76B-C9AF-4A7F-B493-FFD1BBE88986";
paths = (
{
closed = 1;
nodes = (
"635 25 OFFCURVE",
"579 -13 OFFCURVE",
"525 -13 CURVE SMOOTH",
"480 -13 OFFCURVE",
"444 12 OFFCURVE",
"444 100 CURVE",
"321 5 OFFCURVE",
"296 -13 OFFCURVE",
"222 -13 CURVE SMOOTH",
"123 -13 OFFCURVE",
"56 57 OFFCURVE",
"56 165 CURVE SMOOTH",
"56 268 OFFCURVE",
"113 349 OFFCURVE",
"444 462 CURVE",
"444 491 LINE SMOOTH",
"444 624 OFFCURVE",
"402 672 OFFCURVE",
"314 672 CURVE SMOOTH",
"250 672 OFFCURVE",
"212 635 OFFCURVE",
"209 587 CURVE",
"210 541 LINE",
"212 498 OFFCURVE",
"186 470 OFFCURVE",
"147 470 CURVE SMOOTH",
"107 470 OFFCURVE",
"83 497 OFFCURVE",
"83 543 CURVE SMOOTH",
"83 652 OFFCURVE",
"204 717 OFFCURVE",
"338 717 CURVE SMOOTH",
"540 717 OFFCURVE",
"572 626 OFFCURVE",
"572 479 CURVE SMOOTH",
"572 242 LINE SMOOTH",
"572 177 OFFCURVE",
"575 135 OFFCURVE",
"575 120 CURVE",
"581 93 OFFCURVE",
"590 83 OFFCURVE",
"609 83 CURVE SMOOTH",
"628 83 OFFCURVE",
"635 88 OFFCURVE",
"692 145 CURVE",
"692 100 LINE"
);
},
{
closed = 1;
nodes = (
"209 326 OFFCURVE",
"185 268 OFFCURVE",
"185 201 CURVE SMOOTH",
"185 129 OFFCURVE",
"232 75 OFFCURVE",
"291 73 CURVE",
"330 71 OFFCURVE",
"380 98 OFFCURVE",
"444 150 CURVE",
"444 417 LINE"
);
},
{
closed = 1;
nodes = (
"590 940 OFFCURVE",
"520 856 OFFCURVE",
"433 856 CURVE SMOOTH",
"319 856 OFFCURVE",
"309 928 OFFCURVE",
"208 928 CURVE SMOOTH",
"167 928 OFFCURVE",
"123 890 OFFCURVE",
"119 856 CURVE",
"79 856 LINE",
"102 946 OFFCURVE",
"153 1015 OFFCURVE",
"252 1015 CURVE SMOOTH",
"330 1015 OFFCURVE",
"371 946 OFFCURVE",
"450 946 CURVE SMOOTH",
"499 946 OFFCURVE",
"545 973 OFFCURVE",
"557 1023 CURVE",
"598 1023 LINE"
);
}
);
width = 693;
}
);
unicode = 00E3;
},
{
glyphname = adieresis;
layers = (
{
anchors = (
{
name = H;
position = "{339, 0}";
},
{
name = L;
position = "{339, -76}";
},
{
name = O;
position = "{622, 0}";
},
{
name = R;
position = "{693, 685}";
},
{
name = U;
position = "{339, 1092}";
}
);
layerId = "233CC76B-C9AF-4A7F-B493-FFD1BBE88986";
paths = (
{
closed = 1;
nodes = (
"635 25 OFFCURVE",
"579 -13 OFFCURVE",
"525 -13 CURVE SMOOTH",
"480 -13 OFFCURVE",
"444 12 OFFCURVE",
"444 100 CURVE",
"321 5 OFFCURVE",
"296 -13 OFFCURVE",
"222 -13 CURVE SMOOTH",
"123 -13 OFFCURVE",
"56 57 OFFCURVE",
"56 165 CURVE SMOOTH",
"56 268 OFFCURVE",
"113 349 OFFCURVE",
"444 462 CURVE",
"444 491 LINE SMOOTH",
"444 624 OFFCURVE",
"402 672 OFFCURVE",
"314 672 CURVE SMOOTH",
"250 672 OFFCURVE",
"212 635 OFFCURVE",
"209 587 CURVE",
"210 541 LINE",
"212 498 OFFCURVE",
"186 470 OFFCURVE",
"147 470 CURVE SMOOTH",
"107 470 OFFCURVE",
"83 497 OFFCURVE",
"83 543 CURVE SMOOTH",
"83 652 OFFCURVE",
"204 717 OFFCURVE",
"338 717 CURVE SMOOTH",
"540 717 OFFCURVE",
"572 626 OFFCURVE",
"572 479 CURVE SMOOTH",
"572 242 LINE SMOOTH",
"572 177 OFFCURVE",
"575 135 OFFCURVE",
"575 120 CURVE",
"581 93 OFFCURVE",
"590 83 OFFCURVE",
"609 83 CURVE SMOOTH",
"628 83 OFFCURVE",
"635 88 OFFCURVE",
"692 145 CURVE",
"692 100 LINE"
);
},
{
closed = 1;
nodes = (
"209 326 OFFCURVE",
"185 268 OFFCURVE",
"185 201 CURVE SMOOTH",
"185 129 OFFCURVE",
"232 75 OFFCURVE",
"291 73 CURVE",
"330 71 OFFCURVE",
"380 98 OFFCURVE",
"444 150 CURVE",
"444 417 LINE"
);
},
{
closed = 1;
nodes = (
"572 976 OFFCURVE",
"537 1012 OFFCURVE",
"494 1012 CURVE SMOOTH",
"455 1012 OFFCURVE",
"416 973 OFFCURVE",
"416 935 CURVE SMOOTH",
"416 894 OFFCURVE",
"452 856 OFFCURVE",
"494 856 CURVE SMOOTH",
"537 856 OFFCURVE",
"572 893 OFFCURVE",
"572 935 CURVE SMOOTH"
);
},
{
closed = 1;
nodes = (
"260 976 OFFCURVE",
"224 1012 OFFCURVE",
"182 1012 CURVE SMOOTH",
"143 1012 OFFCURVE",
"106 973 OFFCURVE",
"106 935 CURVE SMOOTH",
"106 894 OFFCURVE",
"142 856 OFFCURVE",
"182 856 CURVE SMOOTH",
"224 856 OFFCURVE",
"260 893 OFFCURVE",
"260 935 CURVE SMOOTH"
);
}
);
width = 693;
}
);
unicode = 00E4;
},
{
glyphname = aring;
layers = (
{
anchors = (
{
name = H;
position = "{339, 0}";
},
{
name = L;
position = "{339, -76}";
},
{
name = O;
position = "{622, 0}";
},
{
name = R;
position = "{693, 685}";
},
{
name = U;
position = "{339, 1092}";
}
);
layerId = "233CC76B-C9AF-4A7F-B493-FFD1BBE88986";
paths = (
{
closed = 1;
nodes = (
"635 25 OFFCURVE",
"579 -13 OFFCURVE",
"525 -13 CURVE SMOOTH",
"480 -13 OFFCURVE",
"444 12 OFFCURVE",
"444 100 CURVE",
"321 5 OFFCURVE",
"296 -13 OFFCURVE",
"222 -13 CURVE SMOOTH",
"123 -13 OFFCURVE",
"56 57 OFFCURVE",
"56 165 CURVE SMOOTH",
"56 268 OFFCURVE",
"113 349 OFFCURVE",
"444 462 CURVE",
"444 491 LINE SMOOTH",
"444 624 OFFCURVE",
"402 672 OFFCURVE",
"314 672 CURVE SMOOTH",
"250 672 OFFCURVE",
"212 635 OFFCURVE",
"209 587 CURVE",
"210 541 LINE",
"212 498 OFFCURVE",
"186 470 OFFCURVE",
"147 470 CURVE SMOOTH",
"107 470 OFFCURVE",
"83 497 OFFCURVE",
"83 543 CURVE SMOOTH",
"83 652 OFFCURVE",
"204 717 OFFCURVE",
"338 717 CURVE SMOOTH",
"540 717 OFFCURVE",
"572 626 OFFCURVE",
"572 479 CURVE SMOOTH",
"572 242 LINE SMOOTH",
"572 177 OFFCURVE",
"575 135 OFFCURVE",
"575 120 CURVE",
"581 93 OFFCURVE",
"590 83 OFFCURVE",
"609 83 CURVE SMOOTH",
"628 83 OFFCURVE",
"635 88 OFFCURVE",
"692 145 CURVE",
"692 100 LINE"
);
},
{
closed = 1;
nodes = (
"209 326 OFFCURVE",
"185 268 OFFCURVE",
"185 201 CURVE SMOOTH",
"185 129 OFFCURVE",
"232 75 OFFCURVE",
"291 73 CURVE",
"330 71 OFFCURVE",
"380 98 OFFCURVE",
"444 150 CURVE",
"444 417 LINE"
);
},
{
closed = 1;
nodes = (
"484 1029 OFFCURVE",
"412 1084 OFFCURVE",
"340 1084 CURVE SMOOTH",
"262 1084 OFFCURVE",
"193 1026 OFFCURVE",
"193 939 CURVE SMOOTH",
"193 852 OFFCURVE",
"268 793 OFFCURVE",
"340 793 CURVE SMOOTH",
"412 793 OFFCURVE",
"484 852 OFFCURVE",
"484 939 CURVE SMOOTH"
);
},
{
closed = 1;
nodes = (
"432 889 OFFCURVE",
"391 846 OFFCURVE",
"340 846 CURVE SMOOTH",
"292 846 OFFCURVE",
"246 880 OFFCURVE",
"246 939 CURVE SMOOTH",
"246 995 OFFCURVE",
"289 1032 OFFCURVE",
"340 1032 CURVE SMOOTH",
"387 1032 OFFCURVE",
"432 995 OFFCURVE",
"432 939 CURVE SMOOTH"
);
}
);
width = 693;
}
);
unicode = 00E5;
},
{
glyphname = ae;
layers = (
{
anchors = (
{
name = H;
position = "{524, 0}";
},
{
name = L;
position = "{524, -76}";
},
{
name = O;
position = "{852, 0}";
},
{
name = R;
position = "{1041, 685}";
},
{
name = U;
position = "{524, 761}";
}
);
layerId = "233CC76B-C9AF-4A7F-B493-FFD1BBE88986";
paths = (
{
closed = 1;
nodes = (
"969 261 LINE",
"900 93 OFFCURVE",
"783 93 OFFCURVE",
"753 93 CURVE SMOOTH",
"707 93 OFFCURVE",
"637 111 OFFCURVE",
"597 182 CURVE",
"567 231 OFFCURVE",
"558 307 OFFCURVE",
"558 432 CURVE",
"993 432 LINE",
"990 613 OFFCURVE",
"896 717 OFFCURVE",
"746 717 CURVE SMOOTH",
"655 717 OFFCURVE",
"591 693 OFFCURVE",
"541 626 CURVE",
"521 678 OFFCURVE",
"462 717 OFFCURVE",
"336 717 CURVE SMOOTH",
"159 717 OFFCURVE",
"80 621 OFFCURVE",
"80 546 CURVE SMOOTH",
"80 507 OFFCURVE",
"99 473 OFFCURVE",
"148 473 CURVE",
"189 477 OFFCURVE",
"205 488 OFFCURVE",
"209 594 CURVE SMOOTH",
"210 638 OFFCURVE",
"250 675 OFFCURVE",
"317 675 CURVE SMOOTH",
"385 675 OFFCURVE",
"429 635 OFFCURVE",
"429 524 CURVE SMOOTH",
"429 455 LINE",
"158 345 OFFCURVE",
"56 294 OFFCURVE",
"56 153 CURVE SMOOTH",
"56 56 OFFCURVE",
"132 -23 OFFCURVE",
"226 -23 CURVE SMOOTH",
"348 -23 OFFCURVE",
"442 63 OFFCURVE",
"486 100 CURVE",
"575 -14 OFFCURVE",
"640 -23 OFFCURVE",
"711 -23 CURVE SMOOTH",
"874 -23 OFFCURVE",
"956 105 OFFCURVE",
"993 244 CURVE"
);
},
{
closed = 1;
nodes = (
"558 481 LINE",
"561 606 OFFCURVE",
"629 664 OFFCURVE",
"707 664 CURVE SMOOTH",
"786 664 OFFCURVE",
"845 613 OFFCURVE",
"847 481 CURVE"
);
},
{
closed = 1;
nodes = (
"380 75 OFFCURVE",
"345 59 OFFCURVE",
"306 60 CURVE SMOOTH",
"239 62 OFFCURVE",
"185 122 OFFCURVE",
"185 196 CURVE SMOOTH",
"185 312 OFFCURVE",
"315 361 OFFCURVE",
"429 405 CURVE",
"429 338 LINE SMOOTH",
"429 263 OFFCURVE",
"444 182 OFFCURVE",
"465 142 CURVE"
);
}
);
width = 1041;
}
);
unicode = 00E6;
},
{
glyphname = ccedilla;
layers = (
{
anchors = (
{
name = L;
position = "{346, -457}";
},
{
name = R;
position = "{693, 685}";
},
{
name = U;
position = "{365, 761}";
}
);
layerId = "233CC76B-C9AF-4A7F-B493-FFD1BBE88986";
paths = (
{
closed = 1;
nodes = (
"613 97 OFFCURVE",
"486 -23 OFFCURVE",
"349 -23 CURVE SMOOTH",
"185 -23 OFFCURVE",
"53 123 OFFCURVE",
"53 348 CURVE SMOOTH",
"53 569 OFFCURVE",
"205 717 OFFCURVE",
"385 717 CURVE SMOOTH",
"454 717 OFFCURVE",
"511 699 OFFCURVE",
"555 663 CURVE SMOOTH",
"598 627 OFFCURVE",
"622 590 OFFCURVE",
"622 551 CURVE SMOOTH",
"622 515 OFFCURVE",
"599 486 OFFCURVE",
"551 486 CURVE SMOOTH",
"521 486 OFFCURVE",
"473 492 OFFCURVE",
"466 575 CURVE",
"461 630 OFFCURVE",
"431 667 OFFCURVE",
"361 667 CURVE SMOOTH",
"244 667 OFFCURVE",
"177 558 OFFCURVE",
"177 414 CURVE SMOOTH",
"177 249 OFFCURVE",
"258 99 OFFCURVE",
"403 99 CURVE SMOOTH",
"489 99 OFFCURVE",
"559 132 OFFCURVE",
"619 276 CURVE",
"640 265 LINE"
);
},
{
closed = 1;
nodes = (
"510 -130 OFFCURVE",
"447 -97 OFFCURVE",
"380 -97 CURVE SMOOTH",
"364 -97 OFFCURVE",
"349 -99 OFFCURVE",
"335 -102 CURVE",
"383 19 LINE",
"327 19 LINE",
"253 -154 LINE",
"266 -164 LINE",
"287 -158 OFFCURVE",
"312 -154 OFFCURVE",
"336 -156 CURVE SMOOTH",
"371 -159 OFFCURVE",
"393 -180 OFFCURVE",
"393 -216 CURVE SMOOTH",
"393 -260 OFFCURVE",
"360 -282 OFFCURVE",
"302 -282 CURVE SMOOTH",
"276 -282 OFFCURVE",
"233 -273 OFFCURVE",
"206 -263 CURVE",
"183 -312 LINE",
"222 -325 OFFCURVE",
"267 -336 OFFCURVE",
"310 -336 CURVE SMOOTH",
"408 -336 OFFCURVE",
"510 -288 OFFCURVE",
"510 -205 CURVE SMOOTH"
);
}
);
width = 693;
}
);
unicode = 00E7;
},
{
glyphname = egrave;
layers = (
{
anchors = (
{
name = H;
position = "{352, 0}";
},
{
name = L;
position = "{369, -76}";
},
{
name = O;
position = "{503, 0}";
},
{
name = R;
position = "{693, 685}";
},
{
name = U;
position = "{369, 1092}";
}
);
layerId = "233CC76B-C9AF-4A7F-B493-FFD1BBE88986";
paths = (
{
closed = 1;
nodes = (
"628 119 OFFCURVE",
"521 -23 OFFCURVE",
"361 -23 CURVE SMOOTH",
"196 -23 OFFCURVE",
"57 119 OFFCURVE",
"57 341 CURVE SMOOTH",
"57 576 OFFCURVE",
"192 718 OFFCURVE",
"380 718 CURVE SMOOTH",
"535 718 OFFCURVE",
"648 612 OFFCURVE",
"648 435 CURVE",
"165 435 LINE",
"165 227 OFFCURVE",
"283 106 OFFCURVE",
"419 103 CURVE",
"510 101 OFFCURVE",
"575 142 OFFCURVE",
"624 270 CURVE",
"648 255 LINE"
);
},
{
closed = 1;
nodes = (
"489 632 OFFCURVE",
"388 664 OFFCURVE",
"338 664 CURVE SMOOTH",
"256 664 OFFCURVE",
"177 598 OFFCURVE",
"165 478 CURVE",
"489 478 LINE"
);
},
{
closed = 1;
nodes = (
"288 1011 LINE SMOOTH",
"260 1040 OFFCURVE",
"223 1062 OFFCURVE",
"197 1062 CURVE SMOOTH",
"167 1062 OFFCURVE",
"148 1040 OFFCURVE",
"148 1003 CURVE SMOOTH",
"148 976 OFFCURVE",
"190 952 OFFCURVE",
"216 936 CURVE SMOOTH",
"441 793 LINE",
"504 793 LINE"
);
}
);
width = 693;
}
);
unicode = 00E8;
},
{
glyphname = eacute;
layers = (
{
anchors = (
{
name = H;
position = "{352, 0}";
},
{
name = L;
position = "{369, -76}";
},
{
name = O;
position = "{503, 0}";
},
{
name = R;
position = "{693, 685}";
},
{
name = U;
position = "{369, 1092}";
}
);
layerId = "233CC76B-C9AF-4A7F-B493-FFD1BBE88986";
paths = (
{
closed = 1;
nodes = (
"628 119 OFFCURVE",
"521 -23 OFFCURVE",
"361 -23 CURVE SMOOTH",
"196 -23 OFFCURVE",
"57 119 OFFCURVE",
"57 341 CURVE SMOOTH",
"57 576 OFFCURVE",
"192 718 OFFCURVE",
"380 718 CURVE SMOOTH",
"535 718 OFFCURVE",
"648 612 OFFCURVE",
"648 435 CURVE",
"165 435 LINE",
"165 227 OFFCURVE",
"283 106 OFFCURVE",
"419 103 CURVE",
"510 101 OFFCURVE",
"575 142 OFFCURVE",
"624 270 CURVE",
"648 255 LINE"
);
},
{
closed = 1;
nodes = (
"489 632 OFFCURVE",
"388 664 OFFCURVE",
"338 664 CURVE SMOOTH",
"256 664 OFFCURVE",
"177 598 OFFCURVE",
"165 478 CURVE",
"489 478 LINE"
);
},
{
closed = 1;
nodes = (
"587 1033 OFFCURVE",
"563 1062 OFFCURVE",
"547 1062 CURVE SMOOTH",
"514 1062 OFFCURVE",
"479 1038 OFFCURVE",
"453 1011 CURVE SMOOTH",
"237 793 LINE",
"299 793 LINE",
"524 936 LINE SMOOTH",
"557 957 OFFCURVE",
"587 982 OFFCURVE",
"587 1012 CURVE SMOOTH"
);
}
);
width = 693;
}
);
unicode = 00E9;
},
{
glyphname = ecircumflex;
layers = (
{
anchors = (
{
name = H;
position = "{352, 0}";
},
{
name = L;
position = "{369, -76}";
},
{
name = O;
position = "{503, 0}";
},
{
name = R;
position = "{693, 685}";
},
{
name = U;
position = "{369, 1092}";
}
);
layerId = "233CC76B-C9AF-4A7F-B493-FFD1BBE88986";
paths = (
{
closed = 1;
nodes = (
"628 119 OFFCURVE",
"521 -23 OFFCURVE",
"361 -23 CURVE SMOOTH",
"196 -23 OFFCURVE",
"57 119 OFFCURVE",
"57 341 CURVE SMOOTH",
"57 576 OFFCURVE",
"192 718 OFFCURVE",
"380 718 CURVE SMOOTH",
"535 718 OFFCURVE",
"648 612 OFFCURVE",
"648 435 CURVE",
"165 435 LINE",
"165 227 OFFCURVE",
"283 106 OFFCURVE",
"419 103 CURVE",
"510 101 OFFCURVE",
"575 142 OFFCURVE",
"624 270 CURVE",
"648 255 LINE"
);
},
{
closed = 1;
nodes = (
"489 632 OFFCURVE",
"388 664 OFFCURVE",
"338 664 CURVE SMOOTH",
"256 664 OFFCURVE",
"177 598 OFFCURVE",
"165 478 CURVE",
"489 478 LINE"
);
},
{
closed = 1;
nodes = (
"369 956 LINE",
"179 793 LINE",
"125 793 LINE",
"321 1055 LINE",
"419 1055 LINE",
"614 793 LINE",
"560 793 LINE"
);
}
);
width = 693;
}
);
unicode = 00EA;
},
{
glyphname = edieresis;
layers = (
{
anchors = (
{
name = H;
position = "{352, 0}";
},
{
name = L;
position = "{369, -76}";
},
{
name = O;
position = "{503, 0}";
},
{
name = R;
position = "{693, 685}";
},
{
name = U;
position = "{369, 1092}";
}
);
layerId = "233CC76B-C9AF-4A7F-B493-FFD1BBE88986";
paths = (
{
closed = 1;
nodes = (
"628 119 OFFCURVE",
"521 -23 OFFCURVE",
"361 -23 CURVE SMOOTH",
"196 -23 OFFCURVE",
"57 119 OFFCURVE",
"57 341 CURVE SMOOTH",
"57 576 OFFCURVE",
"192 718 OFFCURVE",
"380 718 CURVE SMOOTH",
"535 718 OFFCURVE",
"648 612 OFFCURVE",
"648 435 CURVE",
"165 435 LINE",
"165 227 OFFCURVE",
"283 106 OFFCURVE",
"419 103 CURVE",
"510 101 OFFCURVE",
"575 142 OFFCURVE",
"624 270 CURVE",
"648 255 LINE"
);
},
{
closed = 1;
nodes = (
"489 632 OFFCURVE",
"388 664 OFFCURVE",
"338 664 CURVE SMOOTH",
"256 664 OFFCURVE",
"177 598 OFFCURVE",
"165 478 CURVE",
"489 478 LINE"
);
},
{
closed = 1;
nodes = (
"603 976 OFFCURVE",
"567 1012 OFFCURVE",
"524 1012 CURVE SMOOTH",
"486 1012 OFFCURVE",
"447 973 OFFCURVE",
"447 935 CURVE SMOOTH",
"447 894 OFFCURVE",
"482 856 OFFCURVE",
"524 856 CURVE SMOOTH",
"567 856 OFFCURVE",
"603 893 OFFCURVE",
"603 935 CURVE SMOOTH"
);
},
{
closed = 1;
nodes = (
"291 976 OFFCURVE",
"255 1012 OFFCURVE",
"212 1012 CURVE SMOOTH",
"174 1012 OFFCURVE",
"136 973 OFFCURVE",
"136 935 CURVE SMOOTH",
"136 894 OFFCURVE",
"172 856 OFFCURVE",
"212 856 CURVE SMOOTH",
"255 856 OFFCURVE",
"291 893 OFFCURVE",
"291 935 CURVE SMOOTH"
);
}
);
width = 693;
}
);
unicode = 00EB;
},
{
glyphname = igrave;
layers = (
{
anchors = (
{
name = H;
position = "{224, 0}";
},
{
name = L;
position = "{224, -76}";
},
{
name = O;
position = "{339, 0}";
},
{
name = R;
position = "{434, 685}";
},
{
name = U;
position = "{224, 1092}";
}
);
layerId = "233CC76B-C9AF-4A7F-B493-FFD1BBE88986";
paths = (
{
closed = 1;
nodes = (
"400 29 LINE",
"343 29 OFFCURVE",
"330 31 OFFCURVE",
"310 54 CURVE SMOOTH",
"298 68 OFFCURVE",
"292 96 OFFCURVE",
"292 158 CURVE SMOOTH",
"292 717 LINE",
"260 717 LINE",
"49 633 LINE",
"59 606 LINE",
"102 621 OFFCURVE",
"126 622 OFFCURVE",
"145 606 CURVE SMOOTH",
"165 588 OFFCURVE",
"165 551 OFFCURVE",
"165 426 CURVE SMOOTH",
"165 158 LINE SMOOTH",
"165 93 OFFCURVE",
"158 70 OFFCURVE",
"145 53 CURVE SMOOTH",
"130 34 OFFCURVE",
"110 29 OFFCURVE",
"59 29 CURVE",
"59 0 LINE",
"400 0 LINE"
);
},
{
closed = 1;
nodes = (
"142 1011 LINE SMOOTH",
"114 1040 OFFCURVE",
"78 1062 OFFCURVE",
"52 1062 CURVE SMOOTH",
"21 1062 OFFCURVE",
"3 1040 OFFCURVE",
"3 1003 CURVE SMOOTH",
"3 976 OFFCURVE",
"45 952 OFFCURVE",
"71 936 CURVE SMOOTH",
"295 793 LINE",
"358 793 LINE"
);
}
);
width = 434;
}
);
unicode = 00EC;
},
{
glyphname = iacute;
layers = (
{
anchors = (
{
name = H;
position = "{224, 0}";
},
{
name = L;
position = "{224, -76}";
},
{
name = O;
position = "{339, 0}";
},
{
name = R;
position = "{434, 685}";
},
{
name = U;
position = "{224, 1092}";
}
);
layerId = "233CC76B-C9AF-4A7F-B493-FFD1BBE88986";
paths = (
{
closed = 1;
nodes = (
"400 29 LINE",
"343 29 OFFCURVE",
"330 31 OFFCURVE",
"310 54 CURVE SMOOTH",
"298 68 OFFCURVE",
"292 96 OFFCURVE",
"292 158 CURVE SMOOTH",
"292 717 LINE",
"260 717 LINE",
"49 633 LINE",
"59 606 LINE",
"102 621 OFFCURVE",
"126 622 OFFCURVE",
"145 606 CURVE SMOOTH",
"165 588 OFFCURVE",
"165 551 OFFCURVE",
"165 426 CURVE SMOOTH",
"165 158 LINE SMOOTH",
"165 93 OFFCURVE",
"158 70 OFFCURVE",
"145 53 CURVE SMOOTH",
"130 34 OFFCURVE",
"110 29 OFFCURVE",
"59 29 CURVE",
"59 0 LINE",
"400 0 LINE"
);
},
{
closed = 1;
nodes = (
"442 1033 OFFCURVE",
"418 1062 OFFCURVE",
"402 1062 CURVE SMOOTH",
"368 1062 OFFCURVE",
"334 1038 OFFCURVE",
"307 1011 CURVE SMOOTH",
"91 793 LINE",
"154 793 LINE",
"379 936 LINE SMOOTH",
"412 957 OFFCURVE",
"442 982 OFFCURVE",
"442 1012 CURVE SMOOTH"
);
}
);
width = 434;
}
);
unicode = 00ED;
},
{
glyphname = icircumflex;
layers = (
{
anchors = (
{
name = H;
position = "{224, 0}";
},
{
name = L;
position = "{224, -76}";
},
{
name = O;
position = "{339, 0}";
},
{
name = R;
position = "{434, 685}";
},
{
name = U;
position = "{224, 1092}";
}
);
layerId = "233CC76B-C9AF-4A7F-B493-FFD1BBE88986";
paths = (
{
closed = 1;
nodes = (
"400 29 LINE",
"343 29 OFFCURVE",
"330 31 OFFCURVE",
"310 54 CURVE SMOOTH",
"298 68 OFFCURVE",
"292 96 OFFCURVE",
"292 158 CURVE SMOOTH",
"292 717 LINE",
"260 717 LINE",
"49 633 LINE",
"59 606 LINE",
"102 621 OFFCURVE",
"126 622 OFFCURVE",
"145 606 CURVE SMOOTH",
"165 588 OFFCURVE",
"165 551 OFFCURVE",
"165 426 CURVE SMOOTH",
"165 158 LINE SMOOTH",
"165 93 OFFCURVE",
"158 70 OFFCURVE",
"145 53 CURVE SMOOTH",
"130 34 OFFCURVE",
"110 29 OFFCURVE",
"59 29 CURVE",
"59 0 LINE",
"400 0 LINE"
);
},
{
closed = 1;
nodes = (
"224 956 LINE",
"33 793 LINE",
"-21 793 LINE",
"176 1055 LINE",
"273 1055 LINE",
"469 793 LINE",
"415 793 LINE"
);
}
);
width = 434;
}
);
unicode = 00EE;
},
{
glyphname = idieresis;
layers = (
{
anchors = (
{
name = H;
position = "{224, 0}";
},
{
name = L;
position = "{224, -76}";
},
{
name = O;
position = "{339, 0}";
},
{
name = R;
position = "{434, 685}";
},
{
name = U;
position = "{224, 1092}";
}
);
layerId = "233CC76B-C9AF-4A7F-B493-FFD1BBE88986";
paths = (
{
closed = 1;
nodes = (
"400 29 LINE",
"343 29 OFFCURVE",
"330 31 OFFCURVE",
"310 54 CURVE SMOOTH",
"298 68 OFFCURVE",
"292 96 OFFCURVE",
"292 158 CURVE SMOOTH",
"292 717 LINE",
"260 717 LINE",
"49 633 LINE",
"59 606 LINE",
"102 621 OFFCURVE",
"126 622 OFFCURVE",
"145 606 CURVE SMOOTH",
"165 588 OFFCURVE",
"165 551 OFFCURVE",
"165 426 CURVE SMOOTH",
"165 158 LINE SMOOTH",
"165 93 OFFCURVE",
"158 70 OFFCURVE",
"145 53 CURVE SMOOTH",
"130 34 OFFCURVE",
"110 29 OFFCURVE",
"59 29 CURVE",
"59 0 LINE",
"400 0 LINE"
);
},
{
closed = 1;
nodes = (
"457 976 OFFCURVE",
"422 1012 OFFCURVE",
"379 1012 CURVE SMOOTH",
"340 1012 OFFCURVE",
"301 973 OFFCURVE",
"301 935 CURVE SMOOTH",
"301 894 OFFCURVE",
"337 856 OFFCURVE",
"379 856 CURVE SMOOTH",
"422 856 OFFCURVE",
"457 893 OFFCURVE",
"457 935 CURVE SMOOTH"
);
},
{
closed = 1;
nodes = (
"145 976 OFFCURVE",
"110 1012 OFFCURVE",
"67 1012 CURVE SMOOTH",
"28 1012 OFFCURVE",
"-9 973 OFFCURVE",
"-9 935 CURVE SMOOTH",
"-9 894 OFFCURVE",
"27 856 OFFCURVE",
"67 856 CURVE SMOOTH",
"110 856 OFFCURVE",
"145 893 OFFCURVE",
"145 935 CURVE SMOOTH"
);
}
);
width = 434;
}
);
unicode = 00EF;
},
{
glyphname = eth;
layers = (
{
anchors = (
{
name = L;
position = "{387, -76}";
},
{
name = U;
position = "{387, 1092}";
}
);
layerId = "233CC76B-C9AF-4A7F-B493-FFD1BBE88986";
paths = (
{
closed = 1;
nodes = (
"723 554 OFFCURVE",
"618 763 OFFCURVE",
"431 930 CURVE",
"606 1029 LINE",
"579 1071 LINE",
"390 966 LINE",
"323 1014 OFFCURVE",
"263 1053 OFFCURVE",
"201 1083 CURVE",
"182 1050 LINE",
"239 1009 OFFCURVE",
"258 996 OFFCURVE",
"323 930 CURVE",
"147 829 LINE",
"167 788 LINE",
"357 891 LINE",
"414 825 OFFCURVE",
"460 750 OFFCURVE",
"501 667 CURVE",
"441 711 OFFCURVE",
"416 711 OFFCURVE",
"372 711 CURVE SMOOTH",
"186 711 OFFCURVE",
"51 531 OFFCURVE",
"51 336 CURVE SMOOTH",
"51 132 OFFCURVE",
"196 -23 OFFCURVE",
"380 -23 CURVE SMOOTH",
"597 -23 OFFCURVE",
"723 167 OFFCURVE",
"723 361 CURVE SMOOTH"
);
},
{
closed = 1;
nodes = (
"582 107 OFFCURVE",
"511 33 OFFCURVE",
"417 33 CURVE SMOOTH",
"281 33 OFFCURVE",
"190 193 OFFCURVE",
"192 395 CURVE",
"193 601 OFFCURVE",
"276 666 OFFCURVE",
"365 666 CURVE SMOOTH",
"495 666 OFFCURVE",
"582 517 OFFCURVE",
"582 286 CURVE SMOOTH"
);
}
);
width = 765;
}
);
unicode = 00F0;
},
{
glyphname = ntilde;
layers = (
{
anchors = (
{
name = H;
position = "{601, 0}";
},
{
name = L;
position = "{392, -76}";
},
{
name = U;
position = "{392, 1092}";
}
);
layerId = "233CC76B-C9AF-4A7F-B493-FFD1BBE88986";
paths = (
{
closed = 1;
nodes = (
"428 29 LINE",
"531 29 OFFCURVE",
"541 50 OFFCURVE",
"541 158 CURVE SMOOTH",
"541 442 LINE SMOOTH",
"541 568 OFFCURVE",
"514 624 OFFCURVE",
"432 624 CURVE SMOOTH",
"374 624 OFFCURVE",
"313 592 OFFCURVE",
"252 525 CURVE",
"252 158 LINE SMOOTH",
"252 49 OFFCURVE",
"265 29 OFFCURVE",
"366 29 CURVE",
"366 0 LINE",
"20 0 LINE",
"20 29 LINE",
"107 29 OFFCURVE",
"125 51 OFFCURVE",
"125 158 CURVE SMOOTH",
"125 417 LINE SMOOTH",
"125 583 OFFCURVE",
"118 596 OFFCURVE",
"102 607 CURVE",
"85 622 OFFCURVE",
"58 622 OFFCURVE",
"20 606 CURVE",
"8 633 LINE",
"221 717 LINE",
"252 717 LINE",
"252 572 LINE",
"335 668 OFFCURVE",
"412 717 OFFCURVE",
"486 717 CURVE SMOOTH",
"622 717 OFFCURVE",
"669 613 OFFCURVE",
"669 457 CURVE SMOOTH",
"669 158 LINE SMOOTH",
"669 54 OFFCURVE",
"683 29 OFFCURVE",
"777 29 CURVE",
"777 0 LINE",
"428 0 LINE"
);
},
{
closed = 1;
nodes = (
"643 940 OFFCURVE",
"573 856 OFFCURVE",
"486 856 CURVE SMOOTH",
"372 856 OFFCURVE",
"362 928 OFFCURVE",
"261 928 CURVE SMOOTH",
"221 928 OFFCURVE",
"177 890 OFFCURVE",
"173 856 CURVE",
"132 856 LINE",
"155 946 OFFCURVE",
"206 1015 OFFCURVE",
"305 1015 CURVE SMOOTH",
"384 1015 OFFCURVE",
"424 946 OFFCURVE",
"503 946 CURVE SMOOTH",
"552 946 OFFCURVE",
"598 973 OFFCURVE",
"610 1023 CURVE",
"651 1023 LINE"
);
}
);
width = 780;
}
);
unicode = 00F1;
},
{
glyphname = ograve;
layers = (
{
anchors = (
{
name = H;
position = "{389, 0}";
},
{
name = L;
position = "{389, -76}";
},
{
name = O;
position = "{546, 0}";
},
{
name = R;
position = "{780, 685}";
},
{
name = U;
position = "{389, 1092}";
}
);
layerId = "233CC76B-C9AF-4A7F-B493-FFD1BBE88986";
paths = (
{
closed = 1;
nodes = (
"726 182 OFFCURVE",
"611 -23 OFFCURVE",
"382 -23 CURVE SMOOTH",
"187 -23 OFFCURVE",
"53 148 OFFCURVE",
"53 342 CURVE SMOOTH",
"53 530 OFFCURVE",
"180 717 OFFCURVE",
"390 717 CURVE SMOOTH",
"590 717 OFFCURVE",
"726 561 OFFCURVE",
"726 361 CURVE SMOOTH"
);
},
{
closed = 1;
nodes = (
"584 510 OFFCURVE",
"500 669 OFFCURVE",
"366 669 CURVE SMOOTH",
"286 669 OFFCURVE",
"193 607 OFFCURVE",
"193 405 CURVE SMOOTH",
"193 205 OFFCURVE",
"280 33 OFFCURVE",
"414 33 CURVE SMOOTH",
"514 33 OFFCURVE",
"584 103 OFFCURVE",
"584 303 CURVE SMOOTH"
);
},
{
closed = 1;
nodes = (
"307 1011 LINE SMOOTH",
"279 1040 OFFCURVE",
"243 1062 OFFCURVE",
"217 1062 CURVE SMOOTH",
"186 1062 OFFCURVE",
"168 1040 OFFCURVE",
"168 1003 CURVE SMOOTH",
"168 976 OFFCURVE",
"210 952 OFFCURVE",
"236 936 CURVE SMOOTH",
"460 793 LINE",
"524 793 LINE"
);
}
);
width = 780;
}
);
unicode = 00F2;
},
{
glyphname = oacute;
layers = (
{
anchors = (
{
name = H;
position = "{389, 0}";
},
{
name = L;
position = "{389, -76}";
},
{
name = O;
position = "{546, 0}";
},
{
name = R;
position = "{780, 685}";
},
{
name = U;
position = "{389, 1092}";
}
);
layerId = "233CC76B-C9AF-4A7F-B493-FFD1BBE88986";
paths = (
{
closed = 1;
nodes = (
"726 182 OFFCURVE",
"611 -23 OFFCURVE",
"382 -23 CURVE SMOOTH",
"187 -23 OFFCURVE",
"53 148 OFFCURVE",
"53 342 CURVE SMOOTH",
"53 530 OFFCURVE",
"180 717 OFFCURVE",
"390 717 CURVE SMOOTH",
"590 717 OFFCURVE",
"726 561 OFFCURVE",
"726 361 CURVE SMOOTH"
);
},
{
closed = 1;
nodes = (
"584 510 OFFCURVE",
"500 669 OFFCURVE",
"366 669 CURVE SMOOTH",
"286 669 OFFCURVE",
"193 607 OFFCURVE",
"193 405 CURVE SMOOTH",
"193 205 OFFCURVE",
"280 33 OFFCURVE",
"414 33 CURVE SMOOTH",
"514 33 OFFCURVE",
"584 103 OFFCURVE",
"584 303 CURVE SMOOTH"
);
},
{
closed = 1;
nodes = (
"607 1033 OFFCURVE",
"583 1062 OFFCURVE",
"567 1062 CURVE SMOOTH",
"533 1062 OFFCURVE",
"499 1038 OFFCURVE",
"473 1011 CURVE SMOOTH",
"256 793 LINE",
"319 793 LINE",
"544 936 LINE SMOOTH",
"577 957 OFFCURVE",
"607 982 OFFCURVE",
"607 1012 CURVE SMOOTH"
);
}
);
width = 780;
}
);
unicode = 00F3;
},
{
glyphname = ocircumflex;
layers = (
{
anchors = (
{
name = H;
position = "{389, 0}";
},
{
name = L;
position = "{389, -76}";
},
{
name = O;
position = "{546, 0}";
},
{
name = R;
position = "{780, 685}";
},
{
name = U;
position = "{389, 1092}";
}
);
layerId = "233CC76B-C9AF-4A7F-B493-FFD1BBE88986";
paths = (
{
closed = 1;
nodes = (
"726 182 OFFCURVE",
"611 -23 OFFCURVE",
"382 -23 CURVE SMOOTH",
"187 -23 OFFCURVE",
"53 148 OFFCURVE",
"53 342 CURVE SMOOTH",
"53 530 OFFCURVE",
"180 717 OFFCURVE",
"390 717 CURVE SMOOTH",
"590 717 OFFCURVE",
"726 561 OFFCURVE",
"726 361 CURVE SMOOTH"
);
},
{
closed = 1;
nodes = (
"584 510 OFFCURVE",
"500 669 OFFCURVE",
"366 669 CURVE SMOOTH",
"286 669 OFFCURVE",
"193 607 OFFCURVE",
"193 405 CURVE SMOOTH",
"193 205 OFFCURVE",
"280 33 OFFCURVE",
"414 33 CURVE SMOOTH",
"514 33 OFFCURVE",
"584 103 OFFCURVE",
"584 303 CURVE SMOOTH"
);
},
{
closed = 1;
nodes = (
"389 956 LINE",
"199 793 LINE",
"145 793 LINE",
"341 1055 LINE",
"438 1055 LINE",
"634 793 LINE",
"580 793 LINE"
);
}
);
width = 780;
}
);
unicode = 00F4;
},
{
glyphname = otilde;
layers = (
{
anchors = (
{
name = H;
position = "{389, 0}";
},
{
name = L;
position = "{389, -76}";
},
{
name = O;
position = "{546, 0}";
},
{
name = R;
position = "{780, 685}";
},
{
name = U;
position = "{389, 1092}";
}
);
layerId = "233CC76B-C9AF-4A7F-B493-FFD1BBE88986";
paths = (
{
closed = 1;
nodes = (
"726 182 OFFCURVE",
"611 -23 OFFCURVE",
"382 -23 CURVE SMOOTH",
"187 -23 OFFCURVE",
"53 148 OFFCURVE",
"53 342 CURVE SMOOTH",
"53 530 OFFCURVE",
"180 717 OFFCURVE",
"390 717 CURVE SMOOTH",
"590 717 OFFCURVE",
"726 561 OFFCURVE",
"726 361 CURVE SMOOTH"
);
},
{
closed = 1;
nodes = (
"584 510 OFFCURVE",
"500 669 OFFCURVE",
"366 669 CURVE SMOOTH",
"286 669 OFFCURVE",
"193 607 OFFCURVE",
"193 405 CURVE SMOOTH",
"193 205 OFFCURVE",
"280 33 OFFCURVE",
"414 33 CURVE SMOOTH",
"514 33 OFFCURVE",
"584 103 OFFCURVE",
"584 303 CURVE SMOOTH"
);
},
{
closed = 1;
nodes = (
"640 940 OFFCURVE",
"570 856 OFFCURVE",
"483 856 CURVE SMOOTH",
"369 856 OFFCURVE",
"359 928 OFFCURVE",
"258 928 CURVE SMOOTH",
"218 928 OFFCURVE",
"174 890 OFFCURVE",
"170 856 CURVE",
"129 856 LINE",
"152 946 OFFCURVE",
"203 1015 OFFCURVE",
"302 1015 CURVE SMOOTH",
"380 1015 OFFCURVE",
"421 946 OFFCURVE",
"500 946 CURVE SMOOTH",
"549 946 OFFCURVE",
"595 973 OFFCURVE",
"607 1023 CURVE",
"648 1023 LINE"
);
}
);
width = 780;
}
);
unicode = 00F5;
},
